<svg width="46" height="46" viewBox="0 0 46 46" fill="none" xmlns="http://www.w3.org/2000/svg">
<path d="M5.98862 25.875H0.17825H0V40.25L4.25787 36.3371C8.4295 42.1849 15.2691 46 23 46C34.73 46 44.4072 37.2198 45.8217 25.875H40.0114C38.6429 34.0343 31.5474 40.25 23 40.25C16.9453 40.25 11.615 37.1277 8.53875 32.4041L15.6429 25.875H5.98862Z" fill="#8251C1"/>
<path d="M23 0C11.27 0 1.59272 8.78025 0.178223 20.125H5.9886C7.3571 11.9657 14.4526 5.75 23 5.75C29.2358 5.75 34.7012 9.05912 37.7315 14.0185L31.625 20.125H37.375H40.0113H45.8217H46V5.75L41.883 9.867C37.7286 3.90137 30.82 0 23 0Z" fill="#8251C1"/>
</svg>
