<svg width="174" height="160" fill="none" xmlns="http://www.w3.org/2000/svg"><g clip-path="url(#clip0)"><path d="M82.025 35.44l14.784 5.593L102 155.474-8 106.472 82.025 35.44z" fill="url(#paint0_linear)"/><path fill-rule="evenodd" clip-rule="evenodd" d="M58.108 84.628c-.308 1.865.117 4.288 2.343 7.095 2.363 2.98 2.912 5.518 2.543 7.514-.365 1.978-1.616 3.329-2.675 3.974l-.52-.855c.857-.522 1.907-1.646 2.212-3.3.302-1.639-.107-3.892-2.344-6.712-2.373-2.993-2.907-5.695-2.545-7.88.358-2.164 1.585-3.758 2.629-4.574l.616.787c-.873.683-1.946 2.065-2.258 3.95zm6.961 0c-.31 1.865.115 4.288 2.342 7.095 2.363 2.98 2.912 5.518 2.543 7.514-.365 1.978-1.616 3.329-2.675 3.974l-.52-.855c.858-.522 1.907-1.646 2.212-3.3.303-1.639-.107-3.892-2.344-6.712-2.373-2.993-2.907-5.695-2.545-7.88.359-2.164 1.585-3.758 2.629-4.574l.616.787c-.873.683-1.946 2.065-2.258 3.95zm6.959 0c-.309 1.865.116 4.288 2.343 7.095 2.363 2.98 2.912 5.518 2.543 7.514-.365 1.978-1.616 3.329-2.675 3.974l-.52-.855c.857-.522 1.907-1.646 2.212-3.3.302-1.639-.107-3.892-2.344-6.712-2.374-2.993-2.907-5.695-2.545-7.88.358-2.164 1.585-3.758 2.629-4.574l.616.787c-.873.683-1.946 2.065-2.259 3.95z" fill="#fff"/><path fill-rule="evenodd" clip-rule="evenodd" d="M51.042 127.472v-8h-4a4 4 0 000 8h4zm4-12h-8a8 8 0 000 16h8v-16z" fill="url(#paint1_linear)"/><path fill-rule="evenodd" clip-rule="evenodd" d="M157.273 92.263l-30.97 49.651 3.394 2.117 32.03-51.35-20.742-53.41-24.02-5.744-.93 3.89 21.98 5.256 19.258 49.59z" fill="#B2EEFC"/><rect x="104.5" y="139.472" width="51.5" height="8" rx="4" fill="#B2EEFC"/><circle cx="89.05" cy="37.956" transform="rotate(30 89.05 37.956)" fill="#fff" r="8.114"/><circle cx="139.25" cy="41.456" r="3.5" fill="#2D3238"/><circle cx="158.684" cy="92.682" r="3.5" fill="#2D3238"/><path d="M59.045 24.094C65.235 6.957 84.144-1.917 101.28 4.272c17.136 6.19 26.011 25.1 19.821 42.236l-.648 1.795a3.49 3.49 0 01-4.468 2.096L60.493 30.356a3.49 3.49 0 01-2.096-4.467l.648-1.795z" fill="url(#paint2_linear)"/><path d="M51.309 107.472h35.483v31.129a8.87 8.87 0 01-8.87 8.871H60.18a8.87 8.87 0 01-8.871-8.871v-31.129z" fill="url(#paint3_linear)"/></g><defs><linearGradient id="paint0_linear" x1="87" y1="31.534" x2="51" y2="124.534" gradientUnits="userSpaceOnUse"><stop stop-color="#6FC7A1"/><stop offset="1" stop-color="#fff"/></linearGradient><linearGradient id="paint1_linear" x1="55.042" y1="123.472" x2="39.042" y2="123.472" gradientUnits="userSpaceOnUse"><stop stop-color="#FA9EC2"/><stop offset="1" stop-color="#FFDBEB"/></linearGradient><linearGradient id="paint2_linear" x1="101.559" y1="4.033" x2="88.239" y2="40.378" gradientUnits="userSpaceOnUse"><stop stop-color="#00B8F0"/><stop offset="0" stop-color="#00B8F0"/><stop offset="1" stop-color="#B2EEFC"/></linearGradient><linearGradient id="paint3_linear" x1="69.051" y1="107.472" x2="69.051" y2="147.472" gradientUnits="userSpaceOnUse"><stop stop-color="#FA9EC2"/><stop offset="1" stop-color="#FFDBEB"/></linearGradient><clipPath id="clip0"><path fill="#fff" transform="translate(0 .065)" d="M0 0h174v159H0z"/></clipPath></defs></svg>