<svg width="101" height="163" fill="none" xmlns="http://www.w3.org/2000/svg"><path d="M29.298 11.13c.217-.486.805-.674 1.313-.418l16.741 8.412c.509.255.745.856.528 1.342l-3.243 7.269c-.217.486-.805.673-1.313.418L26.583 19.74c-.508-.255-.744-.856-.527-1.342l3.242-7.27z" fill="url(#paint0_linear)"/><path d="M39.831 20.775c-.741 1.656-2.712 2.311-4.402 1.463-1.69-.848-2.459-2.878-1.717-4.534.742-1.656 2.713-2.311 4.403-1.463 1.69.848 2.458 2.878 1.716 4.534z" fill="#fff"/><path d="M53.94 31.439c-.479-.319-.615-.943-.305-1.393L69.649 6.769c.31-.45.95-.558 1.428-.24l11.702 7.789c.478.318.615.942.305 1.393L67.07 38.987c-.31.45-.95.558-1.429.24L53.94 31.439z" fill="url(#paint1_linear)"/><path d="M70.779 19.105c2.41 1.612 3.132 4.72 1.612 6.94-1.52 2.222-4.706 2.716-7.117 1.103-2.41-1.612-3.132-4.72-1.612-6.941s4.706-2.715 7.117-1.102z" fill="#fff"/><path d="M94.892 30.89c.469.33.587.955.264 1.398L84.032 47.56c-.323.444-.964.536-1.433.207l-7.366-5.176c-.469-.33-.587-.955-.264-1.398L86.093 25.92c.323-.444.964-.536 1.433-.207l7.366 5.176z" fill="url(#paint2_linear)"/><path d="M83.319 39.3c-1.629-1.149-2.064-3.301-.972-4.807 1.091-1.506 3.297-1.795 4.926-.646 1.628 1.15 2.064 3.302.972 4.808-1.092 1.506-3.297 1.795-4.926.645z" fill="#fff"/><path d="M36.927 61.532c.468.329.586.955.264 1.398L26.066 78.202c-.322.443-.964.536-1.432.207l-7.366-5.177c-.469-.329-.587-.955-.264-1.398l11.124-15.272c.323-.443.964-.535 1.433-.206l7.366 5.176z" fill="url(#paint3_linear)"/><path d="M25.354 69.942c-1.63-1.15-2.065-3.302-.973-4.808 1.092-1.506 3.297-1.794 4.926-.645 1.629 1.15 2.064 3.302.973 4.808-1.092 1.506-3.298 1.795-4.927.645z" fill="#fff"/><path d="M20.923 52.886c-.54.232-1.133.008-1.326-.5l-2.973-7.84c-.193-.509.088-1.109.627-1.34l3.263-1.405c.539-.231 1.132-.007 1.325.501l2.973 7.84c.193.508-.088 1.109-.627 1.34l-3.262 1.404z" fill="url(#paint4_linear)"/><path d="M20.144 45.932c.929-.403 1.943-.033 2.266.826.323.859-.168 1.881-1.097 2.284-.929.403-1.944.034-2.266-.825-.323-.859.168-1.882 1.097-2.285z" fill="#fff"/><path d="M67.8 52.8a.982.982 0 011.408-.002l10.487 10.65c.39.396.391 1.04.003 1.437l-4.608 4.722a.982.982 0 01-1.409.003L63.195 58.96a1.03 1.03 0 01-.004-1.437L67.8 52.8z" fill="url(#paint5_linear)"/><path d="M73.277 62.963c-1.092 1.118-2.842 1.146-3.91.062-1.068-1.084-1.048-2.87.043-3.989 1.091-1.118 2.842-1.146 3.91-.062 1.067 1.085 1.048 2.87-.043 3.989z" fill="#fff"/><path fill-rule="evenodd" clip-rule="evenodd" d="M100.37 44.383a.838.838 0 01-.287 1.15c-2.913 1.748-6.3 2.62-9.69 3.174-1.698.278-3.414.478-5.083.666l-.55.062c-1.481.166-2.918.327-4.293.53a282.48 282.48 0 01-3.514.488c-6.763.911-13.316 1.794-19.05 5.502-5.364 3.467-10.112 9.634-12.098 15.772-1.365 4.219-.395 7.436 1.62 11.406a.839.839 0 01-1.496.759c-2.096-4.131-3.285-7.844-1.72-12.681 2.105-6.506 7.095-12.988 12.783-16.665 6.077-3.928 13.052-4.862 19.802-5.766 1.151-.154 2.296-.308 3.428-.475 1.406-.207 2.874-.372 4.35-.537l.55-.062c1.67-.187 3.348-.384 5-.654 3.312-.542 6.453-1.37 9.098-2.957a.838.838 0 011.15.288z" fill="#FFDBEB"/><path fill-rule="evenodd" clip-rule="evenodd" d="M41.575 9.656a.839.839 0 011.186 0c5.214 5.214 10.03 12.462 10.906 20.055 1.053 9.125-1.49 17.781-3.967 26.211a410.626 410.626 0 00-1.131 3.899c-.346 1.223-.723 2.431-1.098 3.634-.731 2.347-1.456 4.673-1.937 7.047-.717 3.543-.843 7.026.427 10.465a.839.839 0 01-1.574.581c-1.418-3.84-1.247-7.67-.497-11.379.497-2.453 1.268-4.93 2.014-7.328.368-1.182.73-2.345 1.051-3.477.374-1.323.76-2.639 1.145-3.951 2.479-8.454 4.912-16.75 3.9-25.51-.814-7.064-5.345-13.981-10.425-19.06a.839.839 0 010-1.187z" fill="#FFDBEB"/><path fill-rule="evenodd" clip-rule="evenodd" d="M9.107 48.573a.839.839 0 011.125.375c.16.319.598.665 1.322 1.015.484.233.973.416 1.44.59.219.083.433.163.64.245 2.642 1.057 4.948 1.76 7.736 2.293.81.155 1.643.303 2.49.453 2.555.453 5.229.927 7.749 1.69 3.382 1.024 6.603 2.596 9.101 5.432 2.556 2.9 3.875 5.727 4.457 8.75.575 2.997.418 6.148.09 9.665a.839.839 0 11-1.67-.155c.326-3.503.46-6.449-.068-9.192-.521-2.716-1.7-5.271-4.067-7.96-2.216-2.515-5.113-3.961-8.33-4.934-2.416-.732-4.947-1.181-7.477-1.63-.865-.153-1.73-.307-2.59-.472-2.905-.556-5.314-1.29-8.044-2.382a26.048 26.048 0 00-.513-.196c-.495-.185-1.118-.418-1.673-.687-.76-.367-1.664-.917-2.093-1.775a.839.839 0 01.375-1.125z" fill="#FFDBEB"/><path d="M9.77 115.159c-.706-2.367 1.066-4.745 3.536-4.745h61.501a3.69 3.69 0 013.605 4.477l-9.783 44.836a3.69 3.69 0 01-3.606 2.903H26.67a3.69 3.69 0 01-3.537-2.636L9.77 115.159z" fill="url(#paint6_linear)"/><path d="M0 83.177a3.69 3.69 0 013.69-3.69h80.365a3.69 3.69 0 013.69 3.69v28.971a3.69 3.69 0 01-3.69 3.69H3.69a3.69 3.69 0 01-3.69-3.69V83.177z" fill="#B2EEFC"/><path d="M39.51 4.533c1.86-1.57 4.703-1.403 6.35.373 1.645 1.776 1.47 4.49-.39 6.06-1.86 1.57-4.703 1.403-6.349-.373-1.646-1.777-1.472-4.49.389-6.06z" fill="url(#paint7_linear)"/><mask id="a" maskUnits="userSpaceOnUse" x="38" y="3" width="10" height="10"><path d="M39.968 4.935c1.834-1.548 4.563-1.462 6.096.193 1.533 1.655 1.289 4.25-.545 5.799-1.834 1.548-4.564 1.461-6.096-.193-1.533-1.655-1.29-4.251.545-5.8z" fill="#C4C4C4"/></mask><g mask="url(#a)"><path d="M38.083 5.387l.005-1.978c.033-.492.381-.896.952-.786l9.492.067c.327.025.515.03.694.23l-4.488 3.524-5.752-.178c-.45.024-.936-.388-.903-.88z" fill="url(#paint8_linear)"/><path d="M44.536 12.922l2.02.387c.51.067.99-.18.992-.74l1.813-8.942c.04-.313.073-.49-.096-.699l-4.49 3.523-.958 5.447c-.114.419.21.958.719 1.024z" fill="url(#paint9_linear)"/><path d="M34.581 8.142l.005-1.978c.033-.492.382-.895.952-.786l9.492.068c.327.024.515.029.694.23L41.236 9.2l-5.752-.179c-.45.024-.936-.387-.903-.879z" fill="url(#paint10_linear)"/><path d="M41.033 15.678l2.022.387c.508.066.99-.181.99-.74l1.814-8.943c.04-.312.073-.49-.096-.698l-4.49 3.523-.958 5.446c-.114.42.21.958.718 1.024z" fill="url(#paint11_linear)"/><path d="M31.212 10.793l.005-1.978c.033-.492.382-.895.952-.786l9.492.068c.327.024.515.029.694.229l-4.488 3.525-5.752-.179c-.45.024-.936-.387-.903-.88z" fill="url(#paint12_linear)"/><path d="M37.665 18.328l2.02.388c.51.066.99-.181.992-.74l1.813-8.943c.04-.313.073-.49-.096-.698l-4.49 3.523-.958 5.446c-.114.42.21.958.719 1.024z" fill="url(#paint13_linear)"/></g><path d="M32.84 48.864c1.861-1.57 4.704-1.403 6.35.373 1.645 1.776 1.471 4.49-.39 6.06-1.86 1.57-4.703 1.403-6.349-.374-1.646-1.776-1.471-4.489.39-6.06z" fill="url(#paint14_linear)"/><mask id="b" maskUnits="userSpaceOnUse" x="31" y="48" width="10" height="9"><path d="M33.298 49.266c1.834-1.548 4.563-1.461 6.096.193 1.533 1.655 1.289 4.251-.545 5.799s-4.563 1.461-6.096-.193c-1.533-1.655-1.289-4.25.545-5.799z" fill="#C4C4C4"/></mask><g mask="url(#b)"><path d="M31.413 49.718l.006-1.978c.033-.492.381-.896.951-.786l9.492.068c.328.024.515.028.694.229l-4.488 3.525-5.751-.179c-.451.024-.937-.387-.904-.88z" fill="url(#paint15_linear)"/><path d="M37.866 57.253l2.021.388c.509.066.99-.182.991-.74l1.814-8.943c.04-.313.073-.49-.097-.698l-4.49 3.523-.958 5.446c-.114.42.21.958.719 1.024z" fill="url(#paint16_linear)"/><path d="M27.912 52.473l.005-1.978c.033-.492.381-.895.951-.786l9.493.068c.327.024.514.029.693.23l-4.488 3.524-5.751-.178c-.451.023-.937-.388-.904-.88z" fill="url(#paint17_linear)"/><path d="M34.364 60.009l2.021.387c.509.066.99-.181.991-.74l1.814-8.942c.04-.313.073-.49-.097-.699l-4.49 3.523-.958 5.447c-.114.419.21.958.719 1.024z" fill="url(#paint18_linear)"/><path d="M24.543 55.124l.005-1.978c.033-.492.381-.895.951-.786l9.492.068c.328.024.515.029.694.229l-4.488 3.525-5.751-.179c-.451.024-.937-.387-.904-.879z" fill="url(#paint19_linear)"/><path d="M30.995 62.66l2.021.387c.509.066.99-.181.991-.74l1.814-8.943c.04-.312.073-.49-.096-.698l-4.49 3.523-.959 5.446c-.114.42.21.958.72 1.025z" fill="url(#paint20_linear)"/></g><path d="M62.663 42.395c1.86-1.57 4.704-1.403 6.35.374 1.645 1.776 1.471 4.489-.39 6.06-1.86 1.57-4.703 1.402-6.349-.374-1.646-1.776-1.471-4.49.39-6.06z" fill="url(#paint21_linear)"/><mask id="c" maskUnits="userSpaceOnUse" x="61" y="41" width="10" height="9"><path d="M63.12 42.798c1.835-1.548 4.564-1.462 6.097.193 1.533 1.654 1.289 4.25-.545 5.798s-4.564 1.462-6.096-.193c-1.533-1.654-1.29-4.25.545-5.798z" fill="#C4C4C4"/></mask><g mask="url(#c)"><path d="M61.236 43.25l.005-1.979c.033-.491.381-.895.952-.785l9.492.067c.327.024.515.029.694.23l-4.488 3.524-5.752-.178c-.45.024-.936-.388-.903-.88z" fill="url(#paint22_linear)"/><path d="M67.689 50.785l2.02.388c.51.066.991-.182.992-.74l1.814-8.944c.04-.313.073-.49-.096-.698l-4.49 3.523-.96 5.447c-.113.42.21.958.72 1.024z" fill="url(#paint23_linear)"/><path d="M57.734 46.005l.005-1.978c.033-.492.382-.896.952-.786l9.492.067c.327.025.515.03.694.23l-4.488 3.524-5.751-.178c-.451.024-.937-.388-.904-.88z" fill="url(#paint24_linear)"/><path d="M64.187 53.54l2.02.388c.51.066.991-.182.992-.74l1.814-8.943c.04-.313.073-.49-.096-.699l-4.49 3.524-.96 5.446c-.113.42.21.958.72 1.024z" fill="url(#paint25_linear)"/><path d="M54.365 48.656l.005-1.978c.033-.492.382-.896.952-.786l9.492.067c.327.024.515.029.694.23l-4.488 3.524-5.752-.178c-.45.024-.936-.388-.903-.88z" fill="url(#paint26_linear)"/><path d="M60.818 56.191l2.02.388c.51.066.99-.182.992-.74l1.814-8.944c.04-.312.073-.49-.096-.698l-4.49 3.523-.96 5.447c-.113.42.21.958.72 1.024z" fill="url(#paint27_linear)"/></g><defs><linearGradient id="paint0_linear" x1="38.982" y1="14.918" x2="34.548" y2="23.743" gradientUnits="userSpaceOnUse"><stop stop-color="#6FC7A1"/><stop offset="1" stop-color="#DBFBDF"/></linearGradient><linearGradient id="paint1_linear" x1="61.642" y1="18.407" x2="74.936" y2="27.553" gradientUnits="userSpaceOnUse"><stop stop-color="#6FC7A1"/><stop offset="1" stop-color="#DBFBDF"/></linearGradient><linearGradient id="paint2_linear" x1="89.594" y1="39.924" x2="80.642" y2="33.404" gradientUnits="userSpaceOnUse"><stop stop-color="#6FC7A1"/><stop offset="1" stop-color="#DBFBDF"/></linearGradient><linearGradient id="paint3_linear" x1="31.628" y1="70.566" x2="22.677" y2="64.046" gradientUnits="userSpaceOnUse"><stop stop-color="#6FC7A1"/><stop offset="1" stop-color="#DBFBDF"/></linearGradient><linearGradient id="paint4_linear" x1="18.111" y1="48.466" x2="23.414" y2="46.454" gradientUnits="userSpaceOnUse"><stop stop-color="#6FC7A1"/><stop offset="1" stop-color="#DBFBDF"/></linearGradient><linearGradient id="paint5_linear" x1="74.451" y1="58.123" x2="68.317" y2="64.163" gradientUnits="userSpaceOnUse"><stop stop-color="#6FC7A1"/><stop offset="1" stop-color="#DBFBDF"/></linearGradient><linearGradient id="paint6_linear" x1="44.056" y1="110.414" x2="44.056" y2="162.63" gradientUnits="userSpaceOnUse"><stop stop-color="#00B8F0"/><stop offset="0" stop-color="#00B8F0"/><stop offset=".74" stop-color="#B2EEFC"/></linearGradient><linearGradient id="paint7_linear" x1="39.121" y1="10.592" x2="45.582" y2="4.606" gradientUnits="userSpaceOnUse"><stop stop-color="#1792C7"/><stop offset="1" stop-color="#00B8F0"/></linearGradient><linearGradient id="paint8_linear" x1="39.032" y1="6.786" x2="46.624" y2=".006" gradientUnits="userSpaceOnUse"><stop stop-color="#00B8F0"/><stop offset="0" stop-color="#00B8F0"/><stop offset=".74" stop-color="#B2EEFC"/></linearGradient><linearGradient id="paint9_linear" x1="43.294" y1="11.751" x2="51.208" y2="5.318" gradientUnits="userSpaceOnUse"><stop stop-color="#00B8F0"/><stop offset="0" stop-color="#00B8F0"/><stop offset=".74" stop-color="#B2EEFC"/></linearGradient><linearGradient id="paint10_linear" x1="35.53" y1="9.542" x2="43.122" y2="2.762" gradientUnits="userSpaceOnUse"><stop stop-color="#00B8F0"/><stop offset="0" stop-color="#00B8F0"/><stop offset=".74" stop-color="#B2EEFC"/></linearGradient><linearGradient id="paint11_linear" x1="39.792" y1="14.507" x2="47.706" y2="8.074" gradientUnits="userSpaceOnUse"><stop stop-color="#00B8F0"/><stop offset="0" stop-color="#00B8F0"/><stop offset=".74" stop-color="#B2EEFC"/></linearGradient><linearGradient id="paint12_linear" x1="32.161" y1="12.193" x2="39.753" y2="5.413" gradientUnits="userSpaceOnUse"><stop stop-color="#00B8F0"/><stop offset="0" stop-color="#00B8F0"/><stop offset=".74" stop-color="#B2EEFC"/></linearGradient><linearGradient id="paint13_linear" x1="36.423" y1="17.158" x2="44.337" y2="10.725" gradientUnits="userSpaceOnUse"><stop stop-color="#00B8F0"/><stop offset="0" stop-color="#00B8F0"/><stop offset=".74" stop-color="#B2EEFC"/></linearGradient><linearGradient id="paint14_linear" x1="32.451" y1="54.923" x2="38.912" y2="48.937" gradientUnits="userSpaceOnUse"><stop stop-color="#1792C7"/><stop offset="1" stop-color="#00B8F0"/></linearGradient><linearGradient id="paint15_linear" x1="32.363" y1="51.117" x2="39.954" y2="44.337" gradientUnits="userSpaceOnUse"><stop stop-color="#00B8F0"/><stop offset="0" stop-color="#00B8F0"/><stop offset=".74" stop-color="#B2EEFC"/></linearGradient><linearGradient id="paint16_linear" x1="36.625" y1="56.083" x2="44.538" y2="49.65" gradientUnits="userSpaceOnUse"><stop stop-color="#00B8F0"/><stop offset="0" stop-color="#00B8F0"/><stop offset=".74" stop-color="#B2EEFC"/></linearGradient><linearGradient id="paint17_linear" x1="28.861" y1="53.873" x2="36.452" y2="47.093" gradientUnits="userSpaceOnUse"><stop stop-color="#00B8F0"/><stop offset="0" stop-color="#00B8F0"/><stop offset=".74" stop-color="#B2EEFC"/></linearGradient><linearGradient id="paint18_linear" x1="33.123" y1="58.838" x2="41.036" y2="52.405" gradientUnits="userSpaceOnUse"><stop stop-color="#00B8F0"/><stop offset="0" stop-color="#00B8F0"/><stop offset=".74" stop-color="#B2EEFC"/></linearGradient><linearGradient id="paint19_linear" x1="25.492" y1="56.524" x2="33.083" y2="49.744" gradientUnits="userSpaceOnUse"><stop stop-color="#00B8F0"/><stop offset="0" stop-color="#00B8F0"/><stop offset=".74" stop-color="#B2EEFC"/></linearGradient><linearGradient id="paint20_linear" x1="29.754" y1="61.489" x2="37.667" y2="55.056" gradientUnits="userSpaceOnUse"><stop stop-color="#00B8F0"/><stop offset="0" stop-color="#00B8F0"/><stop offset=".74" stop-color="#B2EEFC"/></linearGradient><linearGradient id="paint21_linear" x1="62.274" y1="48.455" x2="68.735" y2="42.469" gradientUnits="userSpaceOnUse"><stop stop-color="#1792C7"/><stop offset="1" stop-color="#00B8F0"/></linearGradient><linearGradient id="paint22_linear" x1="62.185" y1="44.649" x2="69.777" y2="37.869" gradientUnits="userSpaceOnUse"><stop stop-color="#00B8F0"/><stop offset="0" stop-color="#00B8F0"/><stop offset=".74" stop-color="#B2EEFC"/></linearGradient><linearGradient id="paint23_linear" x1="66.448" y1="49.614" x2="74.362" y2="43.181" gradientUnits="userSpaceOnUse"><stop stop-color="#00B8F0"/><stop offset="0" stop-color="#00B8F0"/><stop offset=".74" stop-color="#B2EEFC"/></linearGradient><linearGradient id="paint24_linear" x1="58.683" y1="47.404" x2="66.275" y2="40.624" gradientUnits="userSpaceOnUse"><stop stop-color="#00B8F0"/><stop offset="0" stop-color="#00B8F0"/><stop offset=".74" stop-color="#B2EEFC"/></linearGradient><linearGradient id="paint25_linear" x1="62.945" y1="52.37" x2="70.86" y2="45.936" gradientUnits="userSpaceOnUse"><stop stop-color="#00B8F0"/><stop offset="0" stop-color="#00B8F0"/><stop offset=".74" stop-color="#B2EEFC"/></linearGradient><linearGradient id="paint26_linear" x1="55.314" y1="50.055" x2="62.906" y2="43.275" gradientUnits="userSpaceOnUse"><stop stop-color="#00B8F0"/><stop offset="0" stop-color="#00B8F0"/><stop offset=".74" stop-color="#B2EEFC"/></linearGradient><linearGradient id="paint27_linear" x1="59.576" y1="55.021" x2="67.491" y2="48.587" gradientUnits="userSpaceOnUse"><stop stop-color="#00B8F0"/><stop offset="0" stop-color="#00B8F0"/><stop offset=".74" stop-color="#B2EEFC"/></linearGradient></defs></svg>