<svg width="124" height="138" fill="none" xmlns="http://www.w3.org/2000/svg"><path d="M104.067 89.434a4.546 4.546 0 00-3.227-1.27 4.557 4.557 0 00-3.181 1.386 4.798 4.798 0 00-1.351 3.265 4.807 4.807 0 001.237 3.312 7.91 7.91 0 011.673 2.564 8.076 8.076 0 010 6.05 7.921 7.921 0 01-1.672 2.564 4.805 4.805 0 00-1.238 3.312 4.796 4.796 0 001.35 3.265 4.558 4.558 0 003.182 1.387 4.548 4.548 0 003.227-1.271c3.168-3.261 4.946-7.677 4.946-12.282 0-4.604-1.778-9.021-4.946-12.282z" fill="url(#paint0_linear)"/><path d="M113.419 79.3a5.312 5.312 0 00-3.594-1.302 5.29 5.29 0 00-3.542 1.42 4.72 4.72 0 00-1.504 3.347 4.7 4.7 0 001.378 3.393c4.476 4.245 6.99 9.991 6.99 15.982 0 5.99-2.514 11.737-6.99 15.981a4.7 4.7 0 00-1.378 3.394 4.718 4.718 0 001.504 3.345 5.289 5.289 0 003.542 1.421 5.313 5.313 0 003.594-1.302c6.401-6.064 9.995-14.277 9.995-22.839 0-8.563-3.594-16.776-9.995-22.84z" fill="url(#paint1_linear)"/><path d="M80.567 18.701H19.714C9.15 18.701.586 27.285.586 37.874v70.929c0 10.589 8.564 19.173 19.128 19.173h60.853c10.564 0 19.128-8.584 19.128-19.173V37.874c0-10.589-8.564-19.173-19.128-19.173z" fill="#333"/><path d="M96.997 89.421c-.984.908-1.537 2.138-1.537 3.42 0 1.284.553 2.514 1.537 3.421a8.061 8.061 0 011.905 2.62c.442.98.669 2.031.669 3.092a7.518 7.518 0 01-.67 3.092 8.06 8.06 0 01-1.904 2.62c-.984.908-1.537 2.138-1.537 3.421 0 1.282.553 2.513 1.537 3.42.357.298.758.548 1.192.742a17.34 17.34 0 001.506-7.067v-20.04a5.287 5.287 0 00-2.698 1.26z" fill="url(#paint2_linear)"/><path d="M69.41 54.116l-6.368-5.822c-1.498-1.552-4.12-1.164-5.244.389L39.817 70.804l-10.49-9.314c-1.498-1.165-4.12-1.165-5.244.388l-5.62 6.986c-1.498 1.552-1.123 4.269.375 5.433l19.48 17.076c.75.776 1.873 1.164 2.997.776 1.124 0 2.248-.388 2.622-1.552l25.474-31.048c1.873-1.552 1.498-4.269 0-5.433z" fill="url(#paint3_linear)"/><path d="M80.193 54.079l-6.369-5.822c-1.498-1.552-4.12-1.164-5.244.389l-17.981 22.12-10.49-9.313c-1.498-1.165-4.12-1.165-5.244.776l-5.619 6.597c-1.124 1.553-1.124 4.27.375 5.434L49.1 91.336c.748.776 1.872 1.164 2.996.776 1.124 0 2.248-.388 2.622-1.552l25.474-31.048c1.873-1.552 1.498-3.88 0-5.433z" fill="url(#paint4_linear)"/><path d="M99.695 39.032h5.281c.53 0 1.055.11 1.545.326.49.215.935.53 1.31.928s.672.87.875 1.39c.203.519.307 1.076.307 1.638v21.083a4.418 4.418 0 01-1.182 3.028 3.927 3.927 0 01-2.855 1.255h-5.28V39.03z" fill="url(#paint5_linear)"/><path d="M74.495 3.171c0-.823-.343-1.613-.952-2.196a3.324 3.324 0 00-2.296-.91h-42.31c-.861 0-1.688.328-2.296.91a3.039 3.039 0 00-.951 2.196 25.708 25.708 0 01-2.955 11.927l-1.819 3.603h58.45l-1.917-3.696a25.71 25.71 0 01-2.954-11.834z" fill="url(#paint6_linear)"/><path d="M31.892 137.294H68.39a10.5 10.5 0 005.344-1.547 9.875 9.875 0 003.683-4.013l1.948-3.758H20.916l1.916 3.696a9.866 9.866 0 003.685 4.057 10.498 10.498 0 005.375 1.565z" fill="url(#paint7_linear)"/><path d="M102.237 39.032h-2.542V68.68h2.542V39.03z" fill="url(#paint8_linear)"/><defs><linearGradient id="paint0_linear" x1="270.002" y1="1015.22" x2="374.448" y2="1015.22" gradientUnits="userSpaceOnUse"><stop stop-color="#87C5FC" stop-opacity=".384"/><stop offset=".52" stop-color="#CCE2E6"/><stop offset="1" stop-color="#8FA1BB"/></linearGradient><linearGradient id="paint1_linear" x1="359.531" y1="1729.31" x2="512.719" y2="1729.31" gradientUnits="userSpaceOnUse"><stop stop-color="#87C5FC" stop-opacity=".384"/><stop offset=".52" stop-color="#CCE2E6"/><stop offset="1" stop-color="#8FA1BB"/></linearGradient><linearGradient id="paint2_linear" x1="153.358" y1="1015.22" x2="188.174" y2="1015.22" gradientUnits="userSpaceOnUse"><stop stop-color="#87C5FC" stop-opacity=".384"/><stop offset=".52" stop-color="#CCE2E6"/><stop offset="1" stop-color="#8FA1BB"/></linearGradient><linearGradient id="paint3_linear" x1="44.094" y1="47.306" x2="44.094" y2="92.301" gradientUnits="userSpaceOnUse"><stop stop-color="#1792C7"/><stop offset="1" stop-color="#00B8F0"/></linearGradient><linearGradient id="paint4_linear" x1="54.953" y1="47.269" x2="54.953" y2="92.264" gradientUnits="userSpaceOnUse"><stop stop-color="#00B8F0"/><stop offset="0" stop-color="#00B8F0"/><stop offset=".74" stop-color="#B2EEFC"/></linearGradient><linearGradient id="paint5_linear" x1="475.303" y1="617.169" x2="388.925" y2="617.169" gradientUnits="userSpaceOnUse"><stop stop-color="#fff"/><stop offset=".52" stop-color="#CCE2E6"/><stop offset="1" stop-color="#8FA1BB"/></linearGradient><linearGradient id="paint6_linear" x1="50.141" y1=".065" x2="50.141" y2="18.701" gradientUnits="userSpaceOnUse"><stop stop-color="#00B8F0"/><stop offset="0" stop-color="#00B8F0"/><stop offset=".74" stop-color="#B2EEFC"/></linearGradient><linearGradient id="paint7_linear" x1="50.141" y1="127.976" x2="50.141" y2="137.294" gradientUnits="userSpaceOnUse"><stop stop-color="#00B8F0"/><stop offset="0" stop-color="#00B8F0"/><stop offset=".74" stop-color="#B2EEFC"/></linearGradient><linearGradient id="paint8_linear" x1="218.067" y1="617.169" x2="176.899" y2="617.169" gradientUnits="userSpaceOnUse"><stop stop-color="#fff"/><stop offset=".52" stop-color="#CCE2E6"/><stop offset="1" stop-color="#8FA1BB"/></linearGradient></defs></svg>