<svg width="354" height="357" fill="none" xmlns="http://www.w3.org/2000/svg"><rect width="74.734" height="36.984" rx="3" transform="matrix(.98487 .1721 -.13727 .99037 266.253 153.302)" fill="url(#paint0_linear)"/><ellipse rx="12.191" ry="12.248" transform="matrix(.98479 .17273 -.13678 .99046 299.626 177.581)" fill="#fff"/><rect width="152.325" height="75.383" rx="3" transform="matrix(.98487 .1721 -.13727 .99037 10.86 113.455)" fill="url(#paint1_linear)"/><ellipse rx="24.849" ry="24.963" transform="matrix(.98479 .17273 -.13678 .99046 78.883 162.941)" fill="#fff"/><circle cx="208.356" cy="304.284" r="52.342" fill="url(#paint2_linear)"/><circle cx="208.356" cy="304.284" r="42.526" stroke="#fff" stroke-width="2"/><path d="M195.3 326.855v-6.765h-5.058v-6.133h5.058v-4.931h-5.058v-7.84h5.058v-19.473h14.415c5.817 0 10.053 1.18 12.708 3.54 2.698 2.361 4.047 5.606 4.047 9.737 0 2.445-.548 4.742-1.644 6.891-1.096 2.15-2.93 3.878-5.501 5.185-2.529 1.306-5.985 1.96-10.369 1.96h-4.109v4.931h9.736v6.133h-9.736v6.765H195.3zm9.547-25.669h3.161c2.698 0 4.826-.464 6.386-1.391 1.601-.927 2.402-2.424 2.402-4.489 0-3.836-2.529-5.753-7.587-5.753h-4.362v11.633z" fill="#fff"/><circle cx="86.065" cy="234.78" r="2.751" fill="#FFDB5B"/><circle cx="277.604" cy="87.878" r="2.751" fill="#FFDB5B"/><circle cx="129.227" cy="268.481" r="1.834" fill="#FFDB5B"/><circle cx="175.672" cy="207.75" r="1.834" fill="#FFDB5B"/><circle cx="320.645" cy="58.104" r="32.526" fill="#DDF2F9"/><path d="M320.645 41.5c8.776 0 16.646 1.983 22.27 5.113 5.674 3.158 8.756 7.282 8.756 11.49 0 4.21-3.082 8.333-8.756 11.492-5.624 3.13-13.494 5.113-22.27 5.113s-16.646-1.983-22.27-5.113c-5.674-3.159-8.756-7.283-8.756-11.491 0-4.209 3.082-8.333 8.756-11.491 5.624-3.13 13.494-5.114 22.27-5.114z" stroke="#fff" stroke-width="3"/><path d="M304.041 58.104c0 8.775 1.983 16.646 5.113 22.27 3.158 5.674 7.282 8.756 11.491 8.756s8.333-3.082 11.491-8.756c3.13-5.624 5.113-13.495 5.113-22.27 0-8.776-1.983-16.646-5.113-22.27-3.158-5.674-7.282-8.756-11.491-8.756s-8.333 3.082-11.491 8.756c-3.13 5.624-5.113 13.494-5.113 22.27z" stroke="#fff" stroke-width="3"/><circle cx="151.356" cy="90.63" r="90" fill="url(#paint3_linear)"/><circle cx="151.356" cy="90.63" r="73.842" stroke="#fff" stroke-width="2"/><path d="M128.907 129.44v-11.632h-8.697v-10.545h8.697v-8.48h-8.697v-13.48h8.697V51.82h24.786c10.002 0 17.285 2.029 21.851 6.087 4.639 4.06 6.958 9.64 6.958 16.742 0 4.204-.942 8.154-2.827 11.85-1.884 3.696-5.037 6.668-9.458 8.914-4.348 2.247-10.291 3.37-17.828 3.37h-7.067v8.48h16.742v10.545h-16.742v11.632h-16.415zm16.415-44.137h5.436c4.638 0 8.298-.797 10.98-2.392 2.754-1.594 4.131-4.167 4.131-7.718 0-6.596-4.349-9.893-13.046-9.893h-7.501v20.003z" fill="#fff"/><defs><linearGradient id="paint0_linear" x1="37.367" y1="0" x2="37.367" y2="36.984" gradientUnits="userSpaceOnUse"><stop stop-color="#6FC7A1"/><stop offset="1" stop-color="#DBFBDF"/></linearGradient><linearGradient id="paint1_linear" x1="76.163" y1="0" x2="76.163" y2="75.383" gradientUnits="userSpaceOnUse"><stop stop-color="#6FC7A1"/><stop offset="1" stop-color="#DBFBDF"/></linearGradient><linearGradient id="paint2_linear" x1="208.356" y1="251.942" x2="208.356" y2="356.626" gradientUnits="userSpaceOnUse"><stop stop-color="#FFD08A"/><stop offset="1" stop-color="#F2AA3D"/></linearGradient><linearGradient id="paint3_linear" x1="151.356" y1=".63" x2="151.356" y2="180.63" gradientUnits="userSpaceOnUse"><stop stop-color="#FFD08A"/><stop offset="1" stop-color="#F2AA3D"/></linearGradient></defs></svg>