<svg width="461" height="474" fill="none" xmlns="http://www.w3.org/2000/svg"><path d="M150.209 429.049v-55.611H108.66v-50.413h41.549v-40.538H108.66v-64.446h41.549V57.966h118.415c47.781 0 82.578 9.701 104.392 29.104 22.159 19.403 33.239 46.083 33.239 80.038 0 20.096-4.501 38.979-13.504 56.65-9.002 17.67-24.064 31.876-45.184 42.617-20.775 10.741-49.166 16.112-85.176 16.112h-33.758v40.538h79.982v50.413h-79.982v55.611h-78.424zm78.424-211.008h25.968c22.159 0 39.645-3.811 52.456-11.434 13.157-7.623 19.735-19.923 19.735-36.9 0-31.53-20.774-47.295-62.323-47.295h-35.836v95.629z" fill="url(#paint0_linear)"/><path fill-rule="evenodd" clip-rule="evenodd" d="M361.884 416.252a2 2 0 012 2v25.006a2 2 0 01-2 2h-29.382l-2.695 4.73a.5.5 0 01-.867.004l-2.748-4.734h-6.52a2 2 0 01-2-2v-25.006a2 2 0 012-2h42.212z" fill="url(#paint1_linear)"/><path transform="matrix(.99945 -.03323 .02915 .99957 281.983 433.776)" stroke="#FEF97A" stroke-width="2" stroke-linecap="round" stroke-linejoin="round" d="M1-1h20.353"/><path transform="matrix(.9974 -.07217 .06336 .998 291.229 440.721)" stroke="#FEF97A" stroke-width="2" stroke-linecap="round" stroke-linejoin="round" d="M1-1h9.243"/><path transform="matrix(.9974 -.07217 .06336 .998 292.569 426.003)" stroke="#FEF97A" stroke-width="2" stroke-linecap="round" stroke-linejoin="round" d="M1-1h9.243"/><path d="M359.007 292.888c-.277-.504-.791-.791-1.406-.791h-7.561c-.903 0-1.84.624-2.23 1.486l-8.019 17.663c-.261.576-.245 1.187.039 1.672.287.489.795.773 1.396.787l5.934.079-4.295 11.389c-.106.284-.328.879.068 1.491.173.268.47.433.775.433h.069c.58 0 .929-.466 1.097-.691l13.88-18.486c.593-.788.348-1.494.259-1.7-.093-.197-.466-.842-1.412-.842h-4.417l5.78-10.801c.303-.57.32-1.187.043-1.689z" fill="#FEF97A"/><path fill-rule="evenodd" clip-rule="evenodd" d="M65.003 112.479a2 2 0 012 2v10.094a2 2 0 01-2 2h-14.86l-1.26 2a.5.5 0 01-.845.003l-1.286-2.003h-2.577a2 2 0 01-2-2v-10.094a2 2 0 012-2h20.828z" fill="url(#paint2_linear)"/><path transform="rotate(-1.721 4039.918 -705.26) skewX(.128)" stroke="#FEF97A" stroke-linecap="round" stroke-linejoin="round" d="M.5-.5h11.008"/><path transform="rotate(-3.74 1916.495 -365.787) skewX(.272)" stroke="#FEF97A" stroke-linecap="round" stroke-linejoin="round" d="M.5-.5h5.038"/><path transform="matrix(.99787 -.06527 .07007 .99754 28.688 117.217)" stroke="#FEF97A" stroke-linecap="round" stroke-linejoin="round" d="M.5-.5h5.038"/><path d="M118.263 25.634c-.277-.456-.791-.716-1.407-.716h-7.56c-.903 0-1.841.565-2.23 1.344l-8.019 15.973c-.262.52-.245 1.073.04 1.512.286.442.793.7 1.395.712l5.934.071-4.296 10.3c-.105.256-.327.794.068 1.348a.96.96 0 00.776.391h.069c.58 0 .929-.422 1.097-.625l13.88-16.717c.592-.712.348-1.351.258-1.537-.093-.178-.465-.762-1.411-.762h-4.417l5.78-9.767c.303-.516.32-1.073.043-1.527z" fill="#FEF97A"/><g clip-path="url(#clip0)"><path d="M73.696 193.139c-.193-.299-.551-.47-.98-.47h-5.27c-.63 0-1.283.371-1.554.883l-5.589 10.497c-.182.342-.171.705.027.993.2.291.554.46.973.468l4.136.047-2.994 6.768c-.074.169-.228.523.047.886.12.16.328.257.54.257h.05c.403 0 .646-.277.763-.41l9.674-10.986c.413-.468.243-.888.18-1.01-.064-.117-.324-.501-.983-.501h-3.078l4.028-6.418c.211-.339.223-.705.03-1.004z" fill="#FEF97A"/></g><path fill-rule="evenodd" clip-rule="evenodd" d="M406.134 364.918a4 4 0 00-4 4v12.901a4 4 0 004 4h21.006l1.653 2.623a1 1 0 001.687.007l1.688-2.63h2.79a4 4 0 004-4v-12.901a4 4 0 00-4-4h-28.824z" fill="url(#paint3_linear)"/><path transform="rotate(-1.723 12748.638 -12059.686) skewX(.126)" stroke="#FEF97A" stroke-linecap="round" stroke-linejoin="round" d="M.5-.5h23.002"/><path transform="rotate(-3.74 6068.439 -5591.58) skewX(.272)" stroke="#FEF97A" stroke-linecap="round" stroke-linejoin="round" d="M.5-.5h11.067"/><path transform="rotate(-3.74 5850.508 -5620.726) skewX(.272)" stroke="#FEF97A" stroke-linecap="round" stroke-linejoin="round" d="M.5-.5h11.067"/><defs><linearGradient id="paint0_linear" x1="257.457" y1="57.966" x2="257.457" y2="429.049" gradientUnits="userSpaceOnUse"><stop stop-color="#00B8F0"/><stop offset="0" stop-color="#00B8F0"/><stop offset=".74" stop-color="#B2EEFC"/></linearGradient><linearGradient id="paint1_linear" x1="340.778" y1="416.252" x2="340.778" y2="450.241" gradientUnits="userSpaceOnUse"><stop stop-color="#00B8F0"/><stop offset="0" stop-color="#00B8F0"/><stop offset=".74" stop-color="#B2EEFC"/></linearGradient><linearGradient id="paint2_linear" x1="54.589" y1="112.479" x2="54.589" y2="128.806" gradientUnits="userSpaceOnUse"><stop stop-color="#00B8F0"/><stop offset="0" stop-color="#00B8F0"/><stop offset=".74" stop-color="#B2EEFC"/></linearGradient><linearGradient id="paint3_linear" x1="420.546" y1="364.918" x2="420.546" y2="388.909" gradientUnits="userSpaceOnUse"><stop stop-color="#6FC7A1"/><stop offset="1" stop-color="#DBFBDF"/></linearGradient><clipPath id="clip0"><path fill="#fff" transform="translate(55.503 192.669)" d="M0 0h23v20.799H0z"/></clipPath></defs></svg>