<svg width="228" height="139" fill="none" xmlns="http://www.w3.org/2000/svg"><rect x="77.195" y="28.577" width="44.545" height="21.262" rx="3" transform="rotate(-17.133 77.195 28.577)" fill="url(#paint0_linear)"/><ellipse cx="101.015" cy="32.174" rx="7.234" ry="6.985" transform="rotate(-17.133 101.015 32.174)" fill="#fff"/><rect x="26.874" y="28.499" width="93.545" height="44.651" rx="3" transform="rotate(36.036 26.874 28.5)" fill="url(#paint1_linear)"/><ellipse cx="50.815" cy="73.065" rx="15.191" ry="14.668" transform="rotate(36.036 50.815 73.065)" fill="#fff"/><rect x="106.506" y="105.899" width="73.127" height="34.905" rx="3" transform="rotate(-19.34 106.506 105.899)" fill="url(#paint2_linear)"/><ellipse cx="145.808" cy="110.293" rx="11.876" ry="11.466" transform="rotate(-19.34 145.808 110.293)" fill="#fff"/><path d="M196.492 12.999l-9.021-8.224c-2.123-2.193-5.838-1.645-7.43.548l-25.472 31.252-14.859-13.159c-2.123-1.645-5.837-1.645-7.429.549l-7.961 9.869c-2.122 2.193-1.592 6.03.531 7.675l27.595 24.125c1.062 1.096 2.654 1.645 4.246 1.096 1.592 0 3.184-.548 3.714-2.193l36.086-43.862c2.654-2.193 2.123-6.031 0-7.676z" fill="url(#paint3_linear)"/><path d="M211.766 12.947l-9.021-8.225c-2.123-2.193-5.837-1.644-7.429.549l-25.473 31.252-14.859-13.16c-2.123-1.644-5.837-1.644-7.429 1.098l-7.96 9.32c-1.592 2.193-1.592 6.031.53 7.676l27.595 24.124c1.062 1.097 2.654 1.645 4.246 1.097 1.592 0 3.184-.548 3.715-2.193l36.085-43.862c2.654-2.194 2.123-5.483 0-7.676z" fill="url(#paint4_linear)"/><defs><linearGradient id="paint0_linear" x1="99.467" y1="28.577" x2="99.467" y2="49.84" gradientUnits="userSpaceOnUse"><stop stop-color="#6FC7A1"/><stop offset="1" stop-color="#DBFBDF"/></linearGradient><linearGradient id="paint1_linear" x1="73.647" y1="28.499" x2="73.647" y2="73.151" gradientUnits="userSpaceOnUse"><stop stop-color="#6FC7A1"/><stop offset="1" stop-color="#DBFBDF"/></linearGradient><linearGradient id="paint2_linear" x1="143.069" y1="105.899" x2="143.069" y2="140.804" gradientUnits="userSpaceOnUse"><stop stop-color="#6FC7A1"/><stop offset="1" stop-color="#DBFBDF"/></linearGradient><linearGradient id="paint3_linear" x1="160.629" y1="3.379" x2="160.629" y2="66.945" gradientUnits="userSpaceOnUse"><stop stop-color="#1792C7"/><stop offset="1" stop-color="#00B8F0"/></linearGradient><linearGradient id="paint4_linear" x1="176.011" y1="3.326" x2="176.011" y2="66.893" gradientUnits="userSpaceOnUse"><stop stop-color="#00B8F0"/><stop offset="0" stop-color="#00B8F0"/><stop offset=".74" stop-color="#B2EEFC"/></linearGradient></defs></svg>