<svg width="141" height="160" fill="none" xmlns="http://www.w3.org/2000/svg"><path d="M72.005 30.559c.52-1.786 2.982-1.956 3.744-.26l9.638 21.46a2 2 0 01-1.686 2.814l-16.225 1.124a2 2 0 01-2.058-2.555l6.587-22.583z" fill="url(#paint0_linear)"/><path fill-rule="evenodd" clip-rule="evenodd" d="M74.9 42.514c13.251 0 24.15 9.525 25.467 21.734l6.818 22.157c5.262.675 9.318 4.942 9.318 10.106 0 5.632-4.826 10.199-10.779 10.199-4.938 0-9.101-3.143-10.377-7.43l-10.734-3.977-30.091 49.211c-1.048 1.714-3.686.985-3.707-1.023l-.718-70.742a23.035 23.035 0 01-.795-6.014c0-13.377 11.46-24.221 25.599-24.221z" fill="url(#paint1_linear)"/><path d="M117.367 18.43c1.995-1.4 4.285 1.309 2.572 3.043l-32.586 32.98a2 2 0 01-2.95-.115l-5.364-6.345a2 2 0 01.379-2.928l37.949-26.635z" fill="url(#paint2_linear)"/><path d="M51.79 31.918c-.007-1.795 2.172-2.689 3.428-1.407l19.841 20.25a2 2 0 01-.67 3.25l-19.74 8.1a2 2 0 01-2.759-1.844l-.1-28.349z" fill="url(#paint3_linear)"/><ellipse cx="79.217" cy="47.705" rx="11.793" ry="10.725" fill="url(#paint4_linear)"/><ellipse cx="29.065" cy="131.565" rx="29.065" ry="27.5" fill="url(#paint5_linear)"/><ellipse cx="37.202" cy="73.18" rx="26.925" ry="25.475" fill="url(#paint6_linear)"/><ellipse cx="42.218" cy="100.308" rx="15.912" ry="15.056" fill="url(#paint7_linear)"/><ellipse cx="80.569" cy="69.098" rx="2.968" ry="3.155" fill="#3E464F"/><ellipse cx="106.396" cy="93.808" rx="1.274" ry="2.102" fill="#3E464F"/><defs><linearGradient id="paint0_linear" x1="73.525" y1="25.347" x2="76.276" y2="65.065" gradientUnits="userSpaceOnUse"><stop stop-color="#1792C7"/><stop offset="1" stop-color="#00B8F0"/></linearGradient><linearGradient id="paint1_linear" x1="82.902" y1="42.514" x2="82.902" y2="145.474" gradientUnits="userSpaceOnUse"><stop stop-color="#00B8F0"/><stop offset="0" stop-color="#00B8F0"/><stop offset=".74" stop-color="#B2EEFC"/></linearGradient><linearGradient id="paint2_linear" x1="135.564" y1="5.659" x2="63.773" y2="66.334" gradientUnits="userSpaceOnUse"><stop stop-color="#FA9EC2"/><stop offset="1" stop-color="#FFDBEB"/></linearGradient><linearGradient id="paint3_linear" x1="51.773" y1="26.994" x2="68.769" y2="68.415" gradientUnits="userSpaceOnUse"><stop stop-color="#00B8F0"/><stop offset="0" stop-color="#00B8F0"/><stop offset=".74" stop-color="#B2EEFC"/></linearGradient><linearGradient id="paint4_linear" x1="79.217" y1="36.98" x2="79.217" y2="58.43" gradientUnits="userSpaceOnUse"><stop stop-color="#6FC7A1"/><stop offset="1" stop-color="#DBFBDF"/></linearGradient><linearGradient id="paint5_linear" x1="29.065" y1="104.065" x2="29.065" y2="159.065" gradientUnits="userSpaceOnUse"><stop stop-color="#6FC7A1"/><stop offset="1" stop-color="#DBFBDF"/></linearGradient><linearGradient id="paint6_linear" x1="37.202" y1="47.705" x2="37.202" y2="98.656" gradientUnits="userSpaceOnUse"><stop stop-color="#6FC7A1"/><stop offset="1" stop-color="#DBFBDF"/></linearGradient><linearGradient id="paint7_linear" x1="42.218" y1="85.252" x2="42.218" y2="115.364" gradientUnits="userSpaceOnUse"><stop stop-color="#6FC7A1"/><stop offset="1" stop-color="#DBFBDF"/></linearGradient></defs></svg>