<svg width="55" height="56" viewBox="0 0 55 56" fill="none" xmlns="http://www.w3.org/2000/svg">
<path fill-rule="evenodd" clip-rule="evenodd" d="M6.00006 16.971L6 45.1987C6 47.9245 8.20976 50.1343 10.9356 50.1343H37.6228C40.3486 50.1343 42.5584 47.9245 42.5584 45.1987L42.5585 10.1541C42.5585 7.42827 40.3487 5.21851 37.6228 5.21851H17.7526L6.00006 16.971Z" fill="url(#paint0_linear)"/>
<rect x="10.5956" y="30.1187" width="27.3673" height="15.5135" rx="3" fill="white"/>
<path d="M19.8281 35.8805L20.8467 35.0741C20.6981 34.8831 20.5178 34.7134 20.3056 34.5648C20.0934 34.4269 19.8599 34.3102 19.6265 34.2147C19.3825 34.1192 19.1278 34.0449 18.8732 34.0025C18.608 33.9601 18.3533 33.9282 18.1199 33.9282C17.5363 33.9282 16.9952 34.0237 16.5072 34.2041C16.0085 34.3951 15.5735 34.6497 15.2128 34.9892C14.852 35.3287 14.5655 35.7425 14.3533 36.2306C14.1411 36.7187 14.0457 37.2598 14.0457 37.8539C14.0457 38.4481 14.1411 38.9786 14.3427 39.4666C14.5337 39.9547 14.8096 40.3685 15.1703 40.7186C15.5204 41.0688 15.9448 41.3446 16.4329 41.5356C16.921 41.7266 17.4621 41.8221 18.0562 41.8221C18.6928 41.8221 19.2552 41.716 19.7432 41.4825C20.2207 41.2491 20.6239 40.9308 20.9634 40.5064L19.8918 39.7531C19.7008 40.0184 19.4461 40.2306 19.1385 40.3897C18.8202 40.5489 18.47 40.6231 18.0668 40.6231C17.6743 40.6231 17.3241 40.5595 17.0165 40.4215C16.6982 40.2942 16.4329 40.1032 16.2101 39.8592C15.9873 39.6152 15.8175 39.3181 15.7008 38.9786C15.5735 38.6391 15.5204 38.2677 15.5204 37.8539C15.5204 37.472 15.5735 37.1112 15.7008 36.7717C15.8281 36.4428 15.9979 36.1563 16.2313 35.9017C16.4647 35.6577 16.7406 35.4667 17.0589 35.3181C17.3772 35.1802 17.7273 35.1059 18.1199 35.1059C18.417 35.1059 18.7353 35.1696 19.0536 35.2969C19.3719 35.4242 19.6265 35.6152 19.8281 35.8805Z" fill="url(#paint1_linear)"/>
<path d="M25.8858 35.6895L26.7558 34.7346C26.4587 34.4693 26.1192 34.2677 25.7266 34.1298C25.334 34.0025 24.9521 33.9282 24.5701 33.9282C24.2306 33.9282 23.8911 33.9813 23.5622 34.0662C23.2333 34.151 22.9362 34.289 22.6815 34.4693C22.4269 34.6497 22.2147 34.8725 22.0556 35.1484C21.8964 35.4242 21.8221 35.7531 21.8221 36.1351C21.8221 36.4958 21.8752 36.7929 21.9919 37.0263C22.098 37.2598 22.2465 37.4614 22.4269 37.6205C22.6073 37.7903 22.8089 37.9176 23.0423 38.0131C23.2651 38.1192 23.4879 38.2041 23.7213 38.2677L24.3898 38.4905C24.602 38.5648 24.7823 38.6497 24.9415 38.7452C25.09 38.8407 25.2173 38.9574 25.3128 39.0847C25.3977 39.212 25.4508 39.3818 25.4508 39.5727C25.4508 39.7849 25.4083 39.9547 25.3234 40.0926C25.2386 40.2306 25.1325 40.3473 25.0051 40.4322C24.8778 40.5276 24.7293 40.5913 24.5701 40.6337C24.4004 40.6762 24.2412 40.6868 24.0927 40.6868C23.7956 40.6868 23.4879 40.6125 23.1802 40.464C22.8725 40.3154 22.6285 40.1139 22.4481 39.8592L21.4932 40.7505C21.7903 41.1112 22.1723 41.3764 22.6391 41.5568C23.1059 41.7372 23.5834 41.8221 24.0715 41.8221C24.4322 41.8221 24.7823 41.7796 25.1218 41.6735C25.4508 41.578 25.7372 41.4295 25.9919 41.2279C26.2359 41.0369 26.4375 40.7823 26.586 40.4852C26.7346 40.1881 26.8088 39.8274 26.8088 39.4242C26.8088 39.0635 26.7346 38.7558 26.5966 38.5011C26.4587 38.2571 26.2783 38.0555 26.0661 37.8858C25.8539 37.7266 25.6099 37.5993 25.3553 37.4932C25.1006 37.3977 24.846 37.3128 24.6126 37.2279C24.4004 37.1643 24.1988 37.1006 24.029 37.037C23.8486 36.9733 23.7001 36.899 23.5728 36.8141C23.4455 36.7293 23.35 36.6338 23.2863 36.5065C23.212 36.3897 23.1802 36.2412 23.1802 36.0714C23.1802 35.8911 23.212 35.7319 23.2969 35.6046C23.3818 35.4773 23.4879 35.3712 23.6152 35.2863C23.7425 35.2014 23.8805 35.1484 24.0396 35.1059C24.1882 35.0635 24.3473 35.0423 24.5065 35.0423C24.7611 35.0423 25.0264 35.1059 25.281 35.2333C25.5356 35.3606 25.7372 35.5091 25.8858 35.6895Z" fill="url(#paint2_linear)"/>
<path d="M27.3722 34.1192L30.343 41.6311H31.4995L34.5128 34.1192H33.0698L30.9796 39.9017H30.9372L28.8683 34.1192H27.3722Z" fill="url(#paint3_linear)"/>
<path fill-rule="evenodd" clip-rule="evenodd" d="M5.94388 16.9062L17.7476 5.10251L17.7499 5.11367L17.7499 11.9706C17.7499 14.6965 15.5401 16.9062 12.8142 16.9062L5.94388 16.9062Z" fill="url(#paint4_linear)"/>
<defs>
<linearGradient id="paint0_linear" x1="24.2792" y1="5.21851" x2="24.2792" y2="50.1343" gradientUnits="userSpaceOnUse">
<stop stop-color="#00B8F0"/>
<stop offset="0.0001" stop-color="#00B8F0"/>
<stop offset="0.739583" stop-color="#B2EEFC"/>
</linearGradient>
<linearGradient id="paint1_linear" x1="24.2792" y1="33.9282" x2="24.2792" y2="41.8221" gradientUnits="userSpaceOnUse">
<stop stop-color="#F86CA2"/>
<stop offset="1" stop-color="#FA9EC2"/>
</linearGradient>
<linearGradient id="paint2_linear" x1="24.2792" y1="33.9282" x2="24.2792" y2="41.8221" gradientUnits="userSpaceOnUse">
<stop stop-color="#F86CA2"/>
<stop offset="1" stop-color="#FA9EC2"/>
</linearGradient>
<linearGradient id="paint3_linear" x1="24.2792" y1="33.9282" x2="24.2792" y2="41.8221" gradientUnits="userSpaceOnUse">
<stop stop-color="#F86CA2"/>
<stop offset="1" stop-color="#FA9EC2"/>
</linearGradient>
<linearGradient id="paint4_linear" x1="11.8469" y1="16.9062" x2="11.8469" y2="5.10246" gradientUnits="userSpaceOnUse">
<stop stop-color="#1792C7"/>
<stop offset="1" stop-color="#00B8F0"/>
</linearGradient>
</defs>
</svg>
