<svg width="48" height="33" viewBox="0 0 48 33" fill="none" xmlns="http://www.w3.org/2000/svg">
<path d="M38.7368 5.75576L34.0414 1.62005C32.9366 0.51719 31.0032 0.792904 30.1746 1.89576L16.9171 17.6115L9.18353 10.9943C8.07874 10.1672 6.14535 10.1672 5.31675 11.27L1.17377 16.2329C0.0689758 17.3358 0.345175 19.2658 1.44997 20.0929L15.8123 32.2243C16.3647 32.7757 17.1933 33.0515 18.0219 32.7758C18.904 32.4822 20.0272 31.2032 20.7522 30.3181L38.7368 9.61576C40.1178 8.5129 39.8416 6.5829 38.7368 5.75576Z" fill="url(#paint0_linear)"/>
<path d="M46.6864 5.81358L41.9911 1.67787C40.8863 0.575015 38.9529 0.850729 38.1243 1.95359L24.8667 17.6693L17.1332 11.0522C16.0284 10.225 14.095 10.225 13.2664 11.6036L9.12341 16.2907C8.29481 17.3936 8.29481 19.3236 9.39961 20.1507L23.7619 32.2821C24.3143 32.8336 25.1869 33.0946 25.9715 32.8336C26.7562 32.5725 27.3487 31.7167 28.1892 30.7517L46.6864 9.67358C48.0674 8.57072 47.7912 6.91644 46.6864 5.81358Z" fill="url(#paint1_linear)"/>
<defs>
<linearGradient id="paint0_linear" x1="20.0711" y1="0.917969" x2="20.0711" y2="32.8839" gradientUnits="userSpaceOnUse">
<stop stop-color="#1792C7"/>
<stop offset="1" stop-color="#00B8F0"/>
</linearGradient>
<linearGradient id="paint1_linear" x1="28.0771" y1="0.97583" x2="28.0771" y2="32.9355" gradientUnits="userSpaceOnUse">
<stop stop-color="#00B8F0"/>
<stop offset="0.0001" stop-color="#00B8F0"/>
<stop offset="0.739583" stop-color="#B2EEFC"/>
</linearGradient>
</defs>
</svg>
