<svg xmlns="http://www.w3.org/2000/svg" xmlns:xlink="http://www.w3.org/1999/xlink"><symbol id="calendar" viewBox="0 0 32 32">
<path d="M26 4H22V2H20V4H12V2H10V4H6C4.9 4 4 4.9 4 6V26C4 27.1 4.9 28 6 28H26C27.1 28 28 27.1 28 26V6C28 4.9 27.1 4 26 4ZM26 26H6V12H26V26ZM26 10H6V6H10V8H12V6H20V8H22V6H26V10Z" fill="#00151C"/>
</symbol><symbol id="checkmark" viewBox="0 0 32 32">
<path d="M13 24L4 15L5.414 13.586L13 21.171L26.586 7.586L28 9L13 24Z" fill="#000000">
</path></symbol><symbol id="clock" viewBox="0 0 32 32">
<path d="M16 30C13.2311 30 10.5243 29.1789 8.22202 27.6406C5.91973 26.1022 4.12532 23.9157 3.06569 21.3576C2.00607 18.7994 1.72882 15.9845 2.26901 13.2687C2.80921 10.553 4.14258 8.05845 6.10051 6.10051C8.05845 4.14258 10.553 2.80921 13.2687 2.26901C15.9845 1.72882 18.7994 2.00607 21.3576 3.06569C23.9157 4.12532 26.1022 5.91973 27.6406 8.22202C29.1789 10.5243 30 13.2311 30 16C30 19.713 28.525 23.274 25.8995 25.8995C23.274 28.525 19.713 30 16 30ZM16 4.00001C13.6266 4.00001 11.3066 4.70379 9.33316 6.02237C7.35977 7.34095 5.8217 9.21509 4.91345 11.4078C4.0052 13.6005 3.76756 16.0133 4.23058 18.3411C4.69361 20.6689 5.83649 22.8071 7.51472 24.4853C9.19296 26.1635 11.3312 27.3064 13.6589 27.7694C15.9867 28.2325 18.3995 27.9948 20.5922 27.0866C22.7849 26.1783 24.6591 24.6402 25.9776 22.6668C27.2962 20.6935 28 18.3734 28 16C28 12.8174 26.7357 9.76516 24.4853 7.51472C22.2348 5.26429 19.1826 4.00001 16 4.00001Z" fill="#00151C"/>
<path d="M20.59 22L15 16.41V7.00001H17V15.58L22 20.59L20.59 22Z" fill="#00151C"/>
</symbol><symbol id="close" viewBox="0 0 32 32">
<path d="M24 9.4L22.6 8L16 14.6L9.4 8L8 9.4L14.6 16L8 22.6L9.4 24L16 17.4L22.6 24L24 22.6L17.4 16L24 9.4Z" fill="#00151C"/>
</symbol><symbol id="down" viewBox="0 0 32 32">
<path d="M24.59 16.59L17 24.17V4H15V24.17L7.41 16.59L6 18L16 28L26 18L24.59 16.59Z"/>
</symbol><symbol id="icons" viewBox="0 0 288 256">
<path fill-rule="evenodd" clip-rule="evenodd" d="M176 206.222L178.852 238.234L191.652 241.778L204.503 238.217L207.355 206.222H176ZM182.898 224.622L181.826 212.765H201.495L201.132 216.689L186.13 216.689L186.493 220.707L200.778 220.707L199.697 232.755L191.679 234.98V235.002L183.624 232.755L183.071 226.593H187.012L187.288 229.73L191.669 230.903L196.041 229.73L196.499 224.631H191.66V224.622H182.898Z" fill="#7DBCCA"/>
<path d="M259.555 92.4444H188.444V163.555H259.555V92.4444Z" fill="#7DBCCA"/>
<path d="M236.212 148C237.645 150.339 239.508 152.058 242.804 152.058C245.573 152.058 247.342 150.675 247.342 148.762C247.342 146.471 245.524 145.659 242.477 144.326L240.806 143.61C235.984 141.555 232.781 138.982 232.781 133.541C232.781 128.529 236.599 124.714 242.567 124.714C246.815 124.714 249.87 126.193 252.071 130.065L246.867 133.406C245.722 131.351 244.486 130.542 242.567 130.542C240.609 130.542 239.369 131.784 239.369 133.406C239.369 135.411 240.611 136.222 243.478 137.464L245.148 138.179C250.826 140.614 254.032 143.096 254.032 148.677C254.032 154.693 249.306 157.989 242.959 157.989C236.753 157.989 232.744 155.031 230.782 151.155L236.212 148ZM212.607 148.58C213.656 150.442 214.611 152.017 216.907 152.017C219.103 152.017 220.488 151.158 220.488 147.818V125.096H227.169V147.908C227.169 154.827 223.113 157.976 217.192 157.976C211.841 157.976 208.743 155.207 207.167 151.873L212.607 148.58Z" fill="#234A52"/>
<path fill-rule="evenodd" clip-rule="evenodd" d="M48.0155 77.2286L59.7915 41.2665H36.2395L48.0155 77.2286Z" fill="#7DBCCA"/>
<path fill-rule="evenodd" clip-rule="evenodd" d="M48.0194 77.2286L36.2434 41.2665H19.7395L48.0194 77.2286Z" fill="#D0F6FF"/>
<path fill-rule="evenodd" clip-rule="evenodd" d="M19.7395 41.2665L16.161 52.195C15.8346 53.1918 16.1921 54.2838 17.0466 54.8998L48.0193 77.2286L19.7395 41.2665Z" fill="#448A9A"/>
<path fill-rule="evenodd" clip-rule="evenodd" d="M19.7395 41.2664H36.2434L29.1506 19.6067C28.7858 18.4921 27.1967 18.4924 26.8319 19.6067L19.7395 41.2664Z" fill="#7DBCCA"/>
<path fill-rule="evenodd" clip-rule="evenodd" d="M48.0205 77.2286L59.7965 41.2665H76.3002L48.0205 77.2286Z" fill="#D0F6FF"/>
<path fill-rule="evenodd" clip-rule="evenodd" d="M76.3002 41.2665L79.8789 52.195C80.2053 53.1918 79.8477 54.2838 78.9933 54.8998L48.0205 77.2286L76.3002 41.2665Z" fill="#448A9A"/>
<path fill-rule="evenodd" clip-rule="evenodd" d="M76.2957 41.2664H59.792L66.8845 19.6067C67.2493 18.4921 68.8384 18.4924 69.2032 19.6067L76.2957 41.2664Z" fill="#7DBCCA"/>
<path d="M189.857 46.7168L177.283 34.1432C176.559 33.4189 175.384 33.4189 174.66 34.1432L172.049 36.7547L175.361 40.0666C176.13 39.8065 177.013 39.9811 177.626 40.5947C178.244 41.2122 178.417 42.1023 178.15 42.8749L181.342 46.0671C182.115 45.8007 183.006 45.9731 183.623 46.5908C184.484 47.4528 184.484 48.8494 183.623 49.7119C182.76 50.5741 181.363 50.5741 180.501 49.7119C179.852 49.0631 179.692 48.1103 180.021 47.3117L177.043 44.3345V52.1692C177.253 52.2732 177.452 52.4117 177.626 52.5866C178.488 53.4485 178.488 54.8452 177.626 55.708C176.765 56.5696 175.367 56.5696 174.506 55.708C173.644 54.8449 173.644 53.4482 174.506 52.5866C174.719 52.3738 174.965 52.2127 175.229 52.1049V44.1972C174.965 44.0894 174.719 43.9299 174.506 43.7155C173.853 43.063 173.696 42.1045 174.031 41.3028L170.766 38.0372L162.143 46.6585C161.419 47.3835 161.419 48.5579 162.143 49.2822L174.718 61.8561C175.442 62.5805 176.616 62.5805 177.341 61.8561L189.857 49.3405C190.581 48.6162 190.581 47.4412 189.857 46.7168Z" fill="#234A52"/>
<path fill-rule="evenodd" clip-rule="evenodd" d="M128 71.1111L149.333 83.1097V107.113L128 119.111L106.667 107.113V83.1097L128 71.1111ZM145.523 106.285L128.705 115.746V108.379L139.184 102.645L145.523 106.285ZM146.676 105.249V85.4668L140.524 89.0023V101.719L146.676 105.249ZM110.409 106.285L127.228 115.746V108.379L116.743 102.645L110.409 106.285ZM109.257 105.249V85.4668L115.409 89.0023V101.719L109.257 105.249ZM109.979 84.1842L127.228 74.4822V81.6024L116.175 87.6483L116.087 87.6978L109.979 84.1842ZM145.953 84.1842L128.705 74.4822V81.6024L139.757 87.6428L139.846 87.6922L145.953 84.1842ZM116.889 101.045L127.23 106.702V95.7828L116.889 89.8466V101.045ZM139.049 101.05L128.708 106.702V95.7828L139.049 89.8466V101.05ZM127.969 82.8799L117.589 88.5529L127.969 94.5112L138.349 88.5529L127.969 82.8799Z" fill="#7DBCCA"/>
<path d="M152.827 172.953C152.81 172.965 150.058 174.917 150.058 177.331C150.058 181.252 147.054 186.796 142.238 187.7C140.495 192.117 137.401 193.417 136.8 195.221C136.233 196.924 134.435 199.511 125.41 202.311C120.518 203.83 115.005 204.89 112.001 204.89C108.998 204.89 103.485 203.83 98.593 202.311C89.5677 199.511 87.7699 196.924 87.2023 195.221C86.6036 193.421 83.5059 192.113 81.7645 187.7C76.9484 186.796 73.9449 181.252 73.9449 177.331C73.9449 174.917 71.1924 172.965 71.1645 172.945C70.1015 172.255 69.7226 170.931 70.2098 169.761C72.3012 164.731 77.9948 152.687 83.2687 150.051C86.9923 148.189 92.025 148.446 95.8421 149.07C102.914 146.515 120.889 146.443 128.161 149.07C131.978 148.446 137.01 148.19 140.732 150.051C145.989 152.678 151.725 164.788 153.793 169.761C154.28 170.931 153.888 172.264 152.827 172.953Z" fill="#448A9A"/>
<path d="M143.497 179.956C143.497 191.06 137.635 192.712 136.801 195.221C136.233 196.924 134.435 199.511 125.41 202.311C120.518 203.83 115.005 204.89 112.002 204.89C108.998 204.89 103.485 203.83 98.5932 202.311C89.568 199.511 87.7701 196.924 87.2026 195.221C86.351 192.66 80.5066 191.154 80.5066 179.956C80.5066 168.703 88.7089 153.399 93.4851 150.215C97.8976 147.283 108.029 147.149 113.314 147.149C117.834 147.149 126.729 147.689 130.515 150.213C135.329 153.422 143.497 168.746 143.497 179.956Z" fill="#7DBCCA"/>
<path d="M127.521 200.72C127.224 201.387 126.651 201.917 125.923 202.15C120.959 203.738 115.105 204.89 112.001 204.89C108.898 204.89 103.043 203.738 98.0795 202.15C97.3512 201.917 96.7787 201.387 96.4818 200.72C93.3582 194.65 89.5859 184.226 94.3986 179.413C97.996 175.807 100.999 171.613 106.401 170.88C107.915 170.676 109.288 171.803 109.375 173.337C109.496 173.747 110.536 174.707 112.001 174.707C113.466 174.707 114.506 173.747 114.628 173.337C114.714 171.8 116.091 170.677 117.601 170.88C122.993 171.612 125.976 175.776 129.604 179.413C134.421 184.231 130.635 194.668 127.521 200.72Z" fill="#448A9A"/>
<path d="M94.2853 166.833C91.7367 166.833 89.6897 168.898 89.6897 171.426C89.6897 173.963 91.7461 176.019 94.2827 176.019C96.8313 176.019 98.8783 173.955 98.8783 171.426C98.8783 168.89 96.822 166.833 94.2853 166.833Z" fill="#234A52"/>
<path d="M129.714 176.019C132.263 176.019 134.31 173.955 134.31 171.426C134.31 168.89 132.254 166.833 129.717 166.833C127.168 166.833 125.121 168.898 125.121 171.426C125.121 173.963 127.178 176.019 129.714 176.019Z" fill="#234A52"/>
<path d="M118.125 173.765C118.125 176.43 115.092 178.626 112 178.626C108.864 178.626 105.875 176.396 105.875 173.765C105.875 171.885 107.484 169.876 112 169.876C116.516 169.876 118.125 171.885 118.125 173.765Z" fill="#234A52"/>
<path fill-rule="evenodd" clip-rule="evenodd" d="M127.959 46.3471C125.178 46.3471 123.029 45.9293 121.996 45.6804C121.289 45.5101 120.721 45.3339 120.29 45.1529L121.669 47.5078L122.208 54.8653C122.208 55.69 124.828 56.3586 128.06 56.3586C131.292 56.3586 133.913 55.69 133.913 54.8653L134.34 47.4276L135.644 45.146C135.211 45.3295 134.638 45.508 133.923 45.6804C132.889 45.9293 130.74 46.3471 127.959 46.3471ZM135.689 22.4056C133.647 22.6905 130.938 22.8477 128.06 22.8477C125.182 22.8477 122.473 22.6905 120.432 22.4056C119.421 22.2642 118.621 22.0977 118.054 21.9106C117.919 21.866 117.69 21.7897 117.47 21.6683L118.734 33.3076C118.793 33.1071 118.859 32.9069 118.931 32.7074C119.08 32.2987 119.251 31.8989 119.446 31.5085C119.641 31.1183 119.854 30.7492 120.083 30.4017C120.313 30.0543 120.557 29.7343 120.816 29.442C121.075 29.1497 121.34 28.8984 121.613 28.6877C121.886 28.4772 122.161 28.3126 122.439 28.1942C122.717 28.0756 122.992 28.0162 123.265 28.0162C123.579 28.0162 123.882 28.1021 124.176 28.2738C124.469 28.4456 124.743 28.7236 124.999 29.1078C125.058 29.1937 125.095 29.2806 125.11 29.3684C125.126 29.4564 125.133 29.5391 125.133 29.6168C125.133 29.8008 125.09 29.946 125.002 30.0521C124.914 30.1585 124.809 30.2116 124.689 30.2116C124.578 30.2116 124.475 30.1533 124.38 30.0369C124.285 29.9204 124.179 29.7538 124.062 29.5371C123.951 29.3409 123.83 29.1988 123.697 29.1108C123.564 29.023 123.42 28.9791 123.265 28.9791C123.023 28.9791 122.765 29.0792 122.491 29.2795C122.216 29.4797 121.944 29.7446 121.675 30.0737C121.406 30.4027 121.148 30.7789 120.901 31.202C120.654 31.6251 120.436 32.0584 120.246 32.5019C120.056 32.9457 119.905 33.3832 119.793 33.8145C119.681 34.2456 119.625 34.6329 119.625 34.9762C119.625 35.0909 119.633 35.2086 119.648 35.3289C119.664 35.4497 119.693 35.559 119.736 35.6571C119.779 35.7553 119.838 35.836 119.912 35.8991C119.986 35.9627 120.081 35.9942 120.194 35.9942C120.322 35.9942 120.467 35.9513 120.629 35.8655C120.792 35.7798 120.96 35.6673 121.134 35.5284C121.308 35.3892 121.484 35.2319 121.66 35.0561C121.836 34.8804 122 34.7026 122.151 34.5225C122.303 34.3428 122.438 34.17 122.555 34.0045C122.673 33.839 122.761 33.6948 122.819 33.5721L123.301 32.1309C123.359 31.9757 123.436 31.8653 123.531 31.7999C123.626 31.7345 123.724 31.7017 123.824 31.7017C123.872 31.7017 123.92 31.7099 123.969 31.7263C124.017 31.7426 124.06 31.7682 124.098 31.8029C124.136 31.8377 124.166 31.8825 124.189 31.9378C124.211 31.9929 124.222 32.0575 124.222 32.1309C124.222 32.3272 124.205 32.511 124.171 32.6829C124.136 32.8548 124.092 33.0223 124.039 33.1858C123.985 33.3492 123.925 33.5138 123.86 33.6793C123.794 33.845 123.73 34.0177 123.668 34.1977C123.655 34.2182 123.63 34.2824 123.593 34.3906C123.557 34.4991 123.513 34.6353 123.461 34.7985C123.41 34.9622 123.353 35.1449 123.293 35.3474C123.233 35.5497 123.171 35.7561 123.107 35.9668C123.043 36.1773 122.982 36.3837 122.923 36.5862C122.864 36.7885 122.811 36.9714 122.765 37.135C122.718 37.2984 122.68 37.4353 122.649 37.5458C122.617 37.6562 122.598 37.7215 122.591 37.7423C122.574 37.8073 122.546 37.8801 122.509 37.9597C122.471 38.0393 122.426 38.1151 122.374 38.1865C122.322 38.258 122.265 38.3176 122.203 38.3643C122.141 38.4113 122.077 38.4349 122.012 38.4349C121.901 38.4349 121.821 38.3981 121.771 38.3247C121.721 38.2511 121.696 38.1161 121.696 37.9201V37.8342C121.696 37.8054 121.698 37.7746 121.701 37.7423C121.704 37.6767 121.73 37.554 121.779 37.3739C121.827 37.1942 121.885 36.991 121.952 36.764C122.02 36.5371 122.092 36.3019 122.17 36.0587C122.247 35.8155 122.317 35.5979 122.379 35.4057C122.196 35.6102 121.998 35.8136 121.784 36.0159C121.57 36.2182 121.351 36.4002 121.126 36.5615C120.902 36.7231 120.676 36.855 120.448 36.9572C120.22 37.0593 120.001 37.1106 119.791 37.1106C119.549 37.1106 119.341 37.0573 119.167 36.951C119.135 36.9316 119.106 36.9101 119.076 36.8886L119.78 44.2671C119.963 44.7263 123.412 45.8543 127.959 45.8543C132.509 45.8543 135.959 44.725 136.139 44.2662L137.15 35.4941C137.066 35.5707 136.985 35.6457 136.907 35.7185C136.617 35.9881 136.343 36.2201 136.086 36.4143C135.829 36.6086 135.578 36.759 135.333 36.8649C135.088 36.9714 134.825 37.0246 134.546 37.0246C134.284 37.0246 134.081 36.9673 133.937 36.8529C133.794 36.7385 133.723 36.5812 133.723 36.3807V36.3348C133.723 36.3204 133.724 36.303 133.728 36.2825C133.742 36.1601 133.795 36.0187 133.889 35.8594C133.982 35.7 134.094 35.5345 134.225 35.3627C134.356 35.191 134.496 35.0173 134.644 34.8415C134.793 34.6657 134.93 34.4991 135.056 34.3416C135.182 34.1844 135.286 34.0404 135.369 33.9094C135.452 33.7785 135.493 33.6724 135.493 33.5905C135.493 33.5416 135.476 33.5026 135.442 33.4738C135.407 33.4456 135.35 33.431 135.271 33.431C135.133 33.431 134.99 33.4669 134.844 33.5384C134.697 33.6098 134.552 33.7062 134.409 33.8265C134.265 33.9473 134.126 34.0854 133.989 34.2406C133.853 34.396 133.725 34.5574 133.606 34.7249C133.487 34.8927 133.378 35.0614 133.28 35.231C133.182 35.4006 133.098 35.557 133.029 35.7C133.008 35.7449 132.979 35.8084 132.941 35.89C132.903 35.9718 132.861 36.0639 132.817 36.1661C132.772 36.2683 132.724 36.3737 132.674 36.4817C132.624 36.5903 132.578 36.6925 132.537 36.7885C132.496 36.8847 132.459 36.9702 132.426 37.0459C132.393 37.1215 132.37 37.1737 132.356 37.2025C132.339 37.2392 132.31 37.3085 132.27 37.4107C132.231 37.5131 132.185 37.6328 132.133 37.7695C132.082 37.9064 132.027 38.0505 131.97 38.202C131.913 38.3531 131.86 38.4964 131.81 38.6312C131.759 38.7661 131.716 38.8847 131.678 38.9869C131.64 39.0889 131.615 39.1586 131.605 39.1954C131.571 39.3017 131.53 39.4017 131.484 39.4961C131.437 39.5899 131.383 39.6726 131.323 39.7444C131.263 39.8159 131.194 39.8729 131.116 39.9158C131.038 39.959 130.951 39.9803 130.855 39.9803C130.73 39.9803 130.628 39.9505 130.546 39.8914C130.465 39.8321 130.425 39.7185 130.425 39.551C130.425 39.4692 130.435 39.3855 130.456 39.2998C130.476 39.2139 130.503 39.1288 130.533 39.0452C130.565 38.9611 130.597 38.8797 130.629 38.7999C130.662 38.7201 130.692 38.6436 130.72 38.5698C130.906 38.1611 131.096 37.7513 131.289 37.3403C131.482 36.9297 131.668 36.5229 131.846 36.1201C131.883 36.0361 131.917 35.9538 131.953 35.8703C131.942 35.8809 131.932 35.892 131.921 35.9023C131.697 36.1192 131.473 36.3101 131.251 36.4756C131.028 36.6413 130.807 36.773 130.588 36.8713C130.369 36.9693 130.156 37.0184 129.948 37.0184C129.807 37.0184 129.689 36.996 129.594 36.951C129.499 36.9058 129.423 36.8445 129.366 36.767C129.309 36.6895 129.268 36.5974 129.244 36.4911C129.236 36.4548 129.231 36.4168 129.226 36.3789C129.165 36.4262 129.104 36.4721 129.042 36.5158C128.828 36.6667 128.618 36.7885 128.411 36.8804C128.204 36.9725 128.017 37.0184 127.852 37.0184C127.686 37.0184 127.551 36.9633 127.448 36.8529C127.344 36.7426 127.293 36.5544 127.293 36.2888C127.293 36.1005 127.32 35.8818 127.375 35.6326C127.285 35.7921 127.173 35.9535 127.039 36.1169C126.904 36.2806 126.751 36.4297 126.578 36.5647C126.405 36.6996 126.212 36.8089 125.998 36.8927C125.784 36.9766 125.551 37.0184 125.299 37.0184C125.185 37.0184 125.076 37.0041 124.97 36.9755C124.865 36.9469 124.773 36.8978 124.693 36.8283C124.614 36.759 124.55 36.6658 124.502 36.5494C124.454 36.4329 124.429 36.2866 124.429 36.1108C124.429 36.1069 124.436 36.0445 124.45 35.9238C124.464 35.8031 124.508 35.613 124.582 35.3535C124.656 35.0939 124.771 34.7576 124.926 34.3446C125.082 33.9318 125.301 33.431 125.584 32.8424C125.657 32.687 125.74 32.5755 125.835 32.5081C125.93 32.4408 126.033 32.407 126.143 32.407C126.191 32.407 126.241 32.4143 126.293 32.4283C126.345 32.4427 126.393 32.4651 126.438 32.4959C126.483 32.5266 126.519 32.5656 126.547 32.6125C126.574 32.6594 126.588 32.7135 126.588 32.7748C126.588 32.8157 126.583 32.8548 126.573 32.8913C126.555 32.9611 126.518 33.0518 126.462 33.1641C126.405 33.2767 126.338 33.4056 126.262 33.5506C126.186 33.6957 126.106 33.8521 126.021 34.02C125.937 34.1873 125.858 34.3611 125.786 34.541C125.713 34.7211 125.651 34.9039 125.599 35.0898C125.548 35.276 125.518 35.4569 125.512 35.6326C125.512 35.7062 125.529 35.7736 125.563 35.8349C125.598 35.8962 125.655 35.9268 125.734 35.9268C125.958 35.9268 126.172 35.8532 126.376 35.7062C126.58 35.559 126.768 35.3761 126.94 35.1574C127.113 34.9385 127.269 34.7033 127.409 34.452C127.549 34.2006 127.665 33.9707 127.758 33.7622C127.824 33.6233 127.882 33.4738 127.932 33.3145C127.982 33.1551 128.036 33.0081 128.095 32.8729C128.154 32.738 128.221 32.6257 128.297 32.5357C128.373 32.4459 128.468 32.4008 128.581 32.4008C128.706 32.4008 128.804 32.4479 128.877 32.5419C128.949 32.636 128.985 32.7483 128.985 32.879C128.985 32.9526 128.962 33.0539 128.916 33.1828C128.869 33.3115 128.81 33.4587 128.74 33.6242C128.669 33.7899 128.592 33.9666 128.509 34.1545C128.426 34.3428 128.349 34.5337 128.279 34.7281C128.208 34.9222 128.149 35.1124 128.103 35.2984C128.056 35.4843 128.033 35.6571 128.033 35.8164C128.033 35.9636 128.109 36.0374 128.261 36.0374C128.368 36.0374 128.5 36.0006 128.659 35.9268C128.818 35.8532 128.985 35.7501 129.159 35.6171C129.202 35.5839 129.246 35.5494 129.29 35.5129C129.338 35.3122 129.395 35.1268 129.462 34.9581C129.583 34.639 129.705 34.3224 129.829 34.0075C129.954 33.6929 130.068 33.4045 130.171 33.1428L131.74 29.1876C131.802 29.0281 131.886 28.9156 131.991 28.8502C132.096 28.7849 132.202 28.7521 132.309 28.7521C132.416 28.7521 132.514 28.7869 132.602 28.8564C132.69 28.9259 132.734 29.0383 132.734 29.1937C132.734 29.2673 132.719 29.3449 132.69 29.4267C132.66 29.5085 132.623 29.5963 132.578 29.6904C132.492 29.8827 132.389 30.1176 132.27 30.3956C132.151 30.6737 132.023 30.9762 131.887 31.3032C131.751 31.6303 131.611 31.9705 131.468 32.3241C131.325 32.6779 131.185 33.0223 131.049 33.3574C130.912 33.6929 130.785 34.0104 130.665 34.311C130.546 34.6114 130.444 34.8722 130.357 35.0929C130.319 35.1869 130.282 35.2964 130.246 35.421C130.21 35.5457 130.192 35.6571 130.192 35.7553C130.192 35.8164 130.202 35.8655 130.223 35.9023C130.244 35.9391 130.283 35.9576 130.342 35.9576C130.414 35.9576 130.505 35.9321 130.614 35.8809C130.722 35.8299 130.84 35.7622 130.966 35.6785C131.092 35.5947 131.223 35.4987 131.359 35.3903C131.496 35.282 131.631 35.1697 131.765 35.053C131.9 34.9364 132.029 34.82 132.151 34.7033C132.274 34.5871 132.383 34.4797 132.48 34.3816C132.503 34.3579 132.53 34.3414 132.56 34.3289C132.618 34.1547 132.671 33.9842 132.718 33.8175C132.746 33.7439 132.784 33.6397 132.832 33.5046C132.88 33.3697 132.936 33.2369 132.998 33.106C133.06 32.9753 133.13 32.8617 133.207 32.7657C133.285 32.6697 133.369 32.6216 133.459 32.6216C133.597 32.6216 133.697 32.6534 133.759 32.7165C133.821 32.7801 133.852 32.8729 133.852 32.9958C133.852 33.0203 133.849 33.0591 133.842 33.1121C133.835 33.1654 133.826 33.2217 133.816 33.2809C133.806 33.3401 133.794 33.3963 133.782 33.4497C133.77 33.5026 133.759 33.5416 133.749 33.5661C133.876 33.4269 134.014 33.2891 134.163 33.1522C134.311 33.0152 134.465 32.8913 134.623 32.781C134.782 32.6706 134.945 32.5809 135.11 32.511C135.276 32.4418 135.442 32.407 135.607 32.407C135.721 32.407 135.834 32.4233 135.946 32.4561C136.058 32.4888 136.159 32.5368 136.247 32.6001C136.335 32.6637 136.406 32.7433 136.461 32.8393C136.517 32.9353 136.544 33.0466 136.544 33.1736C136.544 33.3412 136.502 33.5201 136.417 33.7101C136.333 33.9003 136.227 34.0914 136.099 34.2833C135.971 34.4756 135.833 34.6625 135.685 34.8445C135.537 35.0265 135.398 35.1919 135.268 35.3412C135.139 35.4905 135.03 35.6171 134.942 35.7213C134.854 35.8258 134.808 35.8962 134.805 35.933C134.805 35.9821 134.82 36.0219 134.851 36.0527C134.882 36.0833 134.934 36.0987 135.007 36.0987C135.065 36.0987 135.152 36.0658 135.265 36.0006C135.379 35.9352 135.539 35.8217 135.744 35.6601C135.95 35.4987 136.21 35.282 136.526 35.01C136.743 34.8239 136.996 34.6017 137.282 34.349L138.651 21.6678C138.431 21.7896 138.201 21.866 138.066 21.9106C137.5 22.0977 136.7 22.2642 135.689 22.4056ZM128.052 19.3967C122.132 19.3967 117.333 20.0587 117.333 20.8753C117.333 21.6918 122.132 22.3537 128.052 22.3537C133.972 22.3537 138.771 21.6918 138.771 20.8753C138.771 20.0587 133.972 19.3967 128.052 19.3967ZM132.332 21.3073C132.332 21.4989 131.762 21.6543 131.058 21.6543C130.354 21.6543 129.784 21.4989 129.784 21.3073C129.784 21.1156 130.354 20.9602 131.058 20.9602C131.762 20.9602 132.332 21.1156 132.332 21.3073Z" fill="#7DBCCA"/>
<path fill-rule="evenodd" clip-rule="evenodd" d="M130.044 21.1538C130.038 21.1637 130.035 21.1741 130.035 21.1845C130.035 21.3086 130.494 21.4091 131.06 21.4091C131.626 21.4091 132.086 21.3086 132.086 21.1845L133.425 15.754L138.751 10.1305C138.753 10.1288 138.755 10.127 138.756 10.1251C138.869 9.99763 138.64 9.60301 138.261 9.26458C137.881 8.92614 137.471 8.81156 137.344 8.94043C137.343 8.94139 137.342 8.94237 137.341 8.94337L131.658 14.9234L130.044 21.1538Z" fill="#7DBCCA"/>
<path d="M248.971 208.95C248.103 208.955 247.349 209.164 246.717 209.473C246.486 209.014 246.254 208.605 246.213 208.305C246.168 207.954 246.113 207.741 246.168 207.322C246.222 206.904 246.467 206.309 246.463 206.263C246.458 206.218 246.408 206.004 245.909 206C245.409 205.995 244.977 206.095 244.927 206.227C244.877 206.359 244.782 206.659 244.718 206.968C244.632 207.422 243.719 209.046 243.196 209.896C243.028 209.564 242.883 209.273 242.851 209.041C242.806 208.691 242.751 208.477 242.806 208.059C242.86 207.641 243.105 207.045 243.101 207C243.096 206.954 243.046 206.741 242.546 206.736C242.047 206.731 241.615 206.832 241.565 206.963C241.515 207.095 241.461 207.404 241.356 207.704C241.252 208.004 240.038 210.714 239.72 211.414C239.557 211.773 239.416 212.06 239.316 212.255C239.316 212.255 239.312 212.269 239.298 212.291C239.212 212.46 239.162 212.551 239.162 212.551C239.162 212.551 239.162 212.551 239.162 212.555C239.094 212.678 239.021 212.792 238.984 212.792C238.957 212.792 238.907 212.464 238.994 212.019C239.175 211.078 239.607 209.614 239.602 209.564C239.602 209.537 239.684 209.282 239.321 209.15C238.966 209.018 238.839 209.236 238.807 209.236C238.775 209.236 238.753 209.314 238.753 209.314C238.753 209.314 239.148 207.668 237.998 207.668C237.281 207.668 236.29 208.454 235.799 209.164C235.491 209.332 234.832 209.691 234.128 210.078C233.859 210.228 233.582 210.378 233.323 210.518C233.305 210.5 233.287 210.478 233.269 210.459C231.879 208.973 229.307 207.923 229.416 205.927C229.457 205.199 229.707 203.29 234.355 200.971C238.18 199.085 241.224 199.608 241.751 200.767C242.506 202.422 240.12 205.495 236.168 205.94C234.659 206.109 233.869 205.527 233.669 205.309C233.46 205.081 233.428 205.068 233.351 205.113C233.223 205.181 233.305 205.386 233.351 205.504C233.469 205.813 233.955 206.359 234.777 206.627C235.504 206.863 237.272 206.995 239.412 206.168C241.806 205.24 243.678 202.663 243.128 200.503C242.578 198.312 238.944 197.589 235.504 198.812C233.46 199.539 231.242 200.685 229.648 202.176C227.753 203.949 227.453 205.49 227.576 206.136C228.017 208.427 231.174 209.918 232.437 211.023C232.374 211.059 232.315 211.091 232.265 211.119C231.633 211.432 229.225 212.692 228.625 214.024C227.944 215.533 228.734 216.615 229.257 216.76C230.879 217.21 232.546 216.401 233.441 215.065C234.337 213.728 234.227 211.991 233.814 211.196C233.81 211.187 233.805 211.178 233.796 211.169C233.959 211.073 234.128 210.973 234.291 210.878C234.614 210.687 234.932 210.509 235.204 210.364C235.05 210.787 234.936 211.291 234.882 212.019C234.814 212.873 235.163 213.983 235.622 214.419C235.827 214.61 236.068 214.615 236.222 214.615C236.758 214.615 236.999 214.169 237.267 213.642C237.594 212.996 237.89 212.246 237.89 212.246C237.89 212.246 237.521 214.274 238.521 214.274C238.885 214.274 239.253 213.801 239.416 213.56C239.416 213.564 239.416 213.564 239.416 213.564C239.416 213.564 239.425 213.551 239.443 213.519C239.48 213.46 239.502 213.423 239.502 213.423C239.502 213.423 239.502 213.419 239.502 213.414C239.648 213.16 239.975 212.582 240.461 211.623C241.088 210.387 241.692 208.841 241.692 208.841C241.692 208.841 241.747 209.218 241.933 209.846C242.042 210.214 242.269 210.618 242.451 211.01C242.306 211.214 242.215 211.328 242.215 211.328C242.215 211.328 242.215 211.328 242.219 211.332C242.101 211.487 241.974 211.655 241.833 211.819C241.338 212.41 240.747 213.087 240.666 213.283C240.57 213.514 240.593 213.683 240.775 213.819C240.906 213.919 241.143 213.933 241.383 213.919C241.829 213.887 242.142 213.778 242.297 213.71C242.537 213.624 242.819 213.492 243.083 213.296C243.569 212.937 243.864 212.423 243.837 211.746C243.823 211.373 243.701 211 243.551 210.65C243.596 210.587 243.637 210.523 243.682 210.459C244.45 209.336 245.045 208.104 245.045 208.104C245.045 208.104 245.1 208.482 245.286 209.109C245.377 209.427 245.563 209.773 245.727 210.109C245.004 210.696 244.559 211.378 244.4 211.823C244.114 212.651 244.337 213.023 244.759 213.11C244.95 213.151 245.223 213.06 245.422 212.973C245.677 212.892 245.977 212.751 246.263 212.542C246.749 212.182 247.217 211.682 247.19 211.005C247.176 210.696 247.094 210.391 246.981 210.096C247.594 209.841 248.385 209.7 249.393 209.818C251.556 210.073 251.983 211.423 251.901 211.991C251.82 212.56 251.365 212.869 251.215 212.964C251.065 213.06 251.015 213.092 251.029 213.16C251.047 213.26 251.12 213.255 251.247 213.237C251.424 213.205 252.383 212.778 252.424 211.732C252.492 210.396 251.22 208.936 248.971 208.95ZM232.287 214.578C231.57 215.36 230.57 215.656 230.138 215.406C229.675 215.137 229.857 213.983 230.738 213.155C231.274 212.651 231.965 212.182 232.424 211.896C232.528 211.832 232.683 211.741 232.869 211.628C232.901 211.61 232.919 211.6 232.919 211.6C232.955 211.578 232.992 211.555 233.028 211.532C233.351 212.714 233.042 213.755 232.287 214.578ZM237.512 211.023C237.262 211.632 236.74 213.192 236.422 213.105C236.149 213.033 235.981 211.85 236.367 210.682C236.563 210.096 236.976 209.396 237.217 209.123C237.608 208.686 238.039 208.541 238.144 208.718C238.276 208.95 237.667 210.641 237.512 211.023ZM241.824 213.087C241.72 213.142 241.62 213.178 241.574 213.151C241.542 213.133 241.62 213.06 241.62 213.06C241.62 213.06 242.16 212.478 242.374 212.214C242.497 212.06 242.642 211.878 242.796 211.673C242.796 211.691 242.796 211.714 242.796 211.732C242.796 212.428 242.124 212.896 241.824 213.087ZM245.15 212.328C245.073 212.273 245.086 212.091 245.345 211.523C245.445 211.3 245.681 210.928 246.086 210.569C246.131 210.714 246.163 210.855 246.158 210.987C246.154 211.864 245.527 212.191 245.15 212.328Z" fill="#7DBCCA"/>
<path d="M76.9911 121.637C78.7648 121.637 80.2043 120.187 80.2043 118.401V115.165H76.9911C75.2174 115.165 73.7778 116.615 73.7778 118.401C73.7778 120.187 75.2174 121.637 76.9911 121.637Z" fill="#448A9A"/>
<path d="M73.7778 111.93C73.7778 110.143 75.2174 108.694 76.9911 108.694H80.2043V115.165H76.9911C75.2174 115.165 73.7778 113.716 73.7778 111.93Z" fill="#7DBCCA"/>
<path d="M73.7778 105.458C73.7778 103.672 75.2174 102.222 76.9911 102.222H80.2043V108.694H76.9911C75.2174 108.694 73.7778 107.244 73.7778 105.458Z" fill="#448A9A"/>
<path d="M80.2014 102.222H83.4147C85.1883 102.222 86.6279 103.672 86.6279 105.458C86.6279 107.244 85.1883 108.694 83.4147 108.694H80.2014V102.222Z" fill="#7DBCCA"/>
<path d="M86.6279 111.93C86.6279 113.716 85.1883 115.165 83.4147 115.165C81.6409 115.165 80.2014 113.716 80.2014 111.93C80.2014 110.143 81.6409 108.694 83.4147 108.694C85.1883 108.694 86.6279 110.143 86.6279 111.93Z" fill="#448A9A"/>
<path fill-rule="evenodd" clip-rule="evenodd" d="M31.8194 145.816L44.6724 142.355L47.6388 110.222H16L18.966 142.355L31.8194 145.816ZM21.7778 116.756L22.2573 120.636L32.3401 120.636L22.6041 124.691L22.9092 128.484L22.9161 128.481L22.9163 128.484L36.5775 128.527L36.2722 133.585L31.8105 134.841V134.837L31.7738 134.847L27.4646 133.759L27.2029 130.62L23.178 130.62L23.7012 136.681L31.8105 139.078V139.074L31.8251 139.078L39.8911 136.724L40.9375 124.691H31.7887L41.2719 120.636L41.6641 116.756L41.659 116.758L41.6593 116.756H21.7778Z" fill="#7DBCCA"/>
</symbol><symbol id="left" viewBox="0 0 32 32">
<path d="M14 26L15.41 24.59L7.83 17H28V15H7.83L15.41 7.41L14 6L4 16L14 26Z"/>
</symbol><symbol id="logotype" viewBox="0 0 112 48">
<path d="M13.3166 31.7294C10.1329 31.7294 7.82047 29.283 7.82047 25.7306C7.82047 22.1783 10.0993 19.7385 13.3166 19.7385C16.5338 19.7385 18.9803 22.2185 18.9803 25.7373C18.9803 29.2562 16.5338 31.7294 13.3166 31.7294ZM18.9467 16.5146V19.6648C18.2707 18.5613 17.3185 17.6532 16.1842 17.0302C15.0499 16.4072 13.7727 16.0909 12.4788 16.1124C7.6529 16.1124 4 20.1005 4 25.7306C4 31.3608 7.58588 35.3488 12.5123 35.3488C13.7954 35.3782 15.0639 35.0721 16.1924 34.4608C17.321 33.8495 18.2704 32.9542 18.9467 31.8635V34.9467H22.7337V16.5146H18.9467Z" fill="#00151C"/>
<path d="M32.8216 31.3944C33.4583 30.456 33.9275 29.0485 34.2626 26.9037L35.3686 20.0737H41.5349V31.4011L32.8216 31.3944ZM45.3219 31.3944V16.5147H32.1513L30.5092 26.7361C30.0735 29.3501 29.5373 30.7577 28.6995 31.3944H25.4823V39.7391H29.2692V34.9468H44.8862V39.7391H48.6732V31.3944H45.3219Z" fill="#00151C"/>
<path d="M64.3661 16.5147L55.2506 30.0204L55.4852 24.2226V16.5147H51.6982V34.9468H56.1554L65.2709 21.4076L65.0363 27.2388V34.9468H68.8233V16.5147H64.3661Z" fill="#00151C"/>
<path d="M90.5596 34.9468L80.8074 25.2615L89.8223 16.5147H84.963L76.9869 24.4907V16.5147H73.2V34.9468H76.9869V26.4345L85.6667 34.9468H90.5596Z" fill="#00151C"/>
<path d="M108 16.5147H92.1821V20.067H98.2144V34.9468H102.001V20.067H108V16.5147Z" fill="#00151C"/>
<path d="M61.0725 14.6514L64.8594 8.36774C64.8888 8.3168 64.9043 8.25901 64.9043 8.20018C64.9043 8.14135 64.8888 8.08356 64.8594 8.03261L63.1268 5.03656C63.1203 5.02543 63.111 5.0162 63.0998 5.00979C63.0887 5.00338 63.076 5 63.0631 5C63.0502 5 63.0376 5.00338 63.0264 5.00979C63.0152 5.0162 63.0059 5.02543 62.9995 5.03656L57.2453 14.628C57.2421 14.6361 57.2407 14.6448 57.241 14.6535C57.2413 14.6622 57.2435 14.6707 57.2472 14.6786C57.251 14.6864 57.2563 14.6934 57.2629 14.6991C57.2695 14.7048 57.2772 14.7091 57.2855 14.7117H60.9149C60.9442 14.7162 60.9741 14.7129 61.0017 14.7024C61.0293 14.6918 61.0537 14.6742 61.0725 14.6514Z" fill="#7DBCCA"/>
</symbol><symbol id="menu" viewBox="0 0 32 32">
<path d="M28 6H4V8H28V6Z" fill="#00151C"/>
<path d="M28 24H4V26H28V24Z" fill="#00151C"/>
<path d="M28 12H4V14H28V12Z" fill="#00151C"/>
<path d="M28 18H4V20H28V18Z" fill="#00151C"/>
</symbol><symbol id="right" viewBox="0 0 32 32">
<path d="M18 6L16.57 7.393L24.15 15H4V17H24.15L16.57 24.573L18 26L28 16L18 6Z"/>
</symbol><symbol id="slash" viewBox="0 0 322 408">
<path d="M160.992 405.385L320.113 141.454C321.349 139.314 322 136.887 322 134.416C322 131.945 321.349 129.518 320.113 127.378L247.312 1.53565C247.039 1.06834 246.649 0.68065 246.179 0.411215C245.71 0.14178 245.178 0 244.637 0C244.095 0 243.563 0.14178 243.094 0.411215C242.624 0.68065 242.234 1.06834 241.961 1.53565L0.181612 404.4C0.0490997 404.741 -0.0121178 405.106 0.00198333 405.471C0.0160845 405.837 0.105088 406.196 0.263476 406.526C0.421865 406.855 0.646352 407.149 0.922902 407.389C1.19945 407.629 1.52223 407.809 1.87132 407.919H154.374C155.602 408.105 156.858 407.969 158.018 407.525C159.178 407.081 160.203 406.344 160.992 405.385Z" fill="#7DBCCA"/>
</symbol><symbol id="up" viewBox="0 0 32 32">
<path d="M16 4L6 14L7.41 15.41L15 7.83V28H17V7.83L24.59 15.41L26 14L16 4Z"/>
</symbol></svg>