<svg width="43" height="15" viewBox="0 0 43 15" fill="none" xmlns="http://www.w3.org/2000/svg">
<path d="M6.12261 4.862V6.15241C5.5735 5.28756 4.66746 4.69727 3.47314 4.69727C1.49633 4.69727 0 6.33088 0 8.63715C0 10.9434 1.46888 12.577 3.48687 12.577C4.66746 12.577 5.5735 12.0142 6.12261 11.1493V12.4123H7.67385V4.862H6.12261ZM3.81633 11.0944C2.51219 11.0944 1.56497 10.0923 1.56497 8.63715C1.56497 7.19573 2.49846 6.17987 3.81633 6.17987C5.13421 6.17987 6.13634 7.19573 6.13634 8.63715C6.13634 10.0923 5.13421 11.0944 3.81633 11.0944Z"/>
<path d="M16.9269 10.9572V4.862H11.5319L10.8592 9.04899C10.6808 10.1198 10.4611 10.6963 10.1179 10.9572H8.80007V14.3754H10.3513V12.4123H16.7485V14.3754H18.2997V10.9572H16.9269ZM11.8065 10.9572C12.0673 10.5728 12.2595 9.9962 12.3968 9.11762L12.8498 6.31715H15.3757V10.9572H11.8065Z"/>
<path d="M24.7276 4.862L20.9936 10.3943L21.0897 8.0194V4.862H19.5384V12.4123H21.3642L25.0982 6.86626L25.0021 9.2549V12.4123H26.5534V4.862H24.7276Z"/>
<path d="M35.4572 12.4123L31.4624 8.44496L35.1552 4.862H33.1647L29.8975 8.12922V4.862H28.3462V12.4123H29.8975V8.92544L33.453 12.4123H35.4572Z"/>
<path d="M42.6012 4.862H40.1439H36.1216V6.31715H38.5927V12.4123H40.1439V6.31715H42.6012V4.862Z"/>
<path d="M23.5043 3.88859L24.6658 1.96094C24.8541 1.64847 24.8573 1.25825 24.6741 0.942745L24.2198 0.160114L24.2177 0.156718C24.2058 0.136875 24.177 0.136821 24.165 0.15662L21.8104 4.08881C21.8001 4.10643 21.8128 4.12857 21.8332 4.1286L23.0753 4.13054C23.2508 4.13081 23.4137 4.03898 23.5043 3.88859Z"/>
</svg>
