<svg width="64" height="64" viewBox="0 0 64 64" fill="none" xmlns="http://www.w3.org/2000/svg">
<path d="M39.5414 20.6852L24.4588 35.7705C24.2041 36.0165 24.0009 36.3108 23.8612 36.6361C23.7214 36.9615 23.6479 37.3114 23.6448 37.6655C23.6417 38.0195 23.7092 38.3707 23.8433 38.6984C23.9773 39.0261 24.1753 39.3239 24.4257 39.5742C24.6761 39.8246 24.9738 40.0226 25.3016 40.1567C25.6293 40.2908 25.9804 40.3583 26.3345 40.3552C26.6886 40.3521 27.0385 40.2786 27.3639 40.1388C27.6892 39.999 27.9835 39.7959 28.2295 39.5412L43.3148 24.4585C44.8152 22.9581 45.6581 20.9231 45.6581 18.8012C45.6581 16.6793 44.8152 14.6443 43.3148 13.1439C41.8144 11.6434 39.7794 10.8005 37.6574 10.8005C35.5355 10.8005 33.5005 11.6434 32.0001 13.1439L16.9148 28.2292C15.651 29.4615 14.6445 30.9326 13.9536 32.5569C13.2627 34.1813 12.9013 35.9267 12.8902 37.6918C12.8792 39.4569 13.2187 41.2067 13.8892 42.8396C14.5596 44.4725 15.5476 45.956 16.7959 47.2041C18.0441 48.4522 19.5278 49.44 21.1608 50.1102C22.7938 50.7804 24.5436 51.1197 26.3087 51.1084C28.0739 51.0971 29.8192 50.7354 31.4435 50.0443C33.0677 49.3532 34.5386 48.3465 35.7708 47.0825L50.8561 31.9999L54.6268 35.7705L39.5414 50.8559C37.808 52.5893 35.7501 53.9644 33.4852 54.9025C31.2204 55.8406 28.7929 56.3235 26.3414 56.3235C23.89 56.3235 21.4625 55.8406 19.1977 54.9025C16.9328 53.9644 14.8749 52.5893 13.1414 50.8559C11.408 49.1224 10.033 47.0645 9.09482 44.7997C8.15668 42.5348 7.67383 40.1073 7.67383 37.6559C7.67383 35.2044 8.15668 32.7769 9.09482 30.5121C10.033 28.2472 11.408 26.1893 13.1414 24.4559L28.2295 9.3732C30.7441 6.94442 34.1122 5.6005 37.6081 5.63088C41.1041 5.66125 44.4483 7.06351 46.9204 9.53562C49.3925 12.0077 50.7947 15.3519 50.8251 18.8478C50.8555 22.3438 49.5116 25.7118 47.0828 28.2265L32.0001 43.3172C31.257 44.0601 30.3748 44.6494 29.404 45.0514C28.4331 45.4534 27.3926 45.6603 26.3418 45.6602C25.291 45.66 24.2506 45.4529 23.2798 45.0507C22.3091 44.6485 21.427 44.059 20.6841 43.3159C19.9412 42.5728 19.3519 41.6906 18.9499 40.7197C18.5479 39.7489 18.341 38.7084 18.3412 37.6576C18.3413 36.6068 18.5484 35.5663 18.9506 34.5956C19.3528 33.6248 19.9423 32.7428 20.6854 31.9999L35.7708 16.9145L39.5414 20.6852Z" fill="#1D1D1B"/>
</svg>
