<svg width="64" height="24" viewBox="0 0 64 24" fill="none" xmlns="http://www.w3.org/2000/svg">
<g clip-path="url(#clip0)">
<path d="M0.577402 14.1043C0.577402 14.1043 0.585932 14.0957 0.585932 14.0872C0.585932 14.0787 0.594461 14.0701 0.594461 14.0616C0.62005 14.0104 0.645639 13.9592 0.671228 13.9081C0.722406 13.8057 0.782114 13.7119 0.850351 13.6181C0.978296 13.4304 1.13183 13.2598 1.31095 13.0807C2.1298 12.2874 3.23865 11.7671 4.33045 11.3918C5.58431 10.9568 6.9064 10.6924 8.2285 10.6156C9.70413 10.5218 11.1798 10.7009 12.6042 11.1189C12.8772 11.1956 13.1416 11.2895 13.406 11.3833C13.6363 11.4686 13.7813 11.1018 13.5681 10.9909C13.2098 10.8118 12.8942 10.5815 12.6383 10.2744C12.4848 10.0868 12.3739 9.85649 12.2971 9.62619C12.263 9.5153 12.246 9.40441 12.263 9.29353C12.3483 9.285 12.4251 9.27647 12.5104 9.27647C12.8686 9.24235 13.2439 9.22529 13.6022 9.15705C13.7387 9.13147 13.8837 9.0547 13.9007 8.90116C13.9178 8.79028 13.8581 8.68792 13.7813 8.61116C13.5937 8.4235 13.3122 8.31262 13.0563 8.2785C12.7322 8.23585 12.408 8.32968 12.1692 8.55998C12.0754 8.6538 11.9901 8.77322 11.9304 8.89264C11.5039 8.92675 11.0774 8.94381 10.6595 8.91822C10.088 8.88411 9.57619 8.81587 9.02176 8.71351C8.6294 8.64528 8.2285 8.55998 7.86173 8.41497C7.84467 8.40644 7.82761 8.39792 7.80202 8.38939C7.79349 8.38086 7.77643 8.38086 7.7679 8.37233C7.73378 8.35527 7.69966 8.33821 7.65701 8.32115C7.58878 8.28703 7.52054 8.25291 7.46083 8.21026C7.46083 8.21026 7.4523 8.20173 7.44377 8.1932C7.43524 8.18467 7.41818 8.17614 7.41818 8.17614C7.38407 8.15056 7.28171 8.05673 7.23906 7.99702C7.14524 7.88614 7.10259 7.75819 7.08553 7.71554C7.04288 7.57907 7.04288 7.45112 7.05994 7.34024C7.05141 7.29759 7.02582 7.26347 6.98317 7.25494C6.94052 7.23788 6.88935 7.26347 6.86376 7.29759C6.85523 7.31465 6.83817 7.34024 6.82964 7.3573C6.81258 7.39995 6.74434 7.55348 6.7614 7.76672C6.78699 8.03967 6.93199 8.22732 6.9917 8.29556C7.34995 8.75616 8.16879 8.96087 8.59528 9.0547C9.04735 9.15705 9.72119 9.27647 10.6595 9.33618C11.0518 9.36177 11.4442 9.34471 11.8365 9.31912C11.828 9.58354 11.9133 9.84796 12.0242 10.0953C12.1095 10.283 12.2289 10.4536 12.3569 10.6071C11.2821 10.3171 10.1818 10.1636 9.07294 10.1636C7.66554 10.155 6.24109 10.3768 4.88488 10.7606C3.63955 11.1189 2.39422 11.6307 1.37919 12.4495C0.969766 12.7822 0.594461 13.1745 0.338572 13.6351C0.0315043 14.181 -0.0708516 14.7952 0.0485635 15.4178C0.150919 15.9467 0.406809 16.4414 0.799173 16.8082C1.27683 17.2432 1.89097 17.4905 2.5051 17.6526C3.23865 17.8402 3.99779 17.9341 4.7484 18.0364C4.96164 18.062 5.17489 18.0791 5.38813 18.0961C5.95108 18.1302 6.52257 18.1302 7.09406 18.1047C7.18788 18.2155 7.29024 18.3264 7.40113 18.4203C7.44377 18.4544 7.49495 18.48 7.55466 18.48C7.60584 18.48 7.66554 18.4544 7.70819 18.4203C7.77643 18.3435 7.80202 18.1985 7.70819 18.1217C7.69113 18.1047 7.67407 18.0876 7.64848 18.0705C8.10056 18.0279 8.55263 17.9597 9.0047 17.8573C9.72972 17.6952 10.4633 17.4564 11.0945 17.064C11.3845 16.8849 11.6574 16.6717 11.8365 16.3817C12.0157 16.0917 12.0583 15.7505 11.9815 15.4178C11.8365 14.8037 11.3418 14.3175 10.7874 14.0531C10.1477 13.7545 9.38853 13.6692 8.70616 13.8825C7.50348 14.2578 6.65052 15.5202 6.65052 16.7655C6.65052 17.0385 6.69316 17.3199 6.79552 17.5758C6.81258 17.6185 6.82964 17.6611 6.85523 17.7038C6.49698 17.7123 6.14727 17.7123 5.79755 17.7038C4.98723 17.6782 4.18545 17.5673 3.39219 17.4223C2.32598 17.2261 1.11477 16.9105 0.645639 15.8443C0.63711 15.8358 0.63711 15.8187 0.62858 15.8102C0.62005 15.7846 0.602991 15.7505 0.594461 15.7249C0.568872 15.6567 0.543283 15.5799 0.526224 15.5116C0.457987 15.3155 0.423868 15.1534 0.423868 14.9913C0.415339 14.7184 0.457987 14.4454 0.551813 14.181C0.560343 14.1554 0.568872 14.1298 0.577402 14.1043ZM12.826 8.69645C12.9795 8.67939 13.1416 8.71351 13.2866 8.77322C13.2695 8.77322 13.261 8.77322 13.2439 8.78175C12.9966 8.80734 12.7492 8.83293 12.5019 8.84999C12.5872 8.76469 12.698 8.71351 12.826 8.69645ZM7.19641 15.9211C7.37554 15.4093 7.70819 14.9146 8.16026 14.5904C8.65498 14.2322 9.26912 14.0957 9.87472 14.1895C10.4462 14.2834 11.0348 14.5563 11.3504 15.051C11.5039 15.2813 11.6148 15.5543 11.5636 15.8358C11.5209 16.0661 11.4015 16.2367 11.2139 16.4073C10.958 16.6461 10.6253 16.8082 10.3097 16.9532C10.0027 17.0896 9.67854 17.2005 9.35441 17.2943C8.68057 17.482 7.98967 17.5929 7.29024 17.6441L7.28171 17.6355C7.25612 17.6014 7.23906 17.5588 7.222 17.5246C7.21347 17.5076 7.19649 17.4632 7.18788 17.4393C7.18788 17.4479 7.18431 17.4294 7.18788 17.4393C6.9917 16.9446 7.03435 16.4243 7.19641 15.9211Z" fill="#1D1D1B"/>
<path d="M14.6005 16.7483C14.4043 16.7312 14.2251 16.8848 14.0801 17.0127C13.9778 17.1065 13.884 17.2003 13.7987 17.3027C13.6451 17.4733 13.5087 17.661 13.3892 17.8486C13.3295 17.9424 13.3637 18.0874 13.466 18.1386C13.5684 18.1983 13.6963 18.1642 13.756 18.0618C13.8157 17.9765 13.8754 17.8827 13.9351 17.806C13.9351 17.7974 13.9607 17.7718 13.9607 17.7718C13.9778 17.7548 13.9863 17.7377 14.0034 17.7207C14.029 17.6865 14.0546 17.6524 14.0801 17.6268C14.1399 17.5501 14.2081 17.4818 14.2849 17.4136C14.2934 17.4136 14.3104 17.4136 14.319 17.4136C14.4896 17.4051 14.7028 17.4051 14.8478 17.2942C14.9587 17.2089 14.9843 17.0639 14.9161 16.9445C14.8563 16.825 14.7284 16.7568 14.6005 16.7483Z" fill="#1D1D1B"/>
<path d="M63.7908 7.89427C60.0719 7.72368 56.353 7.65544 52.634 7.74074C50.041 7.80044 47.448 7.95398 44.8635 8.12457C42.7396 8.26104 40.6158 8.40605 38.4919 8.55105C37.5707 8.61929 36.6495 8.68753 35.7283 8.75576C36.1803 8.3634 36.6324 7.9881 37.1101 7.62985C37.4683 7.36543 37.8436 7.10954 38.236 6.88777C38.5516 6.70865 38.8842 6.55511 39.2425 6.46982C39.5069 6.41011 39.7372 6.41011 39.9931 6.50394H40.0016C40.0102 6.50394 40.0187 6.51247 40.0272 6.51247C40.0528 6.52953 40.0869 6.53806 40.1125 6.55511C40.1808 6.58923 40.2405 6.63188 40.3002 6.69159C40.3684 6.7513 40.4196 6.82806 40.4537 6.91336C40.4622 6.93042 40.4878 7.00719 40.4963 7.15219C40.5049 7.37396 40.4537 7.62985 40.3684 7.80897C40.3599 7.8175 40.3428 7.86868 40.3172 7.93692C40.2831 8.0478 40.249 8.14163 40.2916 8.18428C40.3258 8.2184 40.3769 8.2184 40.4196 8.20987C40.4196 8.20987 40.4622 8.20134 40.4963 8.15869C41.0508 7.50191 40.8546 6.86218 40.8546 6.86218C40.829 6.78542 40.7181 6.44423 40.3769 6.21393C39.8054 5.83009 39.0378 6.04334 38.5772 6.23099C37.7669 6.57217 37.0418 7.11807 36.3595 7.66397C35.9074 8.03074 35.4639 8.40605 35.0288 8.78988C34.2015 8.84959 33.3826 8.90077 32.5552 8.95195C29.2287 9.13107 25.8936 9.14813 22.567 9.02018C22.0382 9.00312 21.5093 8.97754 20.9805 8.95195C20.7843 8.94342 20.7161 9.18225 20.827 9.31872C20.8355 9.32725 20.8611 9.3699 20.9037 9.41255C20.9208 9.42961 20.9379 9.44667 20.9464 9.4552C21.1085 9.6002 21.2108 9.67697 21.2108 9.67697C21.2876 9.73668 21.3985 9.81344 21.552 9.89021C21.6714 9.94992 21.7567 9.94992 21.7994 9.94139C21.8249 9.94139 21.8676 9.93286 21.8761 9.9158C21.8846 9.89874 21.8591 9.87315 21.8505 9.86462C21.7567 9.76226 21.6629 9.65991 21.5691 9.55755C21.5349 9.52343 21.4923 9.47226 21.4411 9.40402C24.8359 9.56608 28.2392 9.57461 31.634 9.42961C32.5979 9.38696 33.5532 9.32725 34.5171 9.25901C34.3721 9.38696 34.2356 9.5149 34.0991 9.64285C33.1438 10.5214 32.2141 11.4255 31.2843 12.3297C31.1649 12.4406 31.054 12.5515 30.9346 12.6709C30.3972 12.6965 29.8513 12.7391 29.314 12.7988C28.4184 12.9012 27.5142 13.0291 26.6186 13.1485C25.7059 13.268 24.7847 13.4044 23.8721 13.5494C23.1044 13.6774 22.3282 13.8224 21.5691 14.0186C20.9805 14.1721 20.3834 14.3512 19.829 14.6071C19.4281 14.7948 19.0187 15.0336 18.7372 15.3748C18.3704 15.8183 18.2851 16.3898 18.5069 16.9357C18.7457 17.5242 19.3172 17.8484 19.9058 18.0104C20.4773 18.164 21.0743 18.1981 21.6629 18.1896C22.3964 18.181 23.13 18.0787 23.8379 17.8825C24.6483 17.6607 25.433 17.3195 26.1751 16.9186C27.6592 16.1083 28.9984 15.0421 30.2437 13.9162C30.5422 13.6518 30.8237 13.3788 31.1137 13.1059C31.8729 13.0803 32.632 13.0888 33.3912 13.1315C33.5788 13.14 33.7665 13.1571 33.9456 13.1741C32.8538 13.8906 31.7705 14.6156 30.6958 15.3577C30.2522 15.6648 29.8087 15.9804 29.3737 16.2874C29.1178 16.4751 28.8619 16.6542 28.606 16.8504C28.4354 16.9869 28.2051 17.1319 28.0942 17.3195C28.026 17.4304 28.0516 17.584 28.171 17.6522C28.2392 17.6948 28.3245 17.6863 28.4013 17.6693C28.5634 17.6351 28.7169 17.5498 28.8619 17.4816C29.5187 17.1745 30.1669 16.8419 30.8237 16.5263C32.0093 15.9463 33.195 15.3577 34.4403 14.9142C34.8838 14.7521 35.3274 14.6156 35.7795 14.4877C35.7965 14.4877 35.8136 14.4792 35.8221 14.4792C35.66 14.573 35.498 14.6668 35.3359 14.7692C34.9009 15.0336 34.4829 15.3151 34.065 15.5965C33.6812 15.861 33.2717 16.1339 32.9391 16.4666C32.8282 16.5689 32.7002 16.7054 32.7002 16.8675C32.7002 17.166 33.05 17.1575 33.2547 17.1148C33.5191 17.0722 33.7665 16.9869 34.0223 16.9016C34.355 16.7907 34.6791 16.6628 35.0033 16.5263C35.6771 16.2363 36.3253 15.8866 37.0077 15.6051C37.2295 15.5198 37.4513 15.4345 37.673 15.3662C37.6645 15.3748 37.6474 15.3833 37.6389 15.3833C37.4086 15.5198 37.1698 15.6648 36.948 15.8183C36.3339 16.2277 35.7283 16.7054 35.2336 17.2598C35.1312 17.3792 34.9862 17.5584 35.0288 17.7204C35.0459 17.7887 35.0886 17.8228 35.0971 17.8313C35.3871 18.0957 36.2486 17.6095 36.5045 17.4645C36.5301 17.456 36.6239 17.3963 36.7262 17.3025C36.8286 17.2087 36.9821 17.0381 36.948 16.9869C36.9224 16.9528 36.8457 16.9869 36.4874 17.1234C35.8306 17.3707 36.1889 17.2257 35.8306 17.3622C35.7795 17.3792 35.7283 17.3963 35.6686 17.4134C35.8733 17.2001 36.095 16.9954 36.3253 16.8078C36.7007 16.4922 37.093 16.2192 37.5024 15.9548C37.7157 15.8183 37.9375 15.6904 38.1592 15.5624C38.3213 15.4686 38.5004 15.3748 38.6454 15.2468C38.7819 15.1274 38.8331 14.9142 38.6539 14.8033C38.5772 14.7521 38.4748 14.7521 38.381 14.7606C38.2275 14.7777 38.0654 14.8033 37.9119 14.8459C37.366 14.9739 36.8457 15.1871 36.3339 15.4174C35.3615 15.861 34.4062 16.3727 33.357 16.6372C33.5703 16.4495 33.792 16.296 34.0223 16.1254C34.7132 15.6307 35.4383 15.1786 36.1718 14.7521C36.3254 14.6668 36.4704 14.5815 36.6154 14.4877C36.7092 14.428 36.8201 14.3597 36.8798 14.2659C36.9736 14.1124 36.8883 13.9333 36.7177 13.8906C36.5642 13.8565 36.3851 13.8991 36.2401 13.9247C35.5065 14.0697 34.773 14.3171 34.0735 14.5815C33.1182 14.9398 32.1885 15.3748 31.2673 15.8268C30.6873 16.1083 30.1158 16.3898 29.5357 16.6798C29.7916 16.5007 30.0475 16.313 30.3034 16.1339C31.1393 15.5454 31.9752 14.9739 32.8282 14.4024C33.4423 13.993 34.0565 13.5921 34.6706 13.1912C34.8582 13.0718 34.7644 12.8159 34.5597 12.7903C33.5617 12.6794 32.5638 12.6282 31.5658 12.6453C32.0349 12.1932 32.4955 11.7326 32.9732 11.2805C33.5959 10.6835 34.2271 10.0949 34.8753 9.5149C34.9862 9.41255 35.1056 9.31019 35.225 9.20784C35.8818 9.15666 36.5301 9.11401 37.1868 9.06283C39.4046 8.90077 41.6223 8.75576 43.84 8.61076C46.4074 8.44017 48.9834 8.26957 51.5593 8.19281C55.1162 8.08192 58.673 8.10751 62.2299 8.24399C62.7587 8.26104 63.2876 8.28663 63.825 8.31222C64.0638 8.33781 64.0638 7.91133 63.7908 7.89427ZM39.9846 6.521C40.0016 6.52953 39.9931 6.521 39.9846 6.521V6.521ZM27.6507 15.4601C26.2945 16.4325 24.8018 17.2598 23.1556 17.601C22.5414 17.729 21.9102 17.7716 21.279 17.7631C20.6905 17.746 20.0678 17.6948 19.5475 17.439C19.2916 17.311 19.0784 17.1489 18.9419 16.9101C18.9249 16.8845 18.9078 16.8504 18.8993 16.8163C18.8993 16.8078 18.8907 16.7992 18.8907 16.7992C18.8822 16.7822 18.8737 16.7651 18.8737 16.748C18.8566 16.7054 18.8481 16.6628 18.831 16.6201C18.7884 16.4495 18.7799 16.2619 18.8225 16.0913C18.831 16.0486 18.8481 16.0145 18.8566 15.9804C18.8566 15.9719 18.8652 15.9633 18.8652 15.9633C18.8737 15.9463 18.8822 15.9292 18.8907 15.9036C18.9078 15.8695 18.9334 15.8354 18.9504 15.8013C18.959 15.7842 18.976 15.7671 18.9846 15.7501C18.9931 15.7416 19.0016 15.7245 19.0102 15.716C19.0699 15.6477 19.1296 15.5795 19.1893 15.5198C19.2234 15.4857 19.2575 15.4601 19.3002 15.426C19.3087 15.4174 19.3172 15.4089 19.3258 15.4089C19.3513 15.3918 19.3769 15.3748 19.4025 15.3577C19.8375 15.0592 20.2725 14.8801 20.7673 14.7265C21.424 14.5133 22.0979 14.3512 22.7803 14.2147C24.5715 13.8565 26.3883 13.6347 28.1966 13.3959C28.9301 13.3021 29.6637 13.2082 30.3972 13.1571C30.4058 13.1571 30.4228 13.1571 30.4314 13.1571C29.5528 13.9589 28.6401 14.7606 27.6507 15.4601Z" fill="#1D1D1B"/>
<path d="M41.3408 15.1017C40.1296 15.7073 38.8842 16.3385 37.9289 17.328C37.656 17.6095 37.3916 17.9251 37.238 18.2833C37.1954 18.3857 37.2039 18.5136 37.3148 18.5733C37.4001 18.6245 37.5621 18.6074 37.6048 18.4965C37.8607 17.8995 38.3895 17.4218 38.8928 17.0294C39.4046 16.6286 39.976 16.2959 40.5475 15.9803C40.8802 15.8012 41.2214 15.6306 41.554 15.46C41.8014 15.3491 41.5881 14.9738 41.3408 15.1017Z" fill="#1D1D1B"/>
<path d="M55.6451 15.4769C53.9392 15.6048 52.2332 15.7243 50.5273 15.8522C48.8214 15.9801 47.1069 16.0996 45.401 16.2275C44.4371 16.2957 43.4647 16.3725 42.5009 16.4407C42.39 16.4493 42.2876 16.5346 42.2876 16.654C42.2876 16.7649 42.3815 16.8758 42.5009 16.8672C44.2153 16.7393 45.9383 16.6199 47.6528 16.4919C49.3587 16.364 51.0732 16.2446 52.7791 16.1166C53.7344 16.0484 54.6898 15.9801 55.6451 15.9034C55.756 15.8948 55.8583 15.8095 55.8583 15.6901C55.8583 15.5792 55.7645 15.4684 55.6451 15.4769Z" fill="#1D1D1B"/>
<path d="M63.7908 7.89427C60.0719 7.72368 56.353 7.65544 52.634 7.74074C50.041 7.80044 47.448 7.95398 44.8635 8.12457C42.7396 8.26104 40.6158 8.40605 38.4919 8.55105C37.5707 8.61929 36.6495 8.68753 35.7283 8.75576C36.1803 8.3634 36.6324 7.9881 37.1101 7.62985C37.4683 7.36543 37.8436 7.10954 38.236 6.88777C38.5516 6.70865 38.8842 6.55511 39.2425 6.46982C39.5069 6.41011 39.7372 6.41011 39.9931 6.50394H40.0016C40.0102 6.50394 40.0187 6.51247 40.0272 6.51247C40.0528 6.52953 40.0869 6.53806 40.1125 6.55511C40.1808 6.58923 40.2405 6.63188 40.3002 6.69159C40.3684 6.7513 40.4196 6.82806 40.4537 6.91336C40.4622 6.93042 40.4878 7.00719 40.4963 7.15219C40.5049 7.37396 40.4537 7.62985 40.3684 7.80897C40.3599 7.8175 40.3428 7.86868 40.3172 7.93692C40.2831 8.0478 40.249 8.14163 40.2916 8.18428C40.3258 8.2184 40.3769 8.2184 40.4196 8.20987C40.4196 8.20987 40.4622 8.20134 40.4963 8.15869C41.0508 7.50191 40.8546 6.86218 40.8546 6.86218C40.829 6.78542 40.7181 6.44423 40.3769 6.21393C39.8054 5.83009 39.0378 6.04334 38.5772 6.23099C37.7669 6.57217 37.0418 7.11807 36.3595 7.66397C35.9074 8.03074 35.4639 8.40605 35.0288 8.78988C34.2015 8.84959 33.3826 8.90077 32.5552 8.95195C29.2287 9.13107 25.8936 9.14813 22.567 9.02018C22.0382 9.00312 21.5093 8.97754 20.9805 8.95195C20.7843 8.94342 20.7161 9.18225 20.827 9.31872C20.8355 9.32725 20.8611 9.3699 20.9037 9.41255C20.9208 9.42961 20.9379 9.44667 20.9464 9.4552C21.1085 9.6002 21.2108 9.67697 21.2108 9.67697C21.2876 9.73668 21.3985 9.81344 21.552 9.89021C21.6714 9.94992 21.7567 9.94992 21.7994 9.94139C21.8249 9.94139 21.8676 9.93286 21.8761 9.9158C21.8846 9.89874 21.8591 9.87315 21.8505 9.86462C21.7567 9.76226 21.6629 9.65991 21.5691 9.55755C21.5349 9.52343 21.4923 9.47226 21.4411 9.40402C24.8359 9.56608 28.2392 9.57461 31.634 9.42961C32.5979 9.38696 33.5532 9.32725 34.5171 9.25901C34.3721 9.38696 34.2356 9.5149 34.0991 9.64285C33.1438 10.5214 32.2141 11.4255 31.2843 12.3297C31.1649 12.4406 31.054 12.5515 30.9346 12.6709C30.3972 12.6965 29.8513 12.7391 29.314 12.7988C28.4184 12.9012 27.5142 13.0291 26.6186 13.1485C25.7059 13.268 24.7847 13.4044 23.8721 13.5494C23.1044 13.6774 22.3282 13.8224 21.5691 14.0186C20.9805 14.1721 20.3834 14.3512 19.829 14.6071C19.4281 14.7948 19.0187 15.0336 18.7372 15.3748C18.3704 15.8183 18.2851 16.3898 18.5069 16.9357C18.7457 17.5242 19.3172 17.8484 19.9058 18.0104C20.4773 18.164 21.0743 18.1981 21.6629 18.1896C22.3964 18.181 23.13 18.0787 23.8379 17.8825C24.6483 17.6607 25.433 17.3195 26.1751 16.9186C27.6592 16.1083 28.9984 15.0421 30.2437 13.9162C30.5422 13.6518 30.8237 13.3788 31.1137 13.1059C31.8729 13.0803 32.632 13.0888 33.3912 13.1315C33.5788 13.14 33.7665 13.1571 33.9456 13.1741C32.8538 13.8906 31.7705 14.6156 30.6958 15.3577C30.2522 15.6648 29.8087 15.9804 29.3737 16.2874C29.1178 16.4751 28.8619 16.6542 28.606 16.8504C28.4354 16.9869 28.2051 17.1319 28.0942 17.3195C28.026 17.4304 28.0516 17.584 28.171 17.6522C28.2392 17.6948 28.3245 17.6863 28.4013 17.6693C28.5634 17.6351 28.7169 17.5498 28.8619 17.4816C29.5187 17.1745 30.1669 16.8419 30.8237 16.5263C32.0093 15.9463 33.195 15.3577 34.4403 14.9142C34.8838 14.7521 35.3274 14.6156 35.7795 14.4877C35.7965 14.4877 35.8136 14.4792 35.8221 14.4792C35.66 14.573 35.498 14.6668 35.3359 14.7692C34.9009 15.0336 34.4829 15.3151 34.065 15.5965C33.6812 15.861 33.2717 16.1339 32.9391 16.4666C32.8282 16.5689 32.7002 16.7054 32.7002 16.8675C32.7002 17.166 33.05 17.1575 33.2547 17.1148C33.5191 17.0722 33.7665 16.9869 34.0223 16.9016C34.355 16.7907 34.6791 16.6628 35.0033 16.5263C35.6771 16.2363 36.3253 15.8866 37.0077 15.6051C37.2295 15.5198 37.4513 15.4345 37.673 15.3662C37.6645 15.3748 37.6474 15.3833 37.6389 15.3833C37.4086 15.5198 37.1698 15.6648 36.948 15.8183C36.3339 16.2277 35.7283 16.7054 35.2336 17.2598C35.1312 17.3792 34.9862 17.5584 35.0288 17.7204C35.0459 17.7887 35.0886 17.8228 35.0971 17.8313C35.3871 18.0957 36.2486 17.6095 36.5045 17.4645C36.5301 17.456 36.6239 17.3963 36.7262 17.3025C36.8286 17.2087 36.9821 17.0381 36.948 16.9869C36.9224 16.9528 36.8457 16.9869 36.4874 17.1234C35.8306 17.3707 36.1889 17.2257 35.8306 17.3622C35.7795 17.3792 35.7283 17.3963 35.6686 17.4134C35.8733 17.2001 36.095 16.9954 36.3253 16.8078C36.7007 16.4922 37.093 16.2192 37.5024 15.9548C37.7157 15.8183 37.9375 15.6904 38.1592 15.5624C38.3213 15.4686 38.5004 15.3748 38.6454 15.2468C38.7819 15.1274 38.8331 14.9142 38.6539 14.8033C38.5772 14.7521 38.4748 14.7521 38.381 14.7606C38.2275 14.7777 38.0654 14.8033 37.9119 14.8459C37.366 14.9739 36.8457 15.1871 36.3339 15.4174C35.3615 15.861 34.4062 16.3727 33.357 16.6372C33.5703 16.4495 33.792 16.296 34.0223 16.1254C34.7132 15.6307 35.4383 15.1786 36.1718 14.7521C36.3254 14.6668 36.4704 14.5815 36.6154 14.4877C36.7092 14.428 36.8201 14.3597 36.8798 14.2659C36.9736 14.1124 36.8883 13.9333 36.7177 13.8906C36.5642 13.8565 36.3851 13.8991 36.2401 13.9247C35.5065 14.0697 34.773 14.3171 34.0735 14.5815C33.1182 14.9398 32.1885 15.3748 31.2673 15.8268C30.6873 16.1083 30.1158 16.3898 29.5357 16.6798C29.7916 16.5007 30.0475 16.313 30.3034 16.1339C31.1393 15.5454 31.9752 14.9739 32.8282 14.4024C33.4423 13.993 34.0565 13.5921 34.6706 13.1912C34.8582 13.0718 34.7644 12.8159 34.5597 12.7903C33.5617 12.6794 32.5638 12.6282 31.5658 12.6453C32.0349 12.1932 32.4955 11.7326 32.9732 11.2805C33.5959 10.6835 34.2271 10.0949 34.8753 9.5149C34.9862 9.41255 35.1056 9.31019 35.225 9.20784C35.8818 9.15666 36.5301 9.11401 37.1868 9.06283C39.4046 8.90077 41.6223 8.75576 43.84 8.61076C46.4074 8.44017 48.9834 8.26957 51.5593 8.19281C55.1162 8.08192 58.673 8.10751 62.2299 8.24399C62.7587 8.26104 63.2876 8.28663 63.825 8.31222C64.0638 8.33781 64.0638 7.91133 63.7908 7.89427ZM39.9846 6.521C40.0016 6.52953 39.9931 6.521 39.9846 6.521V6.521ZM27.6507 15.4601C26.2945 16.4325 24.8018 17.2598 23.1556 17.601C22.5414 17.729 21.9102 17.7716 21.279 17.7631C20.6905 17.746 20.0678 17.6948 19.5475 17.439C19.2916 17.311 19.0784 17.1489 18.9419 16.9101C18.9249 16.8845 18.9078 16.8504 18.8993 16.8163C18.8993 16.8078 18.8907 16.7992 18.8907 16.7992C18.8822 16.7822 18.8737 16.7651 18.8737 16.748C18.8566 16.7054 18.8481 16.6628 18.831 16.6201C18.7884 16.4495 18.7799 16.2619 18.8225 16.0913C18.831 16.0486 18.8481 16.0145 18.8566 15.9804C18.8566 15.9719 18.8652 15.9633 18.8652 15.9633C18.8737 15.9463 18.8822 15.9292 18.8907 15.9036C18.9078 15.8695 18.9334 15.8354 18.9504 15.8013C18.959 15.7842 18.976 15.7671 18.9846 15.7501C18.9931 15.7416 19.0016 15.7245 19.0102 15.716C19.0699 15.6477 19.1296 15.5795 19.1893 15.5198C19.2234 15.4857 19.2575 15.4601 19.3002 15.426C19.3087 15.4174 19.3172 15.4089 19.3258 15.4089C19.3513 15.3918 19.3769 15.3748 19.4025 15.3577C19.8375 15.0592 20.2725 14.8801 20.7673 14.7265C21.424 14.5133 22.0979 14.3512 22.7803 14.2147C24.5715 13.8565 26.3883 13.6347 28.1966 13.3959C28.9301 13.3021 29.6637 13.2082 30.3972 13.1571C30.4058 13.1571 30.4228 13.1571 30.4314 13.1571C29.5528 13.9589 28.6401 14.7606 27.6507 15.4601Z" fill="#1D1D1B"/>
<path d="M41.3408 15.1017C40.1296 15.7073 38.8842 16.3385 37.9289 17.328C37.656 17.6095 37.3916 17.9251 37.238 18.2833C37.1954 18.3857 37.2039 18.5136 37.3148 18.5733C37.4001 18.6245 37.5621 18.6074 37.6048 18.4965C37.8607 17.8995 38.3895 17.4218 38.8928 17.0294C39.4046 16.6286 39.976 16.2959 40.5475 15.9803C40.8802 15.8012 41.2214 15.6306 41.554 15.46C41.8014 15.3491 41.5881 14.9738 41.3408 15.1017Z" fill="#1D1D1B"/>
<path d="M55.6451 15.4769C53.9392 15.6048 52.2332 15.7243 50.5273 15.8522C48.8214 15.9801 47.1069 16.0996 45.401 16.2275C44.4371 16.2957 43.4647 16.3725 42.5009 16.4407C42.39 16.4493 42.2876 16.5346 42.2876 16.654C42.2876 16.7649 42.3815 16.8758 42.5009 16.8672C44.2153 16.7393 45.9383 16.6199 47.6528 16.4919C49.3587 16.364 51.0732 16.2446 52.7791 16.1166C53.7344 16.0484 54.6898 15.9801 55.6451 15.9034C55.756 15.8948 55.8583 15.8095 55.8583 15.6901C55.8583 15.5792 55.7645 15.4684 55.6451 15.4769Z" fill="#1D1D1B"/>
</g>
<defs>
<clipPath id="clip0">
<rect width="64" height="24" fill="white"/>
</clipPath>
</defs>
</svg>
