<svg width="64" height="64" viewBox="0 0 64 64" fill="none" xmlns="http://www.w3.org/2000/svg">
<path d="M45.3335 7.99984H56.0002C56.7074 7.99984 57.3857 8.28079 57.8858 8.78089C58.3859 9.28098 58.6668 9.95926 58.6668 10.6665V53.3332C58.6668 54.0404 58.3859 54.7187 57.8858 55.2188C57.3857 55.7189 56.7074 55.9998 56.0002 55.9998H8.00016C7.29292 55.9998 6.61464 55.7189 6.11454 55.2188C5.61445 54.7187 5.3335 54.0404 5.3335 53.3332V10.6665C5.3335 9.95926 5.61445 9.28098 6.11454 8.78089C6.61464 8.28079 7.29292 7.99984 8.00016 7.99984H18.6668V2.6665H24.0002V7.99984H40.0002V2.6665H45.3335V7.99984ZM40.0002 13.3332H24.0002V18.6665H18.6668V13.3332H10.6668V23.9998H53.3335V13.3332H45.3335V18.6665H40.0002V13.3332ZM53.3335 29.3332H10.6668V50.6665H53.3335V29.3332Z" fill="#1D1D1B"/>
</svg>
