<svg width="64" height="64" viewBox="0 0 64 64" fill="none" xmlns="http://www.w3.org/2000/svg">
<path d="M45.3335 16.0002H58.6668V21.3335H53.3335V56.0002C53.3335 56.7074 53.0525 57.3857 52.5525 57.8858C52.0524 58.3859 51.3741 58.6668 50.6668 58.6668H13.3335C12.6263 58.6668 11.948 58.3859 11.4479 57.8858C10.9478 57.3857 10.6668 56.7074 10.6668 56.0002V21.3335H5.3335V16.0002H18.6668V8.00016C18.6668 7.29292 18.9478 6.61464 19.4479 6.11454C19.948 5.61445 20.6263 5.3335 21.3335 5.3335H42.6668C43.3741 5.3335 44.0524 5.61445 44.5525 6.11454C45.0525 6.61464 45.3335 7.29292 45.3335 8.00016V16.0002ZM24.0002 29.3335V45.3335H29.3335V29.3335H24.0002ZM34.6668 29.3335V45.3335H40.0002V29.3335H34.6668ZM24.0002 10.6668V16.0002H40.0002V10.6668H24.0002Z"/>
</svg>
