<svg width="58" height="58" viewBox="0 0 58 58" fill="none" xmlns="http://www.w3.org/2000/svg">
<path fill-rule="evenodd" clip-rule="evenodd" d="M7.25 39.0835C8.35457 39.0835 9.25 39.9789 9.25 41.0835V48.3335C9.25 49.0849 9.54851 49.8056 10.0799 50.337C10.6112 50.8683 11.3319 51.1668 12.0833 51.1668H45.9167C46.6681 51.1668 47.3888 50.8683 47.9201 50.337C48.4515 49.8056 48.75 49.0849 48.75 48.3335V41.0835C48.75 39.9789 49.6454 39.0835 50.75 39.0835C51.8546 39.0835 52.75 39.9789 52.75 41.0835V48.3335C52.75 50.1458 52.0301 51.8839 50.7486 53.1654C49.4671 54.4469 47.729 55.1668 45.9167 55.1668H12.0833C10.271 55.1668 8.53293 54.4469 7.25144 53.1654C5.96994 51.8839 5.25 50.1458 5.25 48.3335V41.0835C5.25 39.9789 6.14543 39.0835 7.25 39.0835Z" fill="black"/>
<path d="M31 4.8335C31 3.72893 30.1046 2.8335 29 2.8335C27.8954 2.8335 27 3.72893 27 4.8335V33.8381L20.7477 27.5858C19.9667 26.8047 18.7003 26.8047 17.9193 27.5858C17.1382 28.3668 17.1382 29.6332 17.9193 30.4142L27.5643 40.0592C27.9278 40.434 28.4367 40.6668 29 40.6668C29.5534 40.6668 30.0543 40.4421 30.4163 40.0789L40.081 30.4142C40.8621 29.6332 40.8621 28.3668 40.081 27.5858C39.3 26.8047 38.0337 26.8047 37.2526 27.5858L31 33.8384V4.8335Z" fill="black"/>
</svg>
