<svg width="64" height="64" viewBox="0 0 64 64" fill="none" xmlns="http://www.w3.org/2000/svg">
<path d="M32.0002 58.6668C17.2722 58.6668 5.3335 46.7282 5.3335 32.0002C5.3335 17.2722 17.2722 5.3335 32.0002 5.3335C46.7282 5.3335 58.6668 17.2722 58.6668 32.0002C58.6668 46.7282 46.7282 58.6668 32.0002 58.6668ZM32.0002 53.3335C37.6581 53.3335 43.0843 51.0859 47.0851 47.0851C51.0859 43.0843 53.3335 37.6581 53.3335 32.0002C53.3335 26.3422 51.0859 20.916 47.0851 16.9152C43.0843 12.9144 37.6581 10.6668 32.0002 10.6668C26.3422 10.6668 20.916 12.9144 16.9152 16.9152C12.9144 20.916 10.6668 26.3422 10.6668 32.0002C10.6668 37.6581 12.9144 43.0843 16.9152 47.0851C20.916 51.0859 26.3422 53.3335 32.0002 53.3335ZM29.3335 18.6668H34.6668V24.0002H29.3335V18.6668ZM29.3335 29.3335H34.6668V45.3335H29.3335V29.3335Z" fill="#1D1D1B"/>
</svg>
