<svg width="64" height="64" viewBox="0 0 64 64" fill="none" xmlns="http://www.w3.org/2000/svg">
<path d="M31.999 8C25.4755 8 24.6625 8.0315 22.1095 8.1395C19.546 8.2655 17.812 8.663 16.282 9.257C14.6806 9.86153 13.2304 10.808 12.0325 12.0305C10.8066 13.2257 9.85955 14.6767 9.25895 16.28C8.66495 17.81 8.26745 19.544 8.14145 22.1075C8.02595 24.662 8.00195 25.4735 8.00195 31.997C8.00195 38.5205 8.03345 39.3335 8.14145 41.8865C8.26745 44.4425 8.66495 46.184 9.25895 47.714C9.86348 49.3153 10.81 50.7655 12.0325 51.9635C13.2276 53.1894 14.6787 54.1364 16.282 54.737C17.812 55.3235 19.5535 55.7285 22.1095 55.8545C24.664 55.97 25.4755 55.994 31.999 55.994C38.5225 55.994 39.3354 55.9625 41.8885 55.8545C44.4445 55.7285 46.186 55.322 47.716 54.737C49.3173 54.1325 50.7675 53.186 51.9655 51.9635C53.1929 50.7696 54.1402 49.3182 54.7389 47.714C55.3254 46.184 55.7304 44.4425 55.8564 41.8865C55.972 39.332 55.9959 38.5205 55.9959 31.997C55.9959 25.4735 55.9645 24.6605 55.8564 22.1075C55.7304 19.5515 55.3239 17.801 54.7389 16.28C54.1344 14.6787 53.1879 13.2285 51.9655 12.0305C50.7716 10.803 49.3202 9.85577 47.716 9.257C46.186 8.663 44.4445 8.2655 41.8885 8.1395C39.334 8.024 38.5225 8 31.999 8ZM31.999 12.32C38.4055 12.32 39.1705 12.3515 41.7024 12.4595C44.0379 12.569 45.3099 12.959 46.1544 13.289C47.1985 13.6744 48.1434 14.2878 48.9204 15.0845C49.7158 15.8582 50.3269 16.801 50.7084 17.843C51.0384 18.6875 51.4284 19.9595 51.5379 22.295C51.6459 24.827 51.6774 25.5935 51.6774 31.9985C51.6774 38.4035 51.646 39.17 51.5289 41.702C51.403 44.0375 51.013 45.3095 50.6844 46.154C50.2299 47.2805 49.7229 48.068 48.8859 48.92C48.1063 49.7117 47.162 50.3222 46.1199 50.708C45.2859 51.038 43.9959 51.428 41.6514 51.5375C39.1059 51.6455 38.356 51.677 31.933 51.677C25.51 51.677 24.7615 51.6455 22.213 51.5285C19.8775 51.4025 18.589 51.0125 17.7445 50.684C16.6045 50.2295 15.823 49.7225 14.986 48.8855C14.1415 48.041 13.6045 47.237 13.1905 46.1195C12.8545 45.2855 12.4705 43.9955 12.346 41.651C12.2605 39.1355 12.22 38.3555 12.22 31.9625C12.22 25.5725 12.2605 24.791 12.346 22.244C12.4705 19.8995 12.8545 18.6125 13.1905 17.7755C13.6045 16.634 14.143 15.854 14.986 15.0095C15.8215 14.174 16.6045 13.634 17.7445 13.211C18.589 12.8825 19.846 12.4925 22.1905 12.3755C24.736 12.284 25.486 12.251 31.9 12.251L31.999 12.32ZM31.999 19.6805C30.381 19.6799 28.7787 19.9982 27.2838 20.6171C25.7888 21.236 24.4305 22.1434 23.2864 23.2875C22.1423 24.4316 21.2349 25.7899 20.616 27.2848C19.9971 28.7798 19.6789 30.382 19.6795 32C19.6789 33.618 19.9971 35.2202 20.616 36.7152C21.2349 38.2101 22.1423 39.5684 23.2864 40.7125C24.4305 41.8566 25.7888 42.764 27.2838 43.3829C28.7787 44.0018 30.381 44.3201 31.999 44.3195C33.6169 44.3201 35.2192 44.0018 36.7141 43.3829C38.2091 42.764 39.5674 41.8566 40.7115 40.7125C41.8556 39.5684 42.763 38.2101 43.3819 36.7152C44.0008 35.2202 44.319 33.618 44.3184 32C44.319 30.382 44.0008 28.7798 43.3819 27.2848C42.763 25.7899 41.8556 24.4316 40.7115 23.2875C39.5674 22.1434 38.2091 21.236 36.7141 20.6171C35.2192 19.9982 33.6169 19.6799 31.999 19.6805ZM31.999 39.9995C27.577 39.9995 23.9995 36.422 23.9995 32C23.9995 27.578 27.577 24.0005 31.999 24.0005C36.421 24.0005 39.9984 27.578 39.9984 32C39.9984 36.422 36.421 39.9995 31.999 39.9995ZM47.695 19.1885C47.6942 19.953 47.3899 20.6859 46.849 21.2262C46.3082 21.7665 45.5749 22.07 44.8104 22.07C44.4324 22.07 44.0581 21.9955 43.7089 21.8509C43.3597 21.7062 43.0423 21.4942 42.775 21.2269C42.5078 20.9596 42.2957 20.6423 42.1511 20.2931C42.0064 19.9438 41.9319 19.5695 41.9319 19.1915C41.9319 18.8135 42.0064 18.4392 42.1511 18.0899C42.2957 17.7407 42.5078 17.4234 42.775 17.1561C43.0423 16.8888 43.3597 16.6768 43.7089 16.5321C44.0581 16.3875 44.4324 16.313 44.8104 16.313C46.396 16.313 47.695 17.603 47.695 19.1885Z"/>
</svg>
