<svg width="64" height="64" viewBox="0 0 64 64" fill="none" xmlns="http://www.w3.org/2000/svg">
<path d="M26.6667 16V21.3333H13.3333V50.6667H42.6667V37.3333H48V53.3333C48 54.0406 47.7191 54.7189 47.219 55.219C46.7189 55.7191 46.0406 56 45.3333 56H10.6667C9.95942 56 9.28115 55.7191 8.78105 55.219C8.28095 54.7189 8 54.0406 8 53.3333V18.6667C8 17.9594 8.28095 17.2811 8.78105 16.781C9.28115 16.281 9.95942 16 10.6667 16H26.6667ZM56 8V29.3333H50.6667V17.1013L29.8853 37.8853L26.1147 34.1147L46.8933 13.3333H34.6667V8H56Z"/>
</svg>
