<svg width="256" height="128" viewBox="0 0 256 128" fill="none" xmlns="http://www.w3.org/2000/svg">
<path d="M243.38 60.9452C242.264 60.3419 241.02 60.0122 239.751 59.9834C238.851 59.9781 237.963 60.1884 237.163 60.5965C237.169 60.4844 237.169 60.372 237.163 60.2599C237.006 58.9255 236.231 57.0261 233.413 55.5113C231.654 54.705 229.738 54.2945 227.801 54.3092C225.816 54.2686 223.851 54.7145 222.08 55.6075C220.065 56.8133 218.54 58.6859 217.775 60.8971C216.734 61.0894 212.138 62.2435 211.255 68.4828C211.075 69.692 211.178 70.9264 211.558 72.0893L210.457 72.1975C210.185 74.3604 210.378 76.5562 211.025 78.6392C211.671 80.7221 212.756 82.6447 214.207 84.2793C215.679 85.851 217.459 87.1081 219.436 87.9741C221.414 88.8401 223.548 89.2968 225.709 89.3164C226.972 89.4024 228.238 89.2184 229.423 88.7767C230.608 88.335 231.684 87.6458 232.579 86.7557C233.002 86.264 233.319 85.6912 233.51 85.0727C233.527 85.3891 233.527 85.7061 233.51 86.0224V87.2246H234.647C234.756 87.2246 245.799 86.6355 246.573 75.7799L245.702 75.5155C246.927 74.0834 247.698 72.3219 247.915 70.4543C248.23 66.0544 246.73 62.9287 243.38 60.9452Z" fill="white"/>
<path d="M235.094 72.8346C235.106 72.31 234.99 71.7903 234.756 71.3199C234.507 70.8488 234.202 70.4089 233.849 70.0095C233.478 69.5779 233.073 69.1759 232.639 68.8074L231.272 67.6893C230.825 67.3046 230.39 66.9199 229.99 66.4872C229.609 66.1398 229.287 65.7339 229.035 65.285C228.809 64.9233 228.684 64.5084 228.672 64.0828C228.66 63.7612 228.744 63.4431 228.914 63.1692C229.072 62.9041 229.308 62.6941 229.591 62.5681C229.733 62.5092 229.878 62.461 230.027 62.4238C229.62 62.4539 229.215 62.5142 228.817 62.6042C228.261 62.7403 227.733 62.9723 227.257 63.2894C226.796 63.6054 226.409 64.0152 226.12 64.4916C225.81 65.0375 225.651 65.6558 225.66 66.2828C225.649 66.8074 225.765 67.3271 225.999 67.7975C226.246 68.2724 226.556 68.713 226.918 69.1079C227.289 69.5395 227.694 69.9415 228.128 70.3101L229.519 71.4401C229.966 71.8248 230.402 72.2095 230.801 72.6423C231.176 72.9979 231.502 73.4023 231.768 73.8444C231.972 74.2136 232.084 74.6258 232.095 75.0466C232.113 75.371 232.033 75.6933 231.865 75.9723C231.702 76.2343 231.461 76.4399 231.176 76.5613C231.025 76.6313 230.867 76.6837 230.704 76.7176C231.111 76.6814 231.515 76.6171 231.914 76.5253C232.472 76.4007 233.001 76.1723 233.474 75.8521C233.937 75.5396 234.326 75.129 234.611 74.6499C234.94 74.1019 235.108 73.4728 235.094 72.8346Z" fill="#F72C38"/>
<path d="M232.833 56.5694C231.229 55.82 229.475 55.4414 227.703 55.4622C225.931 55.4831 224.186 55.9027 222.6 56.6896C219.359 58.4208 214.315 66.1026 224.052 72.4861C224.052 72.4861 221.633 65.2731 226.362 62.46C227.687 61.7957 229.189 61.5603 230.656 61.7868C231.527 61.9672 230.656 62.989 230.595 63.0972C230.494 63.3159 230.44 63.5536 230.438 63.7945C230.438 64.0499 230.5 64.3016 230.619 64.5278C230.827 64.9731 231.2 65.3218 231.66 65.5015C232.106 65.6813 232.604 65.6813 233.05 65.5015C233.264 65.4352 233.46 65.3218 233.623 65.1699C233.786 65.0179 233.913 64.8313 233.994 64.624C234.083 64.4166 234.123 64.1915 234.11 63.9664C234.098 63.7412 234.033 63.5219 233.921 63.3256C233.752 62.9634 233.489 62.6523 233.159 62.424C233.159 62.424 233.087 62.2076 233.413 62.3278C234.022 62.5461 234.596 62.8497 235.119 63.2294C236.086 62.448 237.151 58.9136 232.833 56.5694Z" fill="#F72C38"/>
<path d="M232.107 77.3671C232.107 77.3671 237.925 76.8141 238.348 71.753C238.663 68.2186 234.853 67.6776 235.603 63.8667C236.208 61.6788 239.026 60.0438 242.703 61.9433C246.331 64.1072 246.912 67.329 246.73 70.3585C246.549 73.3879 242.557 80.7933 232.107 77.3671Z" fill="#F72C38"/>
<path d="M228.817 76.874C228.878 76.874 228.926 76.874 228.938 76.7898C228.092 76.7898 227.789 76.345 227.729 76.1286C227.684 76.041 227.661 75.9443 227.661 75.8461C227.661 75.7479 227.684 75.6512 227.729 75.5636C227.829 75.4137 227.942 75.2729 228.068 75.1428C228.261 74.954 228.408 74.7236 228.499 74.4694C228.589 74.2152 228.619 73.9439 228.588 73.6762C228.564 73.4391 228.49 73.2096 228.371 73.0026C228.252 72.7955 228.091 72.6155 227.898 72.474C227.71 72.3141 227.49 72.1952 227.252 72.1248C227.015 72.0544 226.765 72.0341 226.519 72.0653C226.273 72.0833 226.034 72.1512 225.815 72.265C225.597 72.3787 225.404 72.5358 225.249 72.7265C225.091 72.9082 224.971 73.1204 224.898 73.3499C224.825 73.5795 224.801 73.8215 224.826 74.0609C224.876 74.544 225.079 74.9988 225.407 75.3592C225.747 75.7506 226.157 76.0766 226.616 76.321C226.81 76.4051 226.725 76.4652 226.459 76.4292C224.782 76.1301 223.194 75.4636 221.809 74.4779C220.424 73.4922 219.277 72.2122 218.452 70.7309C217.741 69.3968 217.34 67.9211 217.28 66.4126C217.219 64.9042 217.5 63.4014 218.101 62.0151C217.17 62.1354 213.154 63.2173 212.38 68.6511C211.606 74.0849 216.88 77.0663 219.734 77.8357C223.665 79.0379 227.826 77.6433 228.66 76.91L228.817 76.874Z" fill="#F72C38"/>
<path d="M211.643 72.3301C213.53 78.6535 219.396 79.5431 222.94 79.7715C225.359 79.9158 231.551 77.812 232.615 82.6447C234.176 91.6249 210.107 90.3747 211.643 72.3301Z" fill="#F72C38"/>
<path d="M245.4 75.5635C242.473 80.4803 236.824 80.3722 232.095 79.4465C234.744 81.5022 234.514 85.9262 234.514 85.9262C234.514 85.9262 244.686 85.4934 245.4 75.5635Z" fill="#F72C38"/>
<path fill-rule="evenodd" clip-rule="evenodd" d="M33.8469 45.2324C32.9594 43.3502 31.5453 41.762 29.7736 40.6577C28.0019 39.5533 25.9476 38.9796 23.8565 39.0051C22.6014 38.9482 21.3482 39.1528 20.1774 39.6058C19.0066 40.0587 17.944 40.75 17.0579 41.6353C16.1718 42.5206 15.4817 43.5803 15.032 44.7463C14.5823 45.9123 14.3829 47.159 14.4466 48.4061C14.4466 53.8279 18.2323 55.6191 23.3243 58.1196C28.4163 60.6202 30.8957 61.642 33.4357 63.4092C35.1321 64.4106 36.5302 65.8423 37.4866 67.5576C38.443 69.2729 38.9234 71.2102 38.8784 73.1708C38.8784 81.586 31.7182 87.9335 23.0219 87.9335C20.7826 88.0146 18.5549 87.5792 16.5131 86.6615C14.4714 85.7438 12.6712 84.3687 11.2535 82.6439C9.79043 81.0481 8.68186 79.1639 8 77.1139L10.8423 75.7555C11.5056 77.4956 12.4448 79.119 13.6241 80.5642C14.7804 81.9335 16.2294 83.0293 17.8656 83.7717C19.5018 84.5142 21.284 84.8846 23.0824 84.8559C29.9402 84.8559 35.3225 79.915 35.3225 73.2069C35.3225 70.502 34.2581 67.6168 30.4119 65.3206C28.8759 64.383 25.574 62.7961 20.9537 60.512C16.8172 58.4563 14.2652 57.0978 12.5598 54.2246C11.4722 52.4973 10.9172 50.4914 10.9633 48.4542C10.9633 42.7078 14.9183 35.9997 23.9653 35.9997C26.4885 35.9501 28.9759 36.5982 31.1501 37.8719C33.3242 39.1455 35.0996 40.9946 36.278 43.2127L33.8469 45.2324Z" fill="#1D1D1B"/>
<path d="M42.2286 62.0032C42.225 65.441 42.9098 68.8451 44.2431 72.0172C45.5764 75.1893 47.5316 78.0658 49.9947 80.4793C52.4578 82.8928 55.3795 84.7949 58.5896 86.0748C61.7997 87.3546 65.234 87.9866 68.6923 87.934C74.9198 87.9762 80.9458 85.743 85.6253 81.6586V77.2707C83.4599 79.6336 80.8309 81.5309 77.9001 82.8458C74.9693 84.1607 71.7986 84.8654 68.5835 84.9165C58.3149 84.9165 45.7724 77.1265 45.7724 62.1595C45.7724 49.3804 55.5088 39.0297 68.5109 39.0297C71.7726 39.0347 74.9939 39.7473 77.9499 41.1177C80.9059 42.4882 83.5253 44.4834 85.6253 46.964V42.5761C80.9851 38.2911 74.8686 35.9376 68.5351 36.0002C65.0851 35.9732 61.664 36.6263 58.4695 37.9217C55.2751 39.2171 52.3707 41.1292 49.9244 43.5472C47.4781 45.9653 45.5384 48.8415 44.2174 52.0094C42.8965 55.1772 42.2205 58.574 42.2286 62.0032Z" fill="#1D1D1B"/>
<path d="M93.1607 36.0005H90.1128V87.9342H93.1607V36.0005Z" fill="#1D1D1B"/>
<path d="M122.406 61.6306C121.054 59.7066 119.239 58.149 117.126 57.0993C115.014 56.0496 112.672 55.541 110.311 55.6198C101.252 55.6198 95.1685 62.1956 95.1685 71.7168C95.1685 81.8511 102.171 87.9701 110.311 87.9701C112.702 88.0109 115.065 87.4505 117.179 86.3407C119.294 85.231 121.092 83.6081 122.406 81.6227V87.9341H125.442V56.2569H122.406V61.6306ZM110.541 85.0609C102.704 85.0609 98.3615 78.4129 98.3615 71.4523C98.3615 63.0371 104.3 58.4569 110.456 58.4569C115.778 58.4569 122.551 62.3038 122.551 71.4523C122.564 78.5572 118.294 85.0609 110.541 85.0609Z" fill="#1D1D1B"/>
<path d="M139.303 68.8074C135.965 67.449 133.255 66.5353 133.255 63.3616C133.263 62.6929 133.406 62.0325 133.676 61.4201C133.946 60.8077 134.339 60.2559 134.829 59.7978C135.319 59.3398 135.897 58.9849 136.529 58.7544C137.161 58.524 137.833 58.4227 138.505 58.4568C139.652 58.4255 140.781 58.7409 141.745 59.3612C142.708 59.9815 143.459 60.8775 143.899 61.931L146.487 60.5726C145.807 59.0132 144.662 57.6987 143.206 56.8066C141.751 55.9144 140.055 55.4876 138.347 55.5836C137.27 55.5257 136.191 55.6889 135.18 56.0632C134.168 56.4375 133.245 57.0148 132.468 57.7592C131.691 58.5035 131.076 59.3989 130.662 60.3897C130.248 61.3804 130.044 62.4453 130.062 63.5179C130.033 64.9603 130.493 66.3705 131.369 67.5211C132.892 69.4927 135.553 70.4785 139.121 71.9812C142.689 73.4839 145.048 74.7822 145.048 78.2565C145.077 79.163 144.918 80.0657 144.58 80.9082C144.242 81.7508 143.734 82.5152 143.086 83.1536C142.438 83.7921 141.664 84.291 140.814 84.6191C139.963 84.9472 139.053 85.0976 138.142 85.0608C136.328 85.0683 134.567 84.4561 133.153 83.3268C131.74 82.1975 130.759 80.6197 130.377 78.8576L127.401 79.7712C127.961 82.159 129.338 84.279 131.298 85.7682C133.257 87.2573 135.677 88.023 138.142 87.934C142.98 87.934 148.253 85.1329 148.253 78.1122C148.348 76.308 147.781 74.5308 146.657 73.1112C144.673 70.6227 141.819 69.7932 139.303 68.8074Z" fill="#1D1D1B"/>
<path d="M162.162 68.8074C158.812 67.449 156.115 66.5353 156.115 63.3616C156.122 62.6929 156.265 62.0325 156.536 61.4201C156.806 60.8077 157.198 60.2559 157.688 59.7978C158.179 59.3398 158.757 58.9849 159.389 58.7544C160.02 58.524 160.692 58.4227 161.364 58.4568C162.51 58.4246 163.638 58.7398 164.6 59.3603C165.561 59.9809 166.31 60.8775 166.746 61.931L169.347 60.5726C168.666 59.0132 167.521 57.6987 166.066 56.8066C164.61 55.9144 162.914 55.4876 161.207 55.5836C160.129 55.5257 159.051 55.6889 158.039 56.0632C157.028 56.4375 156.105 57.0148 155.328 57.7591C154.55 58.5035 153.936 59.3989 153.522 60.3897C153.108 61.3804 152.904 62.4453 152.922 63.5179C152.91 64.9674 153.391 66.3784 154.289 67.5211C155.8 69.4927 158.473 70.4785 162.041 71.9812C165.609 73.4839 167.968 74.7822 167.968 78.2565C167.995 79.1636 167.834 80.0665 167.495 80.9091C167.156 81.7517 166.647 82.5159 165.998 83.1542C165.349 83.7925 164.574 84.2911 163.723 84.6191C162.872 84.9471 161.962 85.0975 161.05 85.0608C159.238 85.0655 157.48 84.4521 156.069 83.323C154.657 82.1939 153.679 80.6176 153.297 78.8576L150.333 79.7712C150.888 82.157 152.261 84.2765 154.216 85.766C156.172 87.2554 158.588 88.0219 161.05 87.934C165.888 87.934 171.173 85.1329 171.173 78.1122C171.268 76.308 170.701 74.5308 169.577 73.1112C167.557 70.6227 164.666 69.7932 162.162 68.8074Z" fill="#1D1D1B"/>
<path d="M175.926 44.9926C175.557 44.981 175.19 45.0444 174.846 45.1791C174.503 45.3138 174.191 45.5169 173.929 45.7758C173.667 46.0347 173.462 46.3441 173.325 46.6849C173.188 47.0257 173.122 47.3907 173.132 47.7575C173.179 48.4609 173.493 49.1203 174.011 49.6021C174.528 50.0839 175.211 50.3519 175.92 50.3519C176.629 50.3519 177.312 50.0839 177.83 49.6021C178.348 49.1203 178.662 48.4609 178.708 47.7575C178.718 47.3917 178.653 47.0277 178.517 46.6878C178.38 46.3478 178.176 46.039 177.916 45.7803C177.655 45.5215 177.345 45.3182 177.003 45.1828C176.661 45.0473 176.294 44.9826 175.926 44.9926Z" fill="#1D1D1B"/>
<path d="M177.438 56.2568H174.402V87.934H177.438V56.2568Z" fill="#1D1D1B"/>
<path d="M196.681 85.061C194.955 85.0726 193.244 84.7346 191.653 84.0675C190.062 83.4004 188.625 82.4182 187.429 81.1808C186.233 79.9434 185.302 78.4767 184.695 76.8703C184.088 75.2639 183.816 73.5513 183.897 71.8371C183.897 64.2755 189.231 58.457 196.826 58.457C198.879 58.4759 200.902 58.9384 202.757 59.8124C204.612 60.6863 206.253 61.9508 207.567 63.5181V59.5149C204.587 56.9574 200.775 55.5607 196.838 55.5838C186.872 55.5838 180.716 62.7968 180.716 71.9092C180.716 81.0217 187.247 87.9342 196.609 87.9342C200.79 87.9333 204.825 86.4011 207.942 83.6304V79.543C205.51 82.1878 201.628 85.061 196.681 85.061Z" fill="#1D1D1B"/>
</svg>
