<svg width="64" height="64" viewBox="0 0 64 64" fill="none" xmlns="http://www.w3.org/2000/svg">
<path d="M51.4282 12.9551H12.5718C8.94817 12.9551 6 15.9033 6 19.5269V44.473C6 48.0966 8.94817 51.0448 12.5718 51.0448H51.4282C55.0518 51.0448 58 48.0966 58 44.473V19.5269C58 15.9033 55.0518 12.9551 51.4282 12.9551ZM50.4015 17.1942L32 31.4091L13.5985 17.1942H50.4015ZM51.4282 46.8059H12.5718C11.2856 46.8059 10.2391 45.7594 10.2391 44.4733V19.9559L30.7042 35.765C31.0858 36.0597 31.543 36.207 32 36.207C32.457 36.207 32.9142 36.0597 33.2958 35.765L53.7609 19.9559V44.473C53.7609 45.7594 52.7144 46.8059 51.4282 46.8059Z" fill="#1D1D1B"/>
</svg>
