<svg width="64" height="64" viewBox="0 0 64 64" fill="none" xmlns="http://www.w3.org/2000/svg">
<path d="M48.9707 46.304L32 63.2746L15.0293 46.304C11.6729 42.9475 9.38716 38.6711 8.46114 34.0156C7.53512 29.36 8.01042 24.5344 9.82693 20.149C11.6434 15.7636 14.7196 12.0153 18.6664 9.3782C22.6131 6.74106 27.2533 5.3335 32 5.3335C36.7467 5.3335 41.3869 6.74106 45.3337 9.3782C49.2804 12.0153 52.3566 15.7636 54.1731 20.149C55.9896 24.5344 56.4649 29.36 55.5389 34.0156C54.6129 38.6711 52.3271 42.9475 48.9707 46.304ZM32 34.6666C33.4145 34.6666 34.771 34.1047 35.7712 33.1045C36.7714 32.1043 37.3333 30.7478 37.3333 29.3333C37.3333 27.9188 36.7714 26.5622 35.7712 25.5621C34.771 24.5619 33.4145 24 32 24C30.5855 24 29.229 24.5619 28.2288 25.5621C27.2286 26.5622 26.6667 27.9188 26.6667 29.3333C26.6667 30.7478 27.2286 32.1043 28.2288 33.1045C29.229 34.1047 30.5855 34.6666 32 34.6666Z" fill="#1D1D1B"/>
</svg>
