<svg width="64" height="64" viewBox="0 0 64 64" fill="none" xmlns="http://www.w3.org/2000/svg">
<path d="M16.4715 33.678C15.1636 36.2055 16.6486 37.4136 20.0368 39.4776C22.9172 41.2268 26.8964 41.8666 29.4525 42.1225C28.4049 43.1125 33.2056 38.5735 19.3796 51.6471C16.448 54.4094 21.1676 58.8414 24.0971 56.1378L32.0278 48.6183C35.064 51.4898 37.9743 54.2416 39.9586 56.1482C42.8902 58.8624 47.6077 54.4682 44.708 51.6576C44.4904 51.4541 33.9609 41.5247 34.6031 42.133C37.1912 41.8771 41.1107 41.1996 43.957 39.488L43.9549 39.4859C47.3431 37.4115 48.8281 36.2055 47.5394 33.678C46.7606 32.2434 44.6611 31.0436 41.866 33.118C41.866 33.118 38.0916 35.9601 32.0044 35.9601C25.915 35.9601 22.1427 33.118 22.1427 33.118C19.3498 31.0331 17.2417 32.2434 16.4715 33.678Z"/>
<path d="M32.001 32C39.1568 32 45 26.4037 45 19.5144C45 12.5963 39.1568 7 32.001 7C24.8432 7 19 12.5963 19 19.5144C19 26.4037 24.8432 32 32.001 32ZM32.001 13.3396C35.5172 13.3396 38.3853 16.1006 38.3853 19.5144C38.3853 22.8994 35.5172 25.6604 32.001 25.6604C28.4848 25.6604 25.6168 22.8994 25.6168 19.5144C25.6147 16.0986 28.4828 13.3396 32.001 13.3396Z"/>
</svg>
