<svg width="64" height="64" viewBox="0 0 64 64" fill="none" xmlns="http://www.w3.org/2000/svg">
<path d="M53.4877 40.7592L48.6586 36.8028C45.5125 34.2253 40.6287 34.4692 37.7586 37.3392L37.5669 37.531C37.0856 38.0122 36.3017 38.0084 35.8272 37.5338L26.4968 28.2034C26.0258 27.7324 26.0165 26.9748 26.4704 26.4938C26.4786 26.485 26.487 26.4764 26.4955 26.4678L26.4699 26.4934C26.4784 26.4849 26.4869 26.4763 26.4954 26.4678C29.3497 23.5862 29.6228 18.6799 27.1225 15.5188L23.2058 10.5671C20.6883 7.38419 16.3128 7.13832 13.443 10.0081L12.7236 10.7275C7.6263 15.8248 6.42514 25.012 10.2486 31.1204C10.2486 31.1204 12.4993 36.3401 20.095 43.9358C27.6906 51.5314 32.9104 53.7821 32.9104 53.7821C39.0758 57.5125 48.2028 56.4076 53.299 51.3114L53.9841 50.6262C56.8561 47.7543 56.6317 43.3349 53.4877 40.7592ZM50.5145 47.1568L49.8294 47.8419C46.3307 51.3406 39.6842 52.1458 35.4502 49.5841L35.1622 49.4098L34.853 49.2765C34.4735 49.1129 33.5223 48.5971 32.0841 47.6325C29.5299 45.9193 26.6616 43.5636 23.5644 40.4664C20.4671 37.3691 18.1114 34.5009 16.3982 31.9466C15.4336 30.5085 14.9178 29.5572 14.7542 29.1777L14.6061 28.8342L14.4076 28.5172C11.8334 24.4046 12.6633 17.7269 16.1931 14.1971L16.9125 13.4777C17.7103 12.68 18.6641 12.7342 19.3577 13.6112L23.2744 18.5629C24.2402 19.7839 24.1152 21.9095 23.0006 23.0242C20.6296 25.4229 20.6413 29.2872 23.0274 31.6732L32.3578 41.0035C34.7497 43.3954 38.6404 43.3968 41.0366 41.0007L41.2283 40.809C42.3162 39.7211 44.3553 39.6204 45.5493 40.5985L50.3784 44.5549C51.28 45.2934 51.3327 46.3387 50.5145 47.1568Z"/>
</svg>
