<svg width="64" height="64" viewBox="0 0 64 64" fill="none" xmlns="http://www.w3.org/2000/svg">
<path d="M32.0002 58.6668C17.2722 58.6668 5.3335 46.7282 5.3335 32.0002C5.3335 17.2722 17.2722 5.3335 32.0002 5.3335C46.7282 5.3335 58.6668 17.2722 58.6668 32.0002C58.6668 46.7282 46.7282 58.6668 32.0002 58.6668ZM32.0002 53.3335C37.6581 53.3335 43.0843 51.0859 47.0851 47.0851C51.0859 43.0843 53.3335 37.6581 53.3335 32.0002C53.3335 26.3422 51.0859 20.916 47.0851 16.9152C43.0843 12.9144 37.6581 10.6668 32.0002 10.6668C26.3422 10.6668 20.916 12.9144 16.9152 16.9152C12.9144 20.916 10.6668 26.3422 10.6668 32.0002C10.6668 37.6581 12.9144 43.0843 16.9152 47.0851C20.916 51.0859 26.3422 53.3335 32.0002 53.3335ZM29.3335 40.0002H34.6668V45.3335H29.3335V40.0002ZM34.6668 35.6135V37.3335H29.3335V33.3335C29.3335 32.6263 29.6144 31.948 30.1145 31.4479C30.6146 30.9478 31.2929 30.6668 32.0002 30.6668C32.7577 30.6668 33.4997 30.4516 34.1397 30.0464C34.7797 29.6411 35.2915 29.0625 35.6156 28.3777C35.9396 27.693 36.0625 26.9303 35.97 26.1784C35.8775 25.4265 35.5734 24.7164 35.0931 24.1306C34.6127 23.5448 33.9759 23.1074 33.2568 22.8694C32.5376 22.6314 31.7656 22.6025 31.0306 22.786C30.2957 22.9696 29.6279 23.3581 29.1051 23.9063C28.5823 24.4546 28.226 25.14 28.0775 25.8828L22.8455 24.8348C23.1698 23.2137 23.9189 21.7078 25.016 20.4711C26.113 19.2343 27.5189 18.311 29.0897 17.7957C30.6606 17.2803 32.3401 17.1913 33.9566 17.5378C35.5732 17.8843 37.0687 18.6538 38.2903 19.7677C39.512 20.8816 40.4159 22.2999 40.9098 23.8777C41.4036 25.4554 41.4697 27.136 41.1011 28.7477C40.7326 30.3593 39.9427 31.8442 38.8122 33.0505C37.6817 34.2568 36.2512 35.1413 34.6668 35.6135Z" fill="#1D1D1B"/>
</svg>
