<svg width="64" height="64" viewBox="0 0 64 64" fill="none" xmlns="http://www.w3.org/2000/svg">
<path d="M32.0002 58.6668C17.2722 58.6668 5.3335 46.7282 5.3335 32.0002C5.3335 17.2722 17.2722 5.3335 32.0002 5.3335C46.7282 5.3335 58.6668 17.2722 58.6668 32.0002C58.6668 46.7282 46.7282 58.6668 32.0002 58.6668ZM29.3335 40.0002V45.3335H34.6668V40.0002H29.3335ZM34.6668 35.6135C36.8099 34.9676 38.6498 33.5734 39.8512 31.6848C41.0527 29.7963 41.5359 27.539 41.2128 25.3241C40.8897 23.1092 39.7818 21.084 38.0909 19.6174C36.3999 18.1508 34.2385 17.3403 32.0002 17.3335C29.8424 17.3333 27.7513 18.0806 26.0823 19.4481C24.4133 20.8157 23.2695 22.7192 22.8455 24.8348L28.0775 25.8828C28.226 25.14 28.5823 24.4546 29.1051 23.9063C29.6279 23.3581 30.2957 22.9696 31.0306 22.786C31.7656 22.6025 32.5376 22.6314 33.2568 22.8694C33.9759 23.1074 34.6127 23.5448 35.0931 24.1306C35.5734 24.7164 35.8775 25.4265 35.97 26.1784C36.0625 26.9303 35.9396 27.693 35.6156 28.3777C35.2915 29.0625 34.7797 29.6411 34.1397 30.0464C33.4997 30.4516 32.7577 30.6668 32.0002 30.6668C31.2929 30.6668 30.6146 30.9478 30.1145 31.4479C29.6144 31.948 29.3335 32.6263 29.3335 33.3335V37.3335H34.6668V35.6135Z" fill="#1D1D1B"/>
</svg>
