<svg width="64" height="64" viewBox="0 0 64 64" fill="none" xmlns="http://www.w3.org/2000/svg">
<path d="M37.7505 18.3224C37.7505 15.3941 38.7728 12.9416 40.8174 10.965C42.8621 8.98832 45.4179 8 48.4848 8C51.4057 8 53.8884 9.13474 55.9331 11.4042C57.9777 13.6737 59 16.5288 59 19.9696C59 22.4587 58.4523 25.204 57.357 28.2056C56.1886 31.2072 54.6917 34.2453 52.8661 37.3201C50.9675 40.3949 48.8499 43.433 46.5132 46.4346C44.1034 49.5093 41.6937 52.3645 39.284 55L36.3266 52.5841C39.6126 48.7041 42.3509 44.7874 44.5416 40.8341C46.7323 36.8808 48.0467 33.0008 48.4848 29.1939C45.5639 28.9743 43.0446 27.8762 40.927 25.8995C38.8093 23.9229 37.7505 21.3972 37.7505 18.3224ZM6.3144 18.3224C6.3144 15.3941 7.33672 12.9416 9.38134 10.965C11.426 8.98832 13.9817 8 17.0487 8C19.9696 8 22.4523 9.13474 24.497 11.4042C26.5416 13.6737 27.5639 16.5288 27.5639 19.9696C27.5639 22.4587 27.0162 25.204 25.9209 28.2056C24.7525 31.2072 23.2556 34.2453 21.43 37.3201C19.5314 40.3949 17.4138 43.433 15.0771 46.4346C12.6673 49.5093 10.2576 52.3645 7.84787 55L5 52.5841C8.28601 48.7041 11.0243 44.7874 13.215 40.8341C15.3327 36.8808 16.6105 33.0008 17.0487 29.1939C14.1278 28.9743 11.6085 27.8762 9.49087 25.8995C7.37323 23.9229 6.3144 21.3972 6.3144 18.3224Z" fill="#F72C38"/>
</svg>
