<svg width="64" height="64" viewBox="0 0 64 64" fill="none" xmlns="http://www.w3.org/2000/svg">
<path d="M39.782 33.1218C39.7968 32.4483 39.6476 31.7812 39.3472 31.1773C39.0277 30.5725 38.6368 30.0078 38.1827 29.4951C37.7067 28.941 37.1875 28.4249 36.63 27.9518L34.8755 26.5165C34.301 26.0226 33.742 25.5288 33.2296 24.9732C32.7404 24.5272 32.3262 24.0062 32.003 23.4299C31.713 22.9655 31.5522 22.4329 31.5371 21.8866C31.5213 21.4737 31.6294 21.0654 31.8477 20.7137C32.0503 20.3733 32.3541 20.1038 32.7172 19.942C32.8986 19.8665 33.0855 19.8046 33.2762 19.7568C32.7535 19.7954 32.2345 19.8728 31.7235 19.9883C31.0093 20.1632 30.3314 20.4609 29.7205 20.868C29.1293 21.2737 28.6318 21.7998 28.2609 22.4113C27.8625 23.1122 27.6589 23.9059 27.6709 24.7108C27.6562 25.3844 27.8053 26.0515 28.1057 26.6554C28.4232 27.2651 28.82 27.8306 29.2857 28.3376C29.7618 28.8917 30.2809 29.4077 30.8384 29.8809L32.624 31.3316C33.1985 31.8255 33.7575 32.3193 34.2699 32.8749C34.7519 33.3315 35.1697 33.8506 35.5121 34.4182C35.7734 34.8921 35.9171 35.4212 35.9313 35.9615C35.9539 36.378 35.8512 36.7917 35.6363 37.1498C35.4263 37.4862 35.1173 37.7502 34.7512 37.9061C34.5578 37.9958 34.3546 38.0632 34.1457 38.1067C34.6684 38.0602 35.1872 37.9777 35.6984 37.8598C36.4149 37.6998 37.0945 37.4066 37.7014 36.9955C38.2964 36.5944 38.7949 36.0673 39.1609 35.4522C39.5838 34.7487 39.799 33.9412 39.782 33.1218Z" fill="#F72C38"/>
<path d="M36.8789 12.2412C34.8198 11.2791 32.5682 10.7932 30.2931 10.8199C28.018 10.8466 25.7786 11.3853 23.743 12.3956C19.5817 14.6179 13.1069 24.4796 25.6062 32.6746C25.6062 32.6746 22.5008 23.4147 28.5719 19.8034C30.2735 18.9506 32.2009 18.6484 34.084 18.9392C35.2019 19.1707 34.084 20.4825 34.0063 20.6214C33.8758 20.9021 33.807 21.2073 33.8045 21.5165C33.8042 21.8444 33.8841 22.1675 34.0374 22.4579C34.3045 23.0296 34.7826 23.4772 35.3727 23.708C35.9453 23.9388 36.5858 23.9388 37.1584 23.708C37.4325 23.6228 37.6837 23.4772 37.8934 23.2822C38.1031 23.0871 38.2658 22.8476 38.3695 22.5814C38.4839 22.3151 38.535 22.0262 38.5189 21.7372C38.5027 21.4481 38.4197 21.1666 38.2763 20.9146C38.0588 20.4496 37.7213 20.0503 37.2981 19.7571C37.2981 19.7571 37.2049 19.4793 37.6241 19.6337C38.4056 19.9139 39.1429 20.3037 39.8135 20.7911C41.0556 19.788 42.422 15.2507 36.8789 12.2412Z" fill="#F72C38"/>
<path d="M35.9478 38.9401C35.9478 38.9401 43.4163 38.2302 43.9597 31.7329C44.3634 27.1956 39.4724 26.5011 40.4351 21.6089C41.2114 18.8 44.8292 16.7012 49.5495 19.1396C54.2076 21.9175 54.9529 26.0536 54.72 29.9427C54.4871 33.8318 49.3631 43.3385 35.9478 38.9401Z" fill="#F72C38"/>
<path d="M31.7241 38.3071C31.8018 38.3071 31.8639 38.3071 31.8794 38.1991C30.7925 38.1991 30.4043 37.6281 30.3267 37.3503C30.2694 37.2379 30.2396 37.1136 30.2396 36.9876C30.2396 36.8616 30.2694 36.7374 30.3267 36.6249C30.4553 36.4325 30.6007 36.2517 30.7615 36.0848C31.0098 35.8423 31.1991 35.5466 31.3149 35.2203C31.4306 34.8939 31.4697 34.5456 31.4291 34.202C31.3982 33.8976 31.3034 33.603 31.151 33.3372C30.9985 33.0714 30.7918 32.8402 30.5441 32.6587C30.3021 32.4534 30.0196 32.3007 29.7148 32.2104C29.41 32.12 29.0895 32.094 28.774 32.1339C28.4583 32.157 28.1507 32.2443 27.8702 32.3903C27.5898 32.5363 27.3425 32.7379 27.1436 32.9827C26.9397 33.216 26.7862 33.4884 26.6928 33.7831C26.5993 34.0778 26.5678 34.3885 26.6002 34.6958C26.6641 35.316 26.9251 35.8999 27.3455 36.3626C27.7828 36.865 28.309 37.2835 28.8982 37.5972C29.1466 37.7053 29.0379 37.7824 28.6964 37.7361C26.5439 37.3523 24.5046 36.4966 22.7266 35.2312C20.9485 33.9658 19.4765 32.3225 18.4175 30.4209C17.5047 28.7082 16.9904 26.8138 16.9125 24.8773C16.8346 22.9408 17.195 21.0115 17.9672 19.2319C16.7716 19.3863 11.6166 20.7752 10.6229 27.751C9.62914 34.7267 16.3989 38.5541 20.0633 39.5418C25.1096 41.0851 30.4509 39.2949 31.5223 38.3534L31.7241 38.3071Z" fill="#F72C38"/>
<path d="M9.67603 32.4736C12.0983 40.5914 19.6289 41.7334 24.1783 42.0267C27.2837 42.2119 35.2336 39.5111 36.5999 45.7152C38.6029 57.2436 7.7041 55.6386 9.67603 32.4736Z" fill="#F72C38"/>
<path d="M53.0114 36.625C49.2538 42.9371 42.0027 42.7982 35.9316 41.6099C39.3321 44.2489 39.037 49.9283 39.037 49.9283C39.037 49.9283 52.0953 49.3727 53.0114 36.625Z" fill="#F72C38"/>
</svg>
