<svg width="24" height="24" viewBox="0 0 24 24" xmlns="http://www.w3.org/2000/svg">
<path d="M18.1514 16.7158L22.5 21.0633L21.0633 22.5L16.7158 18.1514C15.0981 19.4482 13.0861 20.1535 11.0128 20.1506C5.96873 20.1506 1.875 16.0568 1.875 11.0128C1.875 5.96873 5.96873 1.875 11.0128 1.875C16.0568 1.875 20.1506 5.96873 20.1506 11.0128C20.1535 13.0861 19.4482 15.0981 18.1514 16.7158ZM16.1147 15.9624C17.4033 14.6373 18.1229 12.8611 18.12 11.0128C18.12 7.08557 14.939 3.90562 11.0128 3.90562C7.08557 3.90562 3.90562 7.08557 3.90562 11.0128C3.90562 14.939 7.08557 18.12 11.0128 18.12C12.8611 18.1229 14.6373 17.4033 15.9624 16.1147L16.1147 15.9624Z"/>
</svg>
