<svg width="64" height="64" viewBox="0 0 64 64" fill="none" xmlns="http://www.w3.org/2000/svg">
<path d="M34.9864 45.3944L23.7891 39.2877C22.3272 40.8506 20.429 41.9376 18.3413 42.4074C16.2535 42.8773 14.0727 42.7083 12.0822 41.9225C10.0917 41.1367 8.38363 39.7703 7.17992 38.0009C5.9762 36.2316 5.33252 34.141 5.33252 32.0011C5.33252 29.8611 5.9762 27.7706 7.17992 26.0012C8.38363 24.2319 10.0917 22.8655 12.0822 22.0796C14.0727 21.2938 16.2535 21.1248 18.3413 21.5947C20.429 22.0646 22.3272 23.1516 23.7891 24.7144L34.9891 18.6077C34.3532 16.0906 34.6572 13.428 35.8441 11.1189C37.031 8.80991 39.0192 7.01301 41.4362 6.06507C43.8531 5.11712 46.5329 5.08321 48.973 5.96969C51.4132 6.85617 53.4463 8.60217 54.6912 10.8804C55.9361 13.1587 56.3074 15.8128 55.7355 18.3452C55.1635 20.8776 53.6876 23.1145 51.5844 24.6366C49.4811 26.1586 46.895 26.8614 44.3107 26.613C41.7264 26.3647 39.3213 25.1824 37.5464 23.2877L26.3464 29.3944C26.7763 31.1047 26.7763 32.8948 26.3464 34.6051L37.5437 40.7117C39.3187 38.817 41.7237 37.6347 44.308 37.3864C46.8923 37.1381 49.4785 37.8408 51.5817 39.3629C53.6849 40.885 55.1609 43.1219 55.7328 45.6543C56.3048 48.1867 55.9335 50.8408 54.6885 53.119C53.4436 55.3973 51.4105 57.1433 48.9704 58.0298C46.5302 58.9162 43.8505 58.8823 41.4335 57.9344C39.0166 56.9865 37.0283 55.1896 35.8414 52.8805C34.6546 50.5715 34.3505 47.9089 34.9864 45.3917V45.3944ZM15.9997 37.3331C17.4142 37.3331 18.7708 36.7712 19.771 35.771C20.7712 34.7708 21.3331 33.4142 21.3331 31.9997C21.3331 30.5852 20.7712 29.2287 19.771 28.2285C18.7708 27.2283 17.4142 26.6664 15.9997 26.6664C14.5852 26.6664 13.2287 27.2283 12.2285 28.2285C11.2283 29.2287 10.6664 30.5852 10.6664 31.9997C10.6664 33.4142 11.2283 34.7708 12.2285 35.771C13.2287 36.7712 14.5852 37.3331 15.9997 37.3331ZM45.3331 21.3331C46.7476 21.3331 48.1041 20.7712 49.1043 19.771C50.1045 18.7708 50.6664 17.4142 50.6664 15.9997C50.6664 14.5852 50.1045 13.2287 49.1043 12.2285C48.1041 11.2283 46.7476 10.6664 45.3331 10.6664C43.9186 10.6664 42.562 11.2283 41.5618 12.2285C40.5616 13.2287 39.9997 14.5852 39.9997 15.9997C39.9997 17.4142 40.5616 18.7708 41.5618 19.771C42.562 20.7712 43.9186 21.3331 45.3331 21.3331ZM45.3331 53.3331C46.7476 53.3331 48.1041 52.7712 49.1043 51.771C50.1045 50.7708 50.6664 49.4142 50.6664 47.9997C50.6664 46.5852 50.1045 45.2287 49.1043 44.2285C48.1041 43.2283 46.7476 42.6664 45.3331 42.6664C43.9186 42.6664 42.562 43.2283 41.5618 44.2285C40.5616 45.2287 39.9997 46.5852 39.9997 47.9997C39.9997 49.4142 40.5616 50.7708 41.5618 51.771C42.562 52.7712 43.9186 53.3331 45.3331 53.3331Z"/>
</svg>
