<svg width="64" height="64" viewBox="0 0 64 64" fill="none" xmlns="http://www.w3.org/2000/svg">
<path d="M31.6693 11.0773C37.9333 5.45328 47.6133 5.63995 53.648 11.6853C59.68 17.7333 59.888 27.3653 54.2773 33.6479L31.664 56.2933L9.05602 33.6479C3.44535 27.3653 3.65602 17.7173 9.68535 11.6853C15.7253 5.64795 25.3867 5.44528 31.6693 11.0773ZM49.872 15.4533C45.872 11.4479 39.4187 11.2853 35.232 15.0453L31.672 18.2399L28.1093 15.0479C23.9093 11.2826 17.4693 11.4479 13.4587 15.4586C9.48535 19.4319 9.28535 25.7919 12.9467 29.9946L31.6667 48.7439L50.3867 29.9973C54.0507 25.7919 53.8507 19.4399 49.872 15.4533Z" fill="#1D1D1B"/>
</svg>
