<svg width="64" height="64" viewBox="0 0 64 64" fill="none" xmlns="http://www.w3.org/2000/svg">
<path d="M54.8994 19.8962C55.2348 18.8022 54.8994 18 53.3137 18H48.0606C46.724 18 46.1131 18.694 45.7778 19.4562C45.7778 19.4562 43.1069 25.8528 39.3222 30.0003C38.1005 31.2072 37.5424 31.5883 36.8765 31.5883C36.5435 31.5883 36.0597 31.2072 36.0597 30.1133V19.8962C36.0597 18.5834 35.674 18 34.5601 18H26.3056C25.472 18 24.969 18.607 24.969 19.1857C24.969 20.4278 26.8613 20.7148 27.0554 24.2154V31.8094C27.0554 33.4727 26.7512 33.7762 26.0804 33.7762C24.3007 33.7762 19.9698 27.3561 17.3995 20.0067C16.8989 18.5787 16.3935 18.0024 15.052 18.0024H9.80134C8.29942 18.0024 8 18.6964 8 19.4586C8 20.8278 9.77978 27.6031 16.2905 36.5639C20.6309 42.6829 26.7416 46 32.3085 46C35.6453 46 36.0573 45.2637 36.0573 43.9933V39.3682C36.0573 37.8955 36.3759 37.5991 37.4322 37.5991C38.2083 37.5991 39.545 37.9849 42.6614 40.9326C46.2209 44.4285 46.8102 45.9976 48.8104 45.9976H54.0611C55.5606 45.9976 56.3103 45.2613 55.8792 43.8074C55.4073 42.3606 53.7065 40.2551 51.4501 37.7637C50.2236 36.3428 48.3912 34.8136 47.833 34.0491C47.0545 33.0634 47.2797 32.6281 47.833 31.753C47.8354 31.7553 54.2335 22.9051 54.8994 19.8962Z"/>
</svg>
