<svg width="64" height="64" viewBox="0 0 64 64" fill="none" xmlns="http://www.w3.org/2000/svg">
<path d="M52.2828 18.6532C52.0802 17.8585 51.5042 17.2585 50.8455 17.0745C49.6802 16.7465 44.0002 15.9998 32.0002 15.9998C20.0002 15.9998 14.3255 16.7465 13.1495 17.0745C12.4988 17.2558 11.9228 17.8558 11.7175 18.6532C11.4268 19.7838 10.6668 24.5225 10.6668 31.9998C10.6668 39.4772 11.4268 44.2132 11.7175 45.3492C11.9202 46.1412 12.4962 46.7412 13.1522 46.9225C14.3255 47.2532 20.0002 47.9998 32.0002 47.9998C44.0002 47.9998 49.6775 47.2532 50.8508 46.9252C51.5015 46.7438 52.0775 46.1438 52.2828 45.3465C52.5735 44.2158 53.3335 39.4665 53.3335 31.9998C53.3335 24.5332 52.5735 19.7865 52.2828 18.6532ZM57.4482 17.3278C58.6668 22.0798 58.6668 31.9998 58.6668 31.9998C58.6668 31.9998 58.6668 41.9198 57.4482 46.6718C56.7708 49.2985 54.7895 51.3652 52.2802 52.0638C47.7228 53.3332 32.0002 53.3332 32.0002 53.3332C32.0002 53.3332 16.2855 53.3332 11.7202 52.0638C9.20016 51.3545 7.2215 49.2905 6.55216 46.6718C5.3335 41.9198 5.3335 31.9998 5.3335 31.9998C5.3335 31.9998 5.3335 22.0798 6.55216 17.3278C7.2295 14.7012 9.21083 12.6345 11.7202 11.9358C16.2855 10.6665 32.0002 10.6665 32.0002 10.6665C32.0002 10.6665 47.7228 10.6665 52.2802 11.9358C54.8002 12.6452 56.7788 14.7092 57.4482 17.3278ZM26.6668 41.3332V22.6665L42.6668 31.9998L26.6668 41.3332Z"/>
</svg>
