<svg width="64" height="64" viewBox="0 0 64 64" fill="none" xmlns="http://www.w3.org/2000/svg">
<path d="M57.4477 17.3283C58.6663 22.0803 58.6663 32.0003 58.6663 32.0003C58.6663 32.0003 58.6663 41.9203 57.4477 46.6723C56.7703 49.299 54.789 51.3657 52.2797 52.0643C47.7223 53.3337 31.9997 53.3337 31.9997 53.3337C31.9997 53.3337 16.285 53.3337 11.7197 52.0643C9.19967 51.355 7.22101 49.291 6.55167 46.6723C5.33301 41.9203 5.33301 32.0003 5.33301 32.0003C5.33301 32.0003 5.33301 22.0803 6.55167 17.3283C7.22901 14.7017 9.21034 12.635 11.7197 11.9363C16.285 10.667 31.9997 10.667 31.9997 10.667C31.9997 10.667 47.7223 10.667 52.2797 11.9363C54.7997 12.6457 56.7783 14.7097 57.4477 17.3283Z" fill="#F72C38"/>
<path d="M26.666 22.667V41.3337L42.666 32.0003L26.666 22.667Z" fill="white"/>
</svg>
