<svg viewBox="0 0 322 408" fill="none" xmlns="http://www.w3.org/2000/svg">
<path d="M160.992 405.385L320.113 141.454C321.349 139.314 322 136.887 322 134.416C322 131.945 321.349 129.518 320.113 127.378L247.312 1.53565C247.039 1.06834 246.649 0.68065 246.179 0.411215C245.71 0.14178 245.178 0 244.637 0C244.095 0 243.563 0.14178 243.094 0.411215C242.624 0.68065 242.234 1.06834 241.961 1.53565L0.181612 404.4C0.0490997 404.741 -0.0121178 405.106 0.00198333 405.471C0.0160845 405.837 0.105088 406.196 0.263476 406.526C0.421865 406.855 0.646352 407.149 0.922902 407.389C1.19945 407.629 1.52223 407.809 1.87132 407.919H154.374C155.602 408.105 156.858 407.969 158.018 407.525C159.178 407.081 160.203 406.344 160.992 405.385Z" fill="#7DBCCA"/>
</svg>
